%TF.GenerationSoftware,KiCad,Pcbnew,7.0.1+dfsg-1*%
%TF.CreationDate,2024-08-17T23:40:14+03:00*%
%TF.ProjectId,OpenEVSE_mod,4f70656e-4556-4534-955f-6d6f642e6b69,rev?*%
%TF.SameCoordinates,PX9d5b340PY54e0840*%
%TF.FileFunction,Copper,L2,Bot*%
%TF.FilePolarity,Positive*%
%FSLAX46Y46*%
G04 Gerber Fmt 4.6, Leading zero omitted, Abs format (unit mm)*
G04 Created by KiCad (PCBNEW 7.0.1+dfsg-1) date 2024-08-17 23:40:14*
%MOMM*%
%LPD*%
G01*
G04 APERTURE LIST*
G04 Aperture macros list*
%AMRoundRect*
0 Rectangle with rounded corners*
0 $1 Rounding radius*
0 $2 $3 $4 $5 $6 $7 $8 $9 X,Y pos of 4 corners*
0 Add a 4 corners polygon primitive as box body*
4,1,4,$2,$3,$4,$5,$6,$7,$8,$9,$2,$3,0*
0 Add four circle primitives for the rounded corners*
1,1,$1+$1,$2,$3*
1,1,$1+$1,$4,$5*
1,1,$1+$1,$6,$7*
1,1,$1+$1,$8,$9*
0 Add four rect primitives between the rounded corners*
20,1,$1+$1,$2,$3,$4,$5,0*
20,1,$1+$1,$4,$5,$6,$7,0*
20,1,$1+$1,$6,$7,$8,$9,0*
20,1,$1+$1,$8,$9,$2,$3,0*%
%AMOutline4P*
0 Free polygon, 4 corners , with rotation*
0 The origin of the aperture is its center*
0 number of corners: always 4*
0 $1 to $8 corner X, Y*
0 $9 Rotation angle, in degrees counterclockwise*
0 create outline with 4 corners*
4,1,4,$1,$2,$3,$4,$5,$6,$7,$8,$1,$2,$9*%
G04 Aperture macros list end*
%TA.AperFunction,ComponentPad*%
%ADD10R,1.700000X1.700000*%
%TD*%
%TA.AperFunction,ComponentPad*%
%ADD11O,1.700000X1.700000*%
%TD*%
%TA.AperFunction,SMDPad,CuDef*%
%ADD12RoundRect,0.250000X-0.337500X-0.475000X0.337500X-0.475000X0.337500X0.475000X-0.337500X0.475000X0*%
%TD*%
%TA.AperFunction,SMDPad,CuDef*%
%ADD13Outline4P,-2.150000X-1.800000X2.150000X-0.800000X2.150000X0.800000X-2.150000X1.800000X180.000000*%
%TD*%
%TA.AperFunction,SMDPad,CuDef*%
%ADD14Outline4P,-2.150000X-1.800000X2.150000X-0.800000X2.150000X0.800000X-2.150000X1.800000X0.000000*%
%TD*%
%TA.AperFunction,ComponentPad*%
%ADD15C,1.500000*%
%TD*%
%TA.AperFunction,ConnectorPad*%
%ADD16C,5.500000*%
%TD*%
%TA.AperFunction,ComponentPad*%
%ADD17C,3.600000*%
%TD*%
%TA.AperFunction,ComponentPad*%
%ADD18R,2.600000X2.600000*%
%TD*%
%TA.AperFunction,ComponentPad*%
%ADD19C,2.600000*%
%TD*%
%TA.AperFunction,SMDPad,CuDef*%
%ADD20RoundRect,0.150000X0.150000X-0.825000X0.150000X0.825000X-0.150000X0.825000X-0.150000X-0.825000X0*%
%TD*%
%TA.AperFunction,SMDPad,CuDef*%
%ADD21RoundRect,0.150000X-0.825000X-0.150000X0.825000X-0.150000X0.825000X0.150000X-0.825000X0.150000X0*%
%TD*%
%TA.AperFunction,ComponentPad*%
%ADD22O,1.600000X1.600000*%
%TD*%
%TA.AperFunction,ComponentPad*%
%ADD23R,1.600000X1.600000*%
%TD*%
%TA.AperFunction,SMDPad,CuDef*%
%ADD24R,2.000000X1.500000*%
%TD*%
%TA.AperFunction,SMDPad,CuDef*%
%ADD25R,2.000000X3.800000*%
%TD*%
%TA.AperFunction,SMDPad,CuDef*%
%ADD26R,1.600000X0.550000*%
%TD*%
%TA.AperFunction,SMDPad,CuDef*%
%ADD27R,0.550000X1.600000*%
%TD*%
%TA.AperFunction,SMDPad,CuDef*%
%ADD28RoundRect,0.250000X-1.500000X-0.900000X1.500000X-0.900000X1.500000X0.900000X-1.500000X0.900000X0*%
%TD*%
%TA.AperFunction,ComponentPad*%
%ADD29C,1.800000*%
%TD*%
%TA.AperFunction,SMDPad,CuDef*%
%ADD30RoundRect,0.250000X-0.350000X-0.450000X0.350000X-0.450000X0.350000X0.450000X-0.350000X0.450000X0*%
%TD*%
%TA.AperFunction,SMDPad,CuDef*%
%ADD31RoundRect,0.250000X-0.450000X0.350000X-0.450000X-0.350000X0.450000X-0.350000X0.450000X0.350000X0*%
%TD*%
%TA.AperFunction,SMDPad,CuDef*%
%ADD32RoundRect,0.250000X0.350000X0.450000X-0.350000X0.450000X-0.350000X-0.450000X0.350000X-0.450000X0*%
%TD*%
%TA.AperFunction,SMDPad,CuDef*%
%ADD33RoundRect,0.250000X0.450000X-0.350000X0.450000X0.350000X-0.450000X0.350000X-0.450000X-0.350000X0*%
%TD*%
%TA.AperFunction,ComponentPad*%
%ADD34C,1.600000*%
%TD*%
%TA.AperFunction,SMDPad,CuDef*%
%ADD35RoundRect,0.150000X0.150000X-0.587500X0.150000X0.587500X-0.150000X0.587500X-0.150000X-0.587500X0*%
%TD*%
%TA.AperFunction,ComponentPad*%
%ADD36C,3.000000*%
%TD*%
%TA.AperFunction,ComponentPad*%
%ADD37R,3.000000X3.000000*%
%TD*%
%TA.AperFunction,ComponentPad*%
%ADD38C,2.000000*%
%TD*%
%TA.AperFunction,SMDPad,CuDef*%
%ADD39RoundRect,0.250000X0.650000X-1.000000X0.650000X1.000000X-0.650000X1.000000X-0.650000X-1.000000X0*%
%TD*%
%TA.AperFunction,SMDPad,CuDef*%
%ADD40RoundRect,0.160000X-0.160000X0.222500X-0.160000X-0.222500X0.160000X-0.222500X0.160000X0.222500X0*%
%TD*%
%TA.AperFunction,SMDPad,CuDef*%
%ADD41RoundRect,0.250000X0.475000X-0.337500X0.475000X0.337500X-0.475000X0.337500X-0.475000X-0.337500X0*%
%TD*%
%TA.AperFunction,SMDPad,CuDef*%
%ADD42RoundRect,0.250000X-0.475000X0.337500X-0.475000X-0.337500X0.475000X-0.337500X0.475000X0.337500X0*%
%TD*%
%TA.AperFunction,ViaPad*%
%ADD43C,0.800000*%
%TD*%
%TA.AperFunction,Conductor*%
%ADD44C,0.250000*%
%TD*%
%TA.AperFunction,Conductor*%
%ADD45C,1.000000*%
%TD*%
%TA.AperFunction,Conductor*%
%ADD46C,0.500000*%
%TD*%
G04 APERTURE END LIST*
D10*
%TO.P,J6,1,Pin_1*%
%TO.N,GND*%
X16483000Y1751000D03*
D11*
%TO.P,J6,2,Pin_2*%
%TO.N,+5V*%
X19023000Y1751000D03*
%TO.P,J6,3,Pin_3*%
%TO.N,/SCL*%
X21563000Y1751000D03*
%TO.P,J6,4,Pin_4*%
%TO.N,/SDA*%
X24103000Y1751000D03*
%TD*%
D12*
%TO.P,C16,1*%
%TO.N,+5V*%
X36760000Y18388000D03*
%TO.P,C16,2*%
%TO.N,GND*%
X38835000Y18388000D03*
%TD*%
D13*
%TO.P,D4,1,K*%
%TO.N,+12V*%
X24400000Y41000000D03*
D14*
%TO.P,D4,2,A*%
%TO.N,Net-(D4-A)*%
X18000000Y41000000D03*
%TD*%
D15*
%TO.P,Y1,1,1*%
%TO.N,Net-(U1-XTAL2{slash}PB7)*%
X26516000Y22452000D03*
%TO.P,Y1,2,2*%
%TO.N,Net-(U1-XTAL1{slash}PB6)*%
X26516000Y17572000D03*
%TD*%
D16*
%TO.P,H4,1,1*%
%TO.N,GND*%
X7000000Y56000000D03*
D17*
X7000000Y56000000D03*
%TD*%
D18*
%TO.P,J4,1,Pin_1*%
%TO.N,/PILOT*%
X6450000Y47010000D03*
D19*
%TO.P,J4,2,Pin_2*%
%TO.N,/PP*%
X6450000Y42010000D03*
%TD*%
D20*
%TO.P,U7,8,V+*%
%TO.N,+12V*%
X16483000Y26949000D03*
%TO.P,U7,7*%
%TO.N,unconnected-(U7-Pad7)*%
X15213000Y26949000D03*
%TO.P,U7,6,-*%
%TO.N,GND*%
X13943000Y26949000D03*
%TO.P,U7,5,+*%
X12673000Y26949000D03*
%TO.P,U7,4,V-*%
%TO.N,-12V*%
X12673000Y21999000D03*
%TO.P,U7,3,+*%
%TO.N,/PWM*%
X13943000Y21999000D03*
%TO.P,U7,2,-*%
%TO.N,Net-(U7A--)*%
X15213000Y21999000D03*
%TO.P,U7,1*%
%TO.N,Net-(R10-Pad1)*%
X16483000Y21999000D03*
%TD*%
D21*
%TO.P,U6,8,V+*%
%TO.N,+12V*%
X17815000Y10260000D03*
%TO.P,U6,7,OSC*%
%TO.N,unconnected-(U6-OSC-Pad7)*%
X17815000Y11530000D03*
%TO.P,U6,6,LV*%
%TO.N,unconnected-(U6-LV-Pad6)*%
X17815000Y12800000D03*
%TO.P,U6,5,VOUT*%
%TO.N,-12V*%
X17815000Y14070000D03*
%TO.P,U6,4,CAP-*%
%TO.N,Net-(U6-CAP-)*%
X12865000Y14070000D03*
%TO.P,U6,3,GND*%
%TO.N,GND*%
X12865000Y12800000D03*
%TO.P,U6,2,CAP+*%
%TO.N,Net-(U6-CAP+)*%
X12865000Y11530000D03*
%TO.P,U6,1,BOOST*%
%TO.N,+12V*%
X12865000Y10260000D03*
%TD*%
D22*
%TO.P,U5,8,VCC*%
%TO.N,+5V*%
X57240000Y48360000D03*
%TO.P,U5,7,VO1*%
%TO.N,/AC_TEST_OUT1*%
X57240000Y50900000D03*
%TO.P,U5,6,VO2*%
%TO.N,/AC_TEST_OUT2*%
X57240000Y53440000D03*
%TO.P,U5,5,GND*%
%TO.N,GND*%
X57240000Y55980000D03*
%TO.P,U5,4,A2*%
%TO.N,Net-(D3-K)*%
X64860000Y55980000D03*
%TO.P,U5,3,C2*%
%TO.N,GND*%
X64860000Y53440000D03*
%TO.P,U5,2,C1*%
X64860000Y50900000D03*
D23*
%TO.P,U5,1,A1*%
%TO.N,Net-(D2-K)*%
X64860000Y48360000D03*
%TD*%
D22*
%TO.P,U4,8*%
%TO.N,/AC_L_FUSED*%
X68680000Y39460000D03*
%TO.P,U4,6*%
%TO.N,/AC_RELAY2*%
X68680000Y34380000D03*
%TO.P,U4,5*%
%TO.N,unconnected-(U4-Pad5)*%
X68680000Y31840000D03*
%TO.P,U4,4*%
%TO.N,GND*%
X61060000Y31840000D03*
%TO.P,U4,3*%
X61060000Y34380000D03*
%TO.P,U4,2*%
%TO.N,Net-(R4-Pad2)*%
X61060000Y36920000D03*
D23*
%TO.P,U4,1*%
%TO.N,GND*%
X61060000Y39460000D03*
%TD*%
%TO.P,U3,1*%
%TO.N,GND*%
X61060000Y26760000D03*
D22*
%TO.P,U3,2*%
%TO.N,Net-(R5-Pad2)*%
X61060000Y24220000D03*
%TO.P,U3,3*%
%TO.N,GND*%
X61060000Y21680000D03*
%TO.P,U3,4*%
X61060000Y19140000D03*
%TO.P,U3,5*%
%TO.N,unconnected-(U3-Pad5)*%
X68680000Y19140000D03*
%TO.P,U3,6*%
%TO.N,/ACRELAY1*%
X68680000Y21680000D03*
%TO.P,U3,8*%
%TO.N,/AC_L_FUSED*%
X68680000Y26760000D03*
%TD*%
D24*
%TO.P,U2,1,GND*%
%TO.N,GND*%
X39420000Y55980000D03*
D25*
%TO.P,U2,2,VO*%
%TO.N,+5V*%
X33120000Y53680000D03*
D24*
X39420000Y53680000D03*
%TO.P,U2,3,VI*%
%TO.N,+12V*%
X39420000Y51380000D03*
%TD*%
D26*
%TO.P,U1,32,PD2*%
%TO.N,unconnected-(U1-PD2-Pad32)*%
X43720000Y25240000D03*
%TO.P,U1,31,PD1*%
%TO.N,/UART_TX*%
X43720000Y26040000D03*
%TO.P,U1,30,PD0*%
%TO.N,/UART_RX*%
X43720000Y26840000D03*
%TO.P,U1,29,~{RESET}/PC6*%
%TO.N,/RST*%
X43720000Y27640000D03*
%TO.P,U1,28,PC5*%
%TO.N,/SCL*%
X43720000Y28440000D03*
%TO.P,U1,27,PC4*%
%TO.N,/SDA*%
X43720000Y29240000D03*
%TO.P,U1,26,PC3*%
%TO.N,unconnected-(U1-PC3-Pad26)*%
X43720000Y30040000D03*
%TO.P,U1,25,PC2*%
%TO.N,/PPREAD*%
X43720000Y30840000D03*
D27*
%TO.P,U1,24,PC1*%
%TO.N,/PILOTREAD*%
X42270000Y32290000D03*
%TO.P,U1,23,PC0*%
%TO.N,unconnected-(U1-PC0-Pad23)*%
X41470000Y32290000D03*
%TO.P,U1,22,ADC7*%
%TO.N,unconnected-(U1-ADC7-Pad22)*%
X40670000Y32290000D03*
%TO.P,U1,21,GND*%
%TO.N,GND*%
X39870000Y32290000D03*
%TO.P,U1,20,AREF*%
%TO.N,Net-(U1-AREF)*%
X39070000Y32290000D03*
%TO.P,U1,19,ADC6*%
%TO.N,unconnected-(U1-ADC6-Pad19)*%
X38270000Y32290000D03*
%TO.P,U1,18,AVCC*%
%TO.N,+5V*%
X37470000Y32290000D03*
%TO.P,U1,17,PB5*%
%TO.N,/SCK*%
X36670000Y32290000D03*
D26*
%TO.P,U1,16,PB4*%
%TO.N,/MISO*%
X35220000Y30840000D03*
%TO.P,U1,15,PB3*%
%TO.N,/MOSI*%
X35220000Y30040000D03*
%TO.P,U1,14,PB2*%
%TO.N,/PWM*%
X35220000Y29240000D03*
%TO.P,U1,13,PB1*%
%TO.N,/AC_RELAY_CNTRL_1*%
X35220000Y28440000D03*
%TO.P,U1,12,PB0*%
%TO.N,unconnected-(U1-PB0-Pad12)*%
X35220000Y27640000D03*
%TO.P,U1,11,PD7*%
%TO.N,unconnected-(U1-PD7-Pad11)*%
X35220000Y26840000D03*
%TO.P,U1,10,PD6*%
%TO.N,/PILOT_DISCONNECT*%
X35220000Y26040000D03*
%TO.P,U1,9,PD5*%
%TO.N,/AC_RELAY_CNTRL_2*%
X35220000Y25240000D03*
D27*
%TO.P,U1,8,XTAL2/PB7*%
%TO.N,Net-(U1-XTAL2{slash}PB7)*%
X36670000Y23790000D03*
%TO.P,U1,7,XTAL1/PB6*%
%TO.N,Net-(U1-XTAL1{slash}PB6)*%
X37470000Y23790000D03*
%TO.P,U1,6,VCC*%
%TO.N,+5V*%
X38270000Y23790000D03*
%TO.P,U1,5,GND*%
%TO.N,GND*%
X39070000Y23790000D03*
%TO.P,U1,4,VCC*%
%TO.N,+5V*%
X39870000Y23790000D03*
%TO.P,U1,3,GND*%
%TO.N,GND*%
X40670000Y23790000D03*
%TO.P,U1,2,PD4*%
%TO.N,/AC_TEST_OUT2*%
X41470000Y23790000D03*
%TO.P,U1,1,PD3*%
%TO.N,/AC_TEST_OUT1*%
X42270000Y23790000D03*
%TD*%
D28*
%TO.P,TVS1,1,K*%
%TO.N,/PILOT*%
X16290000Y53440000D03*
%TO.P,TVS1,2,A*%
%TO.N,GND*%
X21690000Y53440000D03*
%TD*%
D29*
%TO.P,RV1,2*%
%TO.N,/AC_N_FUSED*%
X61060000Y11470000D03*
%TO.P,RV1,1*%
%TO.N,/AC_L_FUSED*%
X59660000Y3970000D03*
%TD*%
D30*
%TO.P,R14,1*%
%TO.N,/PILOT_DISCONNECT*%
X8244000Y30580000D03*
%TO.P,R14,2*%
%TO.N,Net-(Q1-B)*%
X10244000Y30580000D03*
%TD*%
D31*
%TO.P,R13,1*%
%TO.N,/PILOTREAD*%
X8863000Y21329000D03*
%TO.P,R13,2*%
%TO.N,+5V*%
X8863000Y19329000D03*
%TD*%
%TO.P,R12,2*%
%TO.N,GND*%
X10768000Y19329000D03*
%TO.P,R12,1*%
%TO.N,/PILOTREAD*%
X10768000Y21329000D03*
%TD*%
D30*
%TO.P,R11,2*%
%TO.N,/PILOTREAD*%
X10863000Y23869000D03*
%TO.P,R11,1*%
%TO.N,/PILOT_AO*%
X8863000Y23869000D03*
%TD*%
D32*
%TO.P,R10,2*%
%TO.N,/PILOT_AO*%
X8863000Y25774000D03*
%TO.P,R10,1*%
%TO.N,Net-(R10-Pad1)*%
X10863000Y25774000D03*
%TD*%
D33*
%TO.P,R9,2*%
%TO.N,GND*%
X18388000Y22599000D03*
%TO.P,R9,1*%
%TO.N,Net-(U7A--)*%
X18388000Y20599000D03*
%TD*%
%TO.P,R8,2*%
%TO.N,Net-(U7A--)*%
X18388000Y18864000D03*
%TO.P,R8,1*%
%TO.N,+5V*%
X18388000Y16864000D03*
%TD*%
D34*
%TO.P,R7,1*%
%TO.N,/ACTEST2*%
X71220000Y43280000D03*
D22*
%TO.P,R7,2*%
%TO.N,Net-(D3-A)*%
X71220000Y58520000D03*
%TD*%
%TO.P,R6,2*%
%TO.N,Net-(D2-A)*%
X76300000Y55980000D03*
D34*
%TO.P,R6,1*%
%TO.N,/ACTEST1*%
X76300000Y40740000D03*
%TD*%
D30*
%TO.P,R5,1*%
%TO.N,/AC_RELAY_CNTRL_1*%
X51948000Y15848000D03*
%TO.P,R5,2*%
%TO.N,Net-(R5-Pad2)*%
X53948000Y15848000D03*
%TD*%
%TO.P,R4,1*%
%TO.N,/AC_RELAY_CNTRL_2*%
X51948000Y18388000D03*
%TO.P,R4,2*%
%TO.N,Net-(R4-Pad2)*%
X53948000Y18388000D03*
%TD*%
D31*
%TO.P,R3,1*%
%TO.N,/PP*%
X7085000Y37927500D03*
%TO.P,R3,2*%
%TO.N,/PPREAD*%
X7085000Y35927500D03*
%TD*%
D33*
%TO.P,R2,1*%
%TO.N,+5V*%
X5180000Y35927500D03*
%TO.P,R2,2*%
%TO.N,/PP*%
X5180000Y37927500D03*
%TD*%
D32*
%TO.P,R1,1*%
%TO.N,+5V*%
X49344000Y27532000D03*
%TO.P,R1,2*%
%TO.N,/RST*%
X47344000Y27532000D03*
%TD*%
D35*
%TO.P,Q1,3,C*%
%TO.N,Net-(D4-A)*%
X11215000Y34722500D03*
%TO.P,Q1,2,E*%
%TO.N,GND*%
X10265000Y32847500D03*
%TO.P,Q1,1,B*%
%TO.N,Net-(Q1-B)*%
X12165000Y32847500D03*
%TD*%
D36*
%TO.P,PS1,4,+Vout*%
%TO.N,+12V*%
X52422500Y37362500D03*
%TO.P,PS1,3,-Vout*%
%TO.N,GND*%
X34422500Y37362500D03*
%TO.P,PS1,2,AC/N*%
%TO.N,/AC_N_FUSED*%
X46422500Y3762500D03*
D37*
%TO.P,PS1,1,AC/L*%
%TO.N,/AC_L_FUSED*%
X40422500Y3762500D03*
%TD*%
D36*
%TO.P,K1,11*%
%TO.N,/PILOT_AO*%
X21405000Y32690000D03*
%TO.P,K1,12*%
%TO.N,/PILOT*%
X15405000Y46890000D03*
%TO.P,K1,14*%
%TO.N,unconnected-(K1-Pad14)*%
X27405000Y46890000D03*
%TO.P,K1,A1*%
%TO.N,+12V*%
X27405000Y34690000D03*
%TO.P,K1,A2*%
%TO.N,Net-(D4-A)*%
X15405000Y34690000D03*
%TD*%
D18*
%TO.P,J5,1,Pin_1*%
%TO.N,/AC_L*%
X83920000Y13080000D03*
D19*
%TO.P,J5,2,Pin_2*%
%TO.N,/AC_N*%
X83920000Y18080000D03*
%TO.P,J5,3,Pin_3*%
X83920000Y23080000D03*
%TO.P,J5,4,Pin_4*%
%TO.N,/ACRELAY1*%
X83920000Y28080000D03*
%TO.P,J5,5,Pin_5*%
%TO.N,/AC_N*%
X83920000Y33080000D03*
%TO.P,J5,6,Pin_6*%
%TO.N,/AC_RELAY2*%
X83920000Y38080000D03*
%TO.P,J5,7,Pin_7*%
%TO.N,/ACTEST1*%
X83920000Y43080000D03*
%TO.P,J5,8,Pin_8*%
%TO.N,/ACTEST2*%
X83920000Y48080000D03*
%TD*%
D11*
%TO.P,J3,6,Pin_6*%
%TO.N,/RST*%
X2005000Y8990000D03*
%TO.P,J3,5,Pin_5*%
%TO.N,/UART_TX*%
X2005000Y11530000D03*
%TO.P,J3,4,Pin_4*%
%TO.N,/UART_RX*%
X2005000Y14070000D03*
%TO.P,J3,3,Pin_3*%
%TO.N,+12V*%
X2005000Y16610000D03*
%TO.P,J3,2,Pin_2*%
%TO.N,+5V*%
X2005000Y19150000D03*
D10*
%TO.P,J3,1,Pin_1*%
%TO.N,GND*%
X2005000Y21690000D03*
%TD*%
D11*
%TO.P,J2,4,Pin_4*%
%TO.N,/SDA*%
X24103000Y5942000D03*
%TO.P,J2,3,Pin_3*%
%TO.N,/SCL*%
X21563000Y5942000D03*
%TO.P,J2,2,Pin_2*%
%TO.N,+5V*%
X19023000Y5942000D03*
D10*
%TO.P,J2,1,Pin_1*%
%TO.N,GND*%
X16483000Y5942000D03*
%TD*%
D11*
%TO.P,J1,6,GND*%
%TO.N,GND*%
X40740000Y47090000D03*
%TO.P,J1,5,~{RST}*%
%TO.N,/RST*%
X40740000Y44550000D03*
%TO.P,J1,4,MOSI*%
%TO.N,/MOSI*%
X38200000Y47090000D03*
%TO.P,J1,3,SCK*%
%TO.N,/SCK*%
X38200000Y44550000D03*
%TO.P,J1,2,VCC*%
%TO.N,+5V*%
X35660000Y47090000D03*
D10*
%TO.P,J1,1,MISO*%
%TO.N,/MISO*%
X35660000Y44550000D03*
%TD*%
D16*
%TO.P,H3,1,1*%
%TO.N,GND*%
X7000000Y4000000D03*
D17*
X7000000Y4000000D03*
%TD*%
D38*
%TO.P,F2,1*%
%TO.N,/AC_N*%
X73760000Y12292000D03*
%TO.P,F2,2*%
%TO.N,/AC_N_FUSED*%
X68680000Y12302000D03*
%TD*%
%TO.P,F1,1*%
%TO.N,/AC_L*%
X73760000Y5180000D03*
%TO.P,F1,2*%
%TO.N,/AC_L_FUSED*%
X68680000Y5190000D03*
%TD*%
D39*
%TO.P,D3,1,K*%
%TO.N,Net-(D3-K)*%
X71220000Y51980000D03*
%TO.P,D3,2,A*%
%TO.N,Net-(D3-A)*%
X71220000Y55980000D03*
%TD*%
%TO.P,D2,2,A*%
%TO.N,Net-(D2-A)*%
X76300000Y50360000D03*
%TO.P,D2,1,K*%
%TO.N,Net-(D2-K)*%
X76300000Y46360000D03*
%TD*%
D40*
%TO.P,D1,1,K*%
%TO.N,/PPREAD*%
X7085000Y34532500D03*
%TO.P,D1,2,A*%
%TO.N,GND*%
X7085000Y33387500D03*
%TD*%
D41*
%TO.P,C15,2*%
%TO.N,Net-(U6-CAP-)*%
X10195000Y14070000D03*
%TO.P,C15,1*%
%TO.N,Net-(U6-CAP+)*%
X10195000Y11995000D03*
%TD*%
D42*
%TO.P,C14,2*%
%TO.N,GND*%
X15340000Y17043000D03*
%TO.P,C14,1*%
%TO.N,-12V*%
X15340000Y19118000D03*
%TD*%
D12*
%TO.P,C13,2*%
%TO.N,GND*%
X44720000Y51535000D03*
%TO.P,C13,1*%
%TO.N,+12V*%
X42645000Y51535000D03*
%TD*%
D42*
%TO.P,C12,1*%
%TO.N,-12V*%
X13308000Y19118000D03*
%TO.P,C12,2*%
%TO.N,GND*%
X13308000Y17043000D03*
%TD*%
%TO.P,C11,1*%
%TO.N,-12V*%
X20990000Y13900000D03*
%TO.P,C11,2*%
%TO.N,GND*%
X20990000Y11825000D03*
%TD*%
D41*
%TO.P,C10,2*%
%TO.N,Net-(U6-CAP-)*%
X7655000Y14070000D03*
%TO.P,C10,1*%
%TO.N,Net-(U6-CAP+)*%
X7655000Y11995000D03*
%TD*%
D12*
%TO.P,C9,1*%
%TO.N,+5V*%
X42645000Y54075000D03*
%TO.P,C9,2*%
%TO.N,GND*%
X44720000Y54075000D03*
%TD*%
%TO.P,C8,1*%
%TO.N,+5V*%
X42645000Y56615000D03*
%TO.P,C8,2*%
%TO.N,GND*%
X44720000Y56615000D03*
%TD*%
D41*
%TO.P,C7,2*%
%TO.N,GND*%
X18388000Y29024000D03*
%TO.P,C7,1*%
%TO.N,+12V*%
X18388000Y26949000D03*
%TD*%
D34*
%TO.P,C6,2*%
%TO.N,GND*%
X47908000Y45820000D03*
D23*
%TO.P,C6,1*%
%TO.N,+12V*%
X51408000Y45820000D03*
%TD*%
D41*
%TO.P,C5,1*%
%TO.N,Net-(U1-XTAL2{slash}PB7)*%
X30580000Y21436000D03*
%TO.P,C5,2*%
%TO.N,GND*%
X30580000Y23511000D03*
%TD*%
D42*
%TO.P,C4,1*%
%TO.N,Net-(U1-XTAL1{slash}PB6)*%
X30580000Y17880000D03*
%TO.P,C4,2*%
%TO.N,GND*%
X30580000Y15805000D03*
%TD*%
D41*
%TO.P,C3,2*%
%TO.N,GND*%
X40740000Y36719000D03*
%TO.P,C3,1*%
%TO.N,Net-(U1-AREF)*%
X40740000Y34644000D03*
%TD*%
D42*
%TO.P,C2,1*%
%TO.N,+5V*%
X54710000Y48360000D03*
%TO.P,C2,2*%
%TO.N,GND*%
X54710000Y46285000D03*
%TD*%
D41*
%TO.P,C1,1*%
%TO.N,+5V*%
X38708000Y34644000D03*
%TO.P,C1,2*%
%TO.N,GND*%
X38708000Y36719000D03*
%TD*%
D43*
%TO.N,GND*%
X33374000Y16864000D03*
X26389000Y10641000D03*
X24611000Y10641000D03*
X26516000Y13308000D03*
X24738000Y13308000D03*
X44042000Y21436000D03*
X51789000Y27532000D03*
X50646000Y21944000D03*
X50773000Y24992000D03*
X41502000Y38200000D03*
X11657000Y27151000D03*
X33501000Y34644000D03*
X19658000Y11530000D03*
X19658000Y12546000D03*
X32866000Y23595000D03*
X30580000Y25119000D03*
X21182000Y37819000D03*
X23341000Y35533000D03*
X24484000Y32739000D03*
X28294000Y31850000D03*
X48868000Y37184000D03*
X46836000Y39343000D03*
X45820000Y31215000D03*
X45439000Y34771000D03*
X42010000Y27786000D03*
%TO.N,+5V*%
X42645000Y54075000D03*
X49376000Y27532000D03*
%TO.N,GND*%
X40994000Y19023000D03*
X38994500Y21817000D03*
X39978000Y20166000D03*
X39870000Y30580000D03*
%TO.N,/PPREAD*%
X28167000Y42645000D03*
X29691000Y32104000D03*
%TO.N,GND*%
X39724000Y38200000D03*
X56488000Y46328000D03*
X54964000Y44296000D03*
X52932000Y46328000D03*
X46836000Y51408000D03*
X46836000Y53440000D03*
X46836000Y54456000D03*
X46836000Y56488000D03*
X40232000Y58012000D03*
X37692000Y58520000D03*
X36676000Y55472000D03*
X21690000Y51027000D03*
X24357000Y50900000D03*
X24484000Y53440000D03*
X23976000Y55980000D03*
X21436000Y55980000D03*
X6704000Y28040000D03*
X7212000Y22960000D03*
X6704000Y25500000D03*
X7085000Y31977000D03*
X8736000Y33120000D03*
X28548000Y608000D03*
X28548000Y3656000D03*
X32612000Y8228000D03*
X40232000Y10768000D03*
X46836000Y13308000D03*
X52424000Y13816000D03*
X55980000Y14832000D03*
X59028000Y16356000D03*
X59000000Y19000000D03*
X15340000Y12292000D03*
X15340000Y13816000D03*
X5688000Y14832000D03*
X7720000Y17372000D03*
X11276000Y17372000D03*
X18388000Y23976000D03*
X17880000Y24992000D03*
X16864000Y29056000D03*
%TO.N,+12V*%
X19664000Y26949000D03*
%TO.N,+5V*%
X19912000Y16356000D03*
X38200000Y19912000D03*
X38708000Y34644000D03*
%TO.N,/AC_RELAY_CNTRL_2*%
X50396299Y17875701D03*
X41248000Y26008000D03*
%TO.N,/AC_RELAY_CNTRL_1*%
X50392000Y15848000D03*
X37692000Y28548000D03*
%TO.N,/PILOT_DISCONNECT*%
X6958000Y30580000D03*
X21436000Y28040000D03*
%TO.N,/PWM*%
X13816000Y23468000D03*
X14836299Y29051701D03*
%TO.N,/MOSI*%
X33628000Y30580000D03*
%TO.N,/MISO*%
X35660000Y32612000D03*
%TO.N,/SCK*%
X37184000Y34136000D03*
%TO.N,/UART_RX*%
X45312000Y26764500D03*
X45312000Y20928000D03*
%TO.N,/RST*%
X47344000Y26008000D03*
%TO.N,/AC_TEST_OUT2*%
X46455000Y22452000D03*
%TO.N,/AC_TEST_OUT1*%
X46582000Y24230000D03*
%TD*%
D44*
%TO.N,/UART_RX*%
X2005000Y14070000D02*
X6577000Y9498000D01*
X6577000Y9498000D02*
X27278000Y9498000D01*
X27278000Y9498000D02*
X34644000Y16864000D01*
X34644000Y16864000D02*
X41248000Y16864000D01*
X41248000Y16864000D02*
X45312000Y20928000D01*
D45*
%TO.N,+12V*%
X27405000Y34690000D02*
X33963000Y41248000D01*
X51408000Y41248000D02*
X51408000Y38377000D01*
X51408000Y38377000D02*
X52422500Y37362500D01*
X33963000Y41248000D02*
X51408000Y41248000D01*
X52422500Y37362500D02*
X52372500Y37362500D01*
X52372500Y37362500D02*
X51408000Y38327000D01*
X51408000Y38327000D02*
X51408000Y45820000D01*
%TO.N,/AC_N*%
X83920000Y23080000D02*
X79355000Y23080000D01*
X81975000Y33080000D02*
X83920000Y33080000D01*
X79355000Y23080000D02*
X78840000Y23595000D01*
X78840000Y23595000D02*
X78840000Y29945000D01*
X78840000Y29945000D02*
X81975000Y33080000D01*
%TO.N,Net-(D2-K)*%
X64860000Y48360000D02*
X64870000Y48360000D01*
X64870000Y48360000D02*
X67410000Y45820000D01*
X67410000Y45820000D02*
X75760000Y45820000D01*
X75760000Y45820000D02*
X76300000Y46360000D01*
%TO.N,Net-(D3-K)*%
X64860000Y55980000D02*
X67029000Y55980000D01*
X67029000Y55980000D02*
X68045000Y54964000D01*
X68489000Y51980000D02*
X71220000Y51980000D01*
X68045000Y54964000D02*
X68045000Y52424000D01*
X68045000Y52424000D02*
X68489000Y51980000D01*
%TO.N,/AC_N*%
X83920000Y18080000D02*
X79548000Y18080000D01*
X79548000Y18080000D02*
X73760000Y12292000D01*
%TO.N,/AC_L_FUSED*%
X73760000Y26770000D02*
X73760000Y19150000D01*
X64870000Y14324000D02*
X64870000Y5180000D01*
X73760000Y19150000D02*
X70458000Y15848000D01*
X70458000Y15848000D02*
X66394000Y15848000D01*
X66394000Y15848000D02*
X64870000Y14324000D01*
X64870000Y5180000D02*
X65495000Y5180000D01*
X65495000Y5180000D02*
X65505000Y5190000D01*
X65505000Y5190000D02*
X60880000Y5190000D01*
X60880000Y5190000D02*
X59660000Y3970000D01*
X59660000Y3970000D02*
X58460000Y3970000D01*
X58460000Y3970000D02*
X53059000Y9371000D01*
X53059000Y9371000D02*
X44931000Y9371000D01*
X44931000Y9371000D02*
X40422500Y4862500D01*
X40422500Y4862500D02*
X40422500Y3762500D01*
D44*
%TO.N,/RST*%
X2005000Y8990000D02*
X2894000Y8101000D01*
X49757000Y21309000D02*
X49757000Y24357000D01*
X49757000Y24357000D02*
X48106000Y26008000D01*
X2894000Y8101000D02*
X28421000Y8101000D01*
X48106000Y26008000D02*
X47344000Y26008000D01*
X28421000Y8101000D02*
X35152000Y14832000D01*
X35152000Y14832000D02*
X43280000Y14832000D01*
X43280000Y14832000D02*
X49757000Y21309000D01*
%TO.N,/UART_TX*%
X43720000Y26040000D02*
X45915000Y26040000D01*
X45915000Y26040000D02*
X46836000Y25119000D01*
X46836000Y25119000D02*
X47598000Y25119000D01*
X47598000Y25119000D02*
X48577000Y24140000D01*
X48577000Y24140000D02*
X48577000Y21653000D01*
X4799000Y8736000D02*
X2005000Y11530000D01*
X48577000Y21653000D02*
X42772000Y15848000D01*
X27532000Y8736000D02*
X4799000Y8736000D01*
X42772000Y15848000D02*
X34644000Y15848000D01*
X34644000Y15848000D02*
X27532000Y8736000D01*
%TO.N,/AC_TEST_OUT1*%
X46582000Y24230000D02*
X46142000Y23790000D01*
X46142000Y23790000D02*
X42270000Y23790000D01*
%TO.N,/AC_TEST_OUT2*%
X46455000Y22452000D02*
X41756000Y22452000D01*
X41756000Y22452000D02*
X41470000Y22738000D01*
X41470000Y22738000D02*
X41470000Y23790000D01*
%TO.N,/PILOTREAD*%
X13241000Y28481000D02*
X11784000Y28481000D01*
X15625000Y30865000D02*
X13241000Y28481000D01*
X11784000Y28481000D02*
X9879000Y26576000D01*
X42270000Y32290000D02*
X43270000Y33290000D01*
X31977000Y30453000D02*
X20166000Y30453000D01*
X43270000Y38083000D02*
X42137000Y39216000D01*
X9879000Y26576000D02*
X9879000Y24853000D01*
X37184000Y35660000D02*
X31977000Y30453000D01*
X37184000Y37692000D02*
X37184000Y35660000D01*
X20166000Y30453000D02*
X19754000Y30865000D01*
X19754000Y30865000D02*
X15625000Y30865000D01*
X38708000Y39216000D02*
X37184000Y37692000D01*
X42137000Y39216000D02*
X38708000Y39216000D01*
X43270000Y33290000D02*
X43270000Y38083000D01*
X9879000Y24853000D02*
X10863000Y23869000D01*
D46*
%TO.N,/PILOT_AO*%
X8863000Y25774000D02*
X8863000Y27405000D01*
X8863000Y27405000D02*
X14148000Y32690000D01*
X14148000Y32690000D02*
X21405000Y32690000D01*
D44*
%TO.N,/PILOT_DISCONNECT*%
X6958000Y30580000D02*
X8244000Y30580000D01*
D46*
%TO.N,Net-(Q1-B)*%
X12165000Y32847500D02*
X12165000Y32501000D01*
X12165000Y32501000D02*
X10244000Y30580000D01*
D44*
%TO.N,/PPREAD*%
X43720000Y30840000D02*
X43720000Y38776000D01*
X38200000Y39724000D02*
X36676000Y38200000D01*
X43720000Y38776000D02*
X42772000Y39724000D01*
X42772000Y39724000D02*
X38200000Y39724000D01*
X36676000Y36168000D02*
X32612000Y32104000D01*
X36676000Y38200000D02*
X36676000Y36168000D01*
X32612000Y32104000D02*
X29691000Y32104000D01*
D46*
%TO.N,+5V*%
X19023000Y1751000D02*
X19023000Y5942000D01*
%TO.N,/SCL*%
X21563000Y1751000D02*
X21563000Y5942000D01*
%TO.N,/SDA*%
X24103000Y1751000D02*
X24103000Y5942000D01*
D44*
%TO.N,/SCL*%
X43788000Y13816000D02*
X52932000Y22960000D01*
X52932000Y22960000D02*
X52932000Y28040000D01*
%TO.N,/SDA*%
X53948000Y22452000D02*
X44296000Y12800000D01*
%TO.N,/SCL*%
X21563000Y5942000D02*
X22960000Y7339000D01*
X22960000Y7339000D02*
X29054604Y7339000D01*
X29054604Y7339000D02*
X35531604Y13816000D01*
X35531604Y13816000D02*
X43788000Y13816000D01*
%TO.N,/SDA*%
X53948000Y28040000D02*
X53948000Y22452000D01*
%TO.N,/SCL*%
X52932000Y28040000D02*
X52415000Y28557000D01*
X43837000Y28557000D02*
X43720000Y28440000D01*
%TO.N,/SDA*%
X43720000Y29240000D02*
X52748000Y29240000D01*
X52748000Y29240000D02*
X53948000Y28040000D01*
%TO.N,/SCL*%
X52415000Y28557000D02*
X43837000Y28557000D01*
%TO.N,/SDA*%
X44296000Y12800000D02*
X35660000Y12800000D01*
X35660000Y12800000D02*
X28802000Y5942000D01*
X28802000Y5942000D02*
X24103000Y5942000D01*
D46*
%TO.N,+12V*%
X12865000Y10260000D02*
X7272775Y10260000D01*
X7272775Y10260000D02*
X4672000Y12860775D01*
X4672000Y12860775D02*
X4672000Y13943000D01*
X4672000Y13943000D02*
X2005000Y16610000D01*
%TO.N,+5V*%
X36760000Y18388000D02*
X36760000Y18472000D01*
X36760000Y18472000D02*
X38200000Y19912000D01*
D44*
%TO.N,GND*%
X40670000Y22522000D02*
X42010000Y21182000D01*
X40670000Y23790000D02*
X40670000Y22522000D01*
X42010000Y26643000D02*
X42010000Y27786000D01*
X41201000Y25246000D02*
X42010000Y25246000D01*
X40670000Y24715000D02*
X41201000Y25246000D01*
X40670000Y23790000D02*
X40670000Y24715000D01*
X42010000Y25246000D02*
X42010000Y26643000D01*
%TO.N,+5V*%
X49344000Y27532000D02*
X49376000Y27532000D01*
%TO.N,GND*%
X39978000Y20166000D02*
X39978000Y20039000D01*
X39978000Y20039000D02*
X40994000Y19023000D01*
X39070000Y21892500D02*
X38994500Y21817000D01*
X39070000Y23790000D02*
X39070000Y21892500D01*
X39870000Y30218000D02*
X39851000Y30199000D01*
X39870000Y30218000D02*
X39870000Y30580000D01*
X39870000Y32290000D02*
X39870000Y30580000D01*
D45*
%TO.N,+5V*%
X35660000Y47090000D02*
X35660000Y49630000D01*
X35660000Y49630000D02*
X36676000Y50646000D01*
X36676000Y53440000D02*
X36916000Y53680000D01*
X36676000Y50646000D02*
X36676000Y53440000D01*
X36916000Y53680000D02*
X39420000Y53680000D01*
%TO.N,+12V*%
X49376000Y47852000D02*
X51408000Y45820000D01*
X42645000Y51535000D02*
X42645000Y50011000D01*
X42645000Y50011000D02*
X44804000Y47852000D01*
X44804000Y47852000D02*
X49376000Y47852000D01*
D44*
%TO.N,/PPREAD*%
X28167000Y42645000D02*
X26770000Y44042000D01*
X26770000Y44042000D02*
X15594000Y44042000D01*
X15594000Y44042000D02*
X13054000Y41502000D01*
X13054000Y41502000D02*
X13054000Y39089000D01*
X13054000Y39089000D02*
X10006000Y36041000D01*
X10006000Y36041000D02*
X7198500Y36041000D01*
X7198500Y36041000D02*
X7085000Y35927500D01*
%TO.N,/PWM*%
X35220000Y29240000D02*
X20490000Y29240000D01*
X20490000Y29240000D02*
X19531000Y30199000D01*
X19531000Y30199000D02*
X15983598Y30199000D01*
X15983598Y30199000D02*
X14836299Y29051701D01*
D46*
%TO.N,+12V*%
X24400000Y41000000D02*
X24400000Y37695000D01*
X24400000Y37695000D02*
X27405000Y34690000D01*
%TO.N,Net-(D4-A)*%
X18000000Y41000000D02*
X18000000Y37285000D01*
X18000000Y37285000D02*
X15405000Y34690000D01*
%TO.N,+5V*%
X5180000Y35927500D02*
X5180000Y23012000D01*
X5180000Y23012000D02*
X8863000Y19329000D01*
%TO.N,+12V*%
X18388000Y26949000D02*
X19664000Y26949000D01*
%TO.N,+5V*%
X2005000Y19150000D02*
X8684000Y19150000D01*
D44*
X8684000Y19150000D02*
X8863000Y19329000D01*
X19404000Y16864000D02*
X19912000Y16356000D01*
X18388000Y16864000D02*
X19404000Y16864000D01*
X38270000Y23790000D02*
X38270000Y19982000D01*
X38270000Y19982000D02*
X38200000Y19912000D01*
X39870000Y23790000D02*
X39724000Y23644000D01*
X39724000Y23644000D02*
X39724000Y21436000D01*
X39724000Y21436000D02*
X38200000Y19912000D01*
D45*
X42645000Y56615000D02*
X42645000Y57885000D01*
X42645000Y57885000D02*
X43280000Y58520000D01*
X43280000Y58520000D02*
X47852000Y58520000D01*
X47852000Y58520000D02*
X54710000Y51662000D01*
X54710000Y51662000D02*
X54710000Y48360000D01*
D44*
%TO.N,Net-(U1-XTAL1{slash}PB6)*%
X37470000Y23790000D02*
X37470000Y21722000D01*
X37470000Y21722000D02*
X33628000Y17880000D01*
X33628000Y17880000D02*
X30580000Y17880000D01*
%TO.N,Net-(U1-XTAL2{slash}PB7)*%
X36670000Y23790000D02*
X36670000Y22576396D01*
X36670000Y22576396D02*
X35529604Y21436000D01*
X35529604Y21436000D02*
X30580000Y21436000D01*
%TO.N,Net-(U1-XTAL1{slash}PB6)*%
X26516000Y17572000D02*
X26824000Y17880000D01*
X26824000Y17880000D02*
X30580000Y17880000D01*
%TO.N,Net-(U1-XTAL2{slash}PB7)*%
X26516000Y22452000D02*
X27532000Y21436000D01*
X27532000Y21436000D02*
X30580000Y21436000D01*
%TO.N,/AC_RELAY_CNTRL_2*%
X50396299Y17875701D02*
X50396299Y17884299D01*
X50396299Y17884299D02*
X50900000Y18388000D01*
X50900000Y18388000D02*
X51948000Y18388000D01*
X40480000Y25240000D02*
X41248000Y26008000D01*
X35220000Y25240000D02*
X40480000Y25240000D01*
%TO.N,/AC_RELAY_CNTRL_1*%
X35220000Y28440000D02*
X37584000Y28440000D01*
X50392000Y15848000D02*
X51948000Y15848000D01*
X37584000Y28440000D02*
X37692000Y28548000D01*
D46*
%TO.N,Net-(R5-Pad2)*%
X53948000Y15848000D02*
X58012000Y19912000D01*
X58012000Y19912000D02*
X58012000Y22960000D01*
X58012000Y22960000D02*
X59272000Y24220000D01*
X59272000Y24220000D02*
X61060000Y24220000D01*
%TO.N,Net-(R4-Pad2)*%
X53948000Y18388000D02*
X56488000Y20928000D01*
X56488000Y20928000D02*
X56488000Y34878000D01*
X56488000Y34878000D02*
X58530000Y36920000D01*
D44*
%TO.N,/PILOT_DISCONNECT*%
X23944000Y26040000D02*
X22452000Y27532000D01*
X35220000Y26040000D02*
X23944000Y26040000D01*
X22452000Y27532000D02*
X21944000Y28040000D01*
X21944000Y28040000D02*
X21436000Y28040000D01*
%TO.N,/PWM*%
X13943000Y21999000D02*
X13943000Y23341000D01*
X13943000Y23341000D02*
X13816000Y23468000D01*
%TO.N,/MOSI*%
X34168000Y30040000D02*
X33628000Y30580000D01*
X35220000Y30040000D02*
X34168000Y30040000D01*
%TO.N,/MISO*%
X35220000Y30840000D02*
X35220000Y32172000D01*
X35220000Y32172000D02*
X35660000Y32612000D01*
%TO.N,/SCK*%
X36670000Y33622000D02*
X37184000Y34136000D01*
X36670000Y32290000D02*
X36670000Y33622000D01*
%TO.N,+5V*%
X37470000Y32290000D02*
X37470000Y33340000D01*
X37470000Y33340000D02*
X38708000Y34578000D01*
X38708000Y34578000D02*
X38708000Y34644000D01*
%TO.N,Net-(U1-AREF)*%
X39070000Y32290000D02*
X39070000Y33340000D01*
X39070000Y33340000D02*
X40374000Y34644000D01*
X40374000Y34644000D02*
X40740000Y34644000D01*
%TO.N,/UART_RX*%
X43720000Y26840000D02*
X45236500Y26840000D01*
X45236500Y26840000D02*
X45312000Y26764500D01*
%TO.N,/RST*%
X47344000Y27532000D02*
X47344000Y26008000D01*
X43720000Y27640000D02*
X47236000Y27640000D01*
X47236000Y27640000D02*
X47344000Y27532000D01*
D45*
%TO.N,+5V*%
X54710000Y48360000D02*
X57240000Y48360000D01*
X39420000Y53680000D02*
X42250000Y53680000D01*
X42250000Y53680000D02*
X42645000Y54075000D01*
X42645000Y56615000D02*
X42645000Y54075000D01*
%TO.N,/PILOT*%
X16290000Y53440000D02*
X16290000Y47775000D01*
X16290000Y47775000D02*
X15405000Y46890000D01*
X6450000Y47010000D02*
X15285000Y47010000D01*
X15285000Y47010000D02*
X15405000Y46890000D01*
D46*
%TO.N,Net-(D4-A)*%
X11215000Y34722500D02*
X11215000Y35599000D01*
X11215000Y35599000D02*
X11784000Y36168000D01*
X11784000Y36168000D02*
X13927000Y36168000D01*
X13927000Y36168000D02*
X15405000Y34690000D01*
%TO.N,+12V*%
X17815000Y10260000D02*
X21944000Y10260000D01*
X21944000Y10260000D02*
X22960000Y11276000D01*
X22960000Y11276000D02*
X22960000Y23653000D01*
X22960000Y23653000D02*
X19664000Y26949000D01*
D45*
X39420000Y51380000D02*
X42490000Y51380000D01*
X42490000Y51380000D02*
X42645000Y51535000D01*
D46*
%TO.N,/PPREAD*%
X7085000Y35927500D02*
X7085000Y34532500D01*
%TO.N,/PP*%
X5180000Y37927500D02*
X7085000Y37927500D01*
X7085000Y37927500D02*
X7085000Y41375000D01*
X7085000Y41375000D02*
X6450000Y42010000D01*
%TO.N,-12V*%
X15340000Y19118000D02*
X16134000Y19118000D01*
X16134000Y19118000D02*
X16864000Y18388000D01*
X16864000Y18388000D02*
X16864000Y15021000D01*
X16864000Y15021000D02*
X17815000Y14070000D01*
%TO.N,Net-(U6-CAP-)*%
X12865000Y14070000D02*
X10195000Y14070000D01*
X7655000Y14070000D02*
X10195000Y14070000D01*
%TO.N,Net-(U6-CAP+)*%
X10195000Y11995000D02*
X7655000Y11995000D01*
X12865000Y11530000D02*
X10660000Y11530000D01*
X10660000Y11530000D02*
X10195000Y11995000D01*
%TO.N,+12V*%
X17815000Y10260000D02*
X12865000Y10260000D01*
%TO.N,-12V*%
X17815000Y14070000D02*
X19847000Y14070000D01*
X19847000Y14070000D02*
X20820000Y14070000D01*
X20820000Y14070000D02*
X20990000Y13900000D01*
%TO.N,Net-(R10-Pad1)*%
X16483000Y24028000D02*
X15848000Y24663000D01*
X16483000Y21999000D02*
X16483000Y24028000D01*
X15848000Y24663000D02*
X11974000Y24663000D01*
X11974000Y24663000D02*
X10863000Y25774000D01*
%TO.N,Net-(U7A--)*%
X18363000Y20574000D02*
X18388000Y20599000D01*
X15340000Y20574000D02*
X18363000Y20574000D01*
X15213000Y21445472D02*
X15340000Y20574000D01*
X15213000Y21999000D02*
X15213000Y21445472D01*
X18388000Y18864000D02*
X18388000Y20599000D01*
%TO.N,+12V*%
X16483000Y26949000D02*
X18388000Y26949000D01*
%TO.N,/PILOT_AO*%
X8863000Y23869000D02*
X8863000Y25774000D01*
%TO.N,-12V*%
X12673000Y21999000D02*
X12673000Y20134000D01*
X12673000Y20134000D02*
X13308000Y19499000D01*
X15848000Y19118000D02*
X13308000Y19118000D01*
%TO.N,/PILOTREAD*%
X10863000Y23869000D02*
X10863000Y21424000D01*
X10863000Y21424000D02*
X10768000Y21329000D01*
X10768000Y21329000D02*
X8863000Y21329000D01*
%TO.N,Net-(R4-Pad2)*%
X58530000Y36920000D02*
X61060000Y36920000D01*
D45*
%TO.N,GND*%
X64860000Y50900000D02*
X64860000Y53440000D01*
%TO.N,Net-(D3-A)*%
X71220000Y58520000D02*
X71220000Y55980000D01*
%TO.N,Net-(D2-A)*%
X76300000Y55980000D02*
X76300000Y50360000D01*
%TO.N,/AC_L_FUSED*%
X73760000Y36295000D02*
X73760000Y26770000D01*
X68680000Y26760000D02*
X73750000Y26760000D01*
X73750000Y26760000D02*
X73760000Y26770000D01*
X70595000Y39460000D02*
X73760000Y36295000D01*
X68680000Y39460000D02*
X70595000Y39460000D01*
X68680000Y5190000D02*
X65505000Y5190000D01*
%TO.N,/AC_L*%
X73760000Y5180000D02*
X81660000Y13080000D01*
X81660000Y13080000D02*
X83920000Y13080000D01*
%TO.N,/AC_N*%
X83920000Y18080000D02*
X83920000Y23080000D01*
%TD*%
%TA.AperFunction,Conductor*%
%TO.N,GND*%
G36*
X58998000Y59982887D02*
G01*
X59043387Y59937500D01*
X59060000Y59875500D01*
X59060000Y46328000D01*
X62093939Y42806888D01*
X62116242Y42769118D01*
X62124000Y42725946D01*
X62124000Y40873774D01*
X62109874Y40816297D01*
X62070716Y40771915D01*
X62015446Y40750740D01*
X61983138Y40754508D01*
X61982862Y40751933D01*
X61907824Y40760000D01*
X61310000Y40760000D01*
X61310000Y39334000D01*
X61293387Y39272000D01*
X61248000Y39226613D01*
X61186000Y39210000D01*
X59760000Y39210000D01*
X59760000Y38612176D01*
X59766402Y38552625D01*
X59816647Y38417911D01*
X59902811Y38302812D01*
X60017910Y38216648D01*
X60152624Y38166403D01*
X60188217Y38162576D01*
X60244139Y38142197D01*
X60284123Y38098109D01*
X60298957Y38040468D01*
X60285224Y37982555D01*
X60246088Y37937712D01*
X60220859Y37920047D01*
X60059953Y37759141D01*
X60034912Y37723377D01*
X59990594Y37684511D01*
X59933337Y37670500D01*
X58593706Y37670500D01*
X58575736Y37671809D01*
X58561853Y37673843D01*
X58551977Y37675289D01*
X58551976Y37675289D01*
X58502634Y37670972D01*
X58491827Y37670500D01*
X58486289Y37670500D01*
X58455487Y37666901D01*
X58451906Y37666535D01*
X58375952Y37659889D01*
X58356923Y37655671D01*
X58285271Y37629592D01*
X58281868Y37628409D01*
X58209479Y37604421D01*
X58191927Y37595924D01*
X58128228Y37554030D01*
X58125190Y37552095D01*
X58060281Y37512057D01*
X58045164Y37499744D01*
X57992848Y37444292D01*
X57990336Y37441706D01*
X56002358Y35453728D01*
X55988727Y35441947D01*
X55969467Y35427608D01*
X55937633Y35389671D01*
X55930341Y35381711D01*
X55926408Y35377778D01*
X55907176Y35353455D01*
X55904902Y35350663D01*
X55855894Y35292256D01*
X55845418Y35275813D01*
X55813192Y35206706D01*
X55811622Y35203464D01*
X55777393Y35135308D01*
X55770996Y35116902D01*
X55755573Y35042212D01*
X55754793Y35038695D01*
X55737208Y34964495D01*
X55735229Y34945122D01*
X55737448Y34868869D01*
X55737500Y34865263D01*
X55737500Y21290229D01*
X55728061Y21242776D01*
X55701181Y21202548D01*
X54123449Y19624819D01*
X54083221Y19597939D01*
X54035768Y19588500D01*
X53547991Y19588500D01*
X53445203Y19578000D01*
X53278665Y19522814D01*
X53129342Y19430712D01*
X53035681Y19337050D01*
X52980094Y19304956D01*
X52915906Y19304956D01*
X52860319Y19337050D01*
X52766657Y19430712D01*
X52617334Y19522814D01*
X52450797Y19578000D01*
X52348009Y19588500D01*
X52268452Y19588500D01*
X52212157Y19602015D01*
X52168134Y19639615D01*
X52145979Y19693102D01*
X52150521Y19750818D01*
X52180771Y19800181D01*
X53254220Y20873630D01*
X54331789Y21951200D01*
X54347885Y21964094D01*
X54349873Y21966213D01*
X54349877Y21966214D01*
X54395948Y22015277D01*
X54398566Y22017977D01*
X54418120Y22037529D01*
X54420581Y22040702D01*
X54428156Y22049573D01*
X54458062Y22081418D01*
X54467717Y22098982D01*
X54478394Y22115236D01*
X54490673Y22131064D01*
X54508018Y22171148D01*
X54513160Y22181644D01*
X54534197Y22219908D01*
X54539179Y22239316D01*
X54545481Y22257720D01*
X54553437Y22276104D01*
X54560269Y22319248D01*
X54562633Y22330662D01*
X54573500Y22372981D01*
X54573500Y22393016D01*
X54575027Y22412415D01*
X54576070Y22419000D01*
X54578160Y22432196D01*
X54574050Y22475675D01*
X54573500Y22487344D01*
X54573500Y27957260D01*
X54575763Y27977764D01*
X54573561Y28047856D01*
X54573500Y28051750D01*
X54573500Y28079343D01*
X54573500Y28079350D01*
X54572995Y28083347D01*
X54572080Y28094977D01*
X54570709Y28138627D01*
X54565120Y28157860D01*
X54561174Y28176918D01*
X54558664Y28196792D01*
X54546206Y28228256D01*
X54542585Y28237403D01*
X54538804Y28248448D01*
X54526619Y28290387D01*
X54526618Y28290388D01*
X54526618Y28290390D01*
X54516417Y28307639D01*
X54507860Y28325105D01*
X54500486Y28343732D01*
X54474813Y28379068D01*
X54468402Y28388828D01*
X54446169Y28426422D01*
X54432006Y28440585D01*
X54419369Y28455380D01*
X54407595Y28471586D01*
X54396108Y28481089D01*
X54373935Y28499432D01*
X54365305Y28507286D01*
X53248802Y29623789D01*
X53235906Y29639887D01*
X53184775Y29687902D01*
X53181978Y29690613D01*
X53162470Y29710121D01*
X53159290Y29712588D01*
X53150424Y29720161D01*
X53118582Y29750062D01*
X53101024Y29759715D01*
X53084764Y29770396D01*
X53068936Y29782673D01*
X53028851Y29800020D01*
X53018361Y29805159D01*
X52980091Y29826198D01*
X52960691Y29831179D01*
X52942284Y29837481D01*
X52923897Y29845438D01*
X52880758Y29852271D01*
X52869324Y29854639D01*
X52827019Y29865500D01*
X52806984Y29865500D01*
X52787586Y29867027D01*
X52780162Y29868203D01*
X52767805Y29870160D01*
X52767804Y29870160D01*
X52734751Y29867036D01*
X52724325Y29866050D01*
X52712656Y29865500D01*
X45144500Y29865500D01*
X45082500Y29882113D01*
X45037113Y29927500D01*
X45020500Y29989500D01*
X45020499Y30362870D01*
X45013632Y30426750D01*
X45013633Y30453260D01*
X45014091Y30457517D01*
X45020500Y30517127D01*
X45020499Y31162872D01*
X45014091Y31222483D01*
X44963796Y31357331D01*
X44877546Y31472546D01*
X44762331Y31558796D01*
X44627483Y31609091D01*
X44567873Y31615500D01*
X44567869Y31615500D01*
X44469500Y31615500D01*
X44407500Y31632113D01*
X44362113Y31677500D01*
X44345500Y31739500D01*
X44345500Y38693260D01*
X44347763Y38713764D01*
X44347065Y38735971D01*
X44345561Y38783856D01*
X44345500Y38787750D01*
X44345500Y38815343D01*
X44345500Y38815350D01*
X44344995Y38819347D01*
X44344080Y38830977D01*
X44343911Y38836368D01*
X44342709Y38874628D01*
X44337119Y38893866D01*
X44333174Y38912918D01*
X44330664Y38932792D01*
X44318975Y38962314D01*
X44314578Y38973419D01*
X44310805Y38984440D01*
X44298617Y39026390D01*
X44290702Y39039773D01*
X44288421Y39043631D01*
X44279863Y39061098D01*
X44272486Y39079732D01*
X44246798Y39115088D01*
X44240409Y39124816D01*
X44218170Y39162421D01*
X44204006Y39176585D01*
X44191369Y39191380D01*
X44179595Y39207586D01*
X44167727Y39217404D01*
X44145935Y39235432D01*
X44137305Y39243286D01*
X43344772Y40035819D01*
X43314522Y40085182D01*
X43309980Y40142898D01*
X43332135Y40196385D01*
X43376158Y40233985D01*
X43432453Y40247500D01*
X50283500Y40247500D01*
X50345500Y40230887D01*
X50390887Y40185500D01*
X50407500Y40123500D01*
X50407500Y38391278D01*
X50407460Y38388137D01*
X50405083Y38294329D01*
X50406033Y38281849D01*
X50405243Y38250638D01*
X50415648Y38192580D01*
X50416957Y38183252D01*
X50422926Y38124562D01*
X50432033Y38095533D01*
X50435772Y38080298D01*
X50441141Y38050348D01*
X50463020Y37995575D01*
X50466180Y37986700D01*
X50482808Y37933705D01*
X50485661Y37870225D01*
X50437304Y37647930D01*
X50416889Y37362501D01*
X50437304Y37077071D01*
X50498129Y36797459D01*
X50525004Y36725404D01*
X50597513Y36531000D01*
X50598134Y36529337D01*
X50735272Y36278187D01*
X50821017Y36163646D01*
X50906761Y36049105D01*
X51109105Y35846761D01*
X51222190Y35762107D01*
X51338186Y35675273D01*
X51384972Y35649726D01*
X51589339Y35538133D01*
X51857454Y35438131D01*
X51857457Y35438131D01*
X51857458Y35438130D01*
X51893287Y35430336D01*
X52137072Y35377304D01*
X52422500Y35356890D01*
X52707928Y35377304D01*
X52987546Y35438131D01*
X53255661Y35538133D01*
X53506815Y35675274D01*
X53735895Y35846761D01*
X53938239Y36049105D01*
X54109726Y36278185D01*
X54246867Y36529339D01*
X54346869Y36797454D01*
X54407696Y37077072D01*
X54428110Y37362500D01*
X54427253Y37374476D01*
X54421831Y37450296D01*
X54407696Y37647928D01*
X54346869Y37927546D01*
X54246867Y38195661D01*
X54140052Y38391278D01*
X54109727Y38446814D01*
X54031905Y38550772D01*
X53938239Y38675895D01*
X53735895Y38878239D01*
X53615247Y38968555D01*
X53506813Y39049728D01*
X53255663Y39186866D01*
X53255662Y39186867D01*
X53255661Y39186867D01*
X52987546Y39286869D01*
X52987541Y39286871D01*
X52707929Y39347696D01*
X52523653Y39360876D01*
X52465460Y39380245D01*
X52423668Y39425133D01*
X52408500Y39484560D01*
X52408500Y39710000D01*
X59760000Y39710000D01*
X60810000Y39710000D01*
X60810000Y40760000D01*
X60212176Y40760000D01*
X60152624Y40753598D01*
X60017910Y40703353D01*
X59902811Y40617189D01*
X59816647Y40502090D01*
X59766402Y40367376D01*
X59760000Y40307824D01*
X59760000Y39710000D01*
X52408500Y39710000D01*
X52408500Y41219499D01*
X52408659Y41225780D01*
X52409330Y41239001D01*
X52412369Y41298936D01*
X52409929Y41314858D01*
X52408500Y41333635D01*
X52408500Y44482820D01*
X52421616Y44538324D01*
X52458187Y44582086D01*
X52565546Y44662454D01*
X52651796Y44777669D01*
X52702091Y44912517D01*
X52708500Y44972127D01*
X52708499Y46035000D01*
X53485001Y46035000D01*
X53485001Y45897521D01*
X53495493Y45794805D01*
X53550642Y45628378D01*
X53642683Y45479155D01*
X53766654Y45355184D01*
X53915877Y45263143D01*
X54082303Y45207994D01*
X54185021Y45197500D01*
X54460000Y45197500D01*
X54460000Y46035000D01*
X54960000Y46035000D01*
X54960000Y45197501D01*
X55234979Y45197501D01*
X55337695Y45207994D01*
X55504122Y45263143D01*
X55653345Y45355184D01*
X55777316Y45479155D01*
X55869357Y45628378D01*
X55924506Y45794804D01*
X55935000Y45897521D01*
X55935000Y46035000D01*
X54960000Y46035000D01*
X54460000Y46035000D01*
X53485001Y46035000D01*
X52708499Y46035000D01*
X52708499Y46667872D01*
X52702091Y46727483D01*
X52651796Y46862331D01*
X52565546Y46977546D01*
X52450331Y47063796D01*
X52315483Y47114091D01*
X52255873Y47120500D01*
X52255869Y47120500D01*
X51573783Y47120500D01*
X51526330Y47129939D01*
X51486102Y47156819D01*
X50093567Y48549353D01*
X50091374Y48551602D01*
X50031059Y48615054D01*
X49982642Y48648753D01*
X49975119Y48654425D01*
X49929405Y48691700D01*
X49902440Y48705785D01*
X49889019Y48713916D01*
X49864049Y48731295D01*
X49864048Y48731296D01*
X49864046Y48731297D01*
X49809845Y48754557D01*
X49801336Y48758598D01*
X49749053Y48785908D01*
X49743126Y48787604D01*
X49719798Y48794279D01*
X49705020Y48799541D01*
X49677058Y48811540D01*
X49619272Y48823417D01*
X49610128Y48825662D01*
X49553421Y48841887D01*
X49523075Y48844198D01*
X49507534Y48846378D01*
X49477742Y48852500D01*
X49477741Y48852500D01*
X49418758Y48852500D01*
X49409344Y48852858D01*
X49400198Y48853555D01*
X49350524Y48857337D01*
X49350523Y48857337D01*
X49320349Y48853494D01*
X49304683Y48852500D01*
X45269783Y48852500D01*
X45222330Y48861939D01*
X45182102Y48888819D01*
X44525538Y49545383D01*
X43852919Y50218001D01*
X43822161Y50268967D01*
X43818699Y50328396D01*
X43843333Y50382590D01*
X43890385Y50419058D01*
X43949010Y50429396D01*
X44005698Y50411220D01*
X44063379Y50375642D01*
X44229803Y50320494D01*
X44332521Y50310000D01*
X44470000Y50310000D01*
X44470000Y51285000D01*
X44970000Y51285000D01*
X44970000Y50310001D01*
X45107479Y50310001D01*
X45210195Y50320494D01*
X45376622Y50375643D01*
X45525845Y50467684D01*
X45649816Y50591655D01*
X45741857Y50740878D01*
X45797006Y50907304D01*
X45807500Y51010021D01*
X45807500Y51285000D01*
X44970000Y51285000D01*
X44470000Y51285000D01*
X44470000Y51661000D01*
X44486613Y51723000D01*
X44532000Y51768387D01*
X44594000Y51785000D01*
X45807499Y51785000D01*
X45807499Y52059979D01*
X45797006Y52162696D01*
X45741857Y52329123D01*
X45649816Y52478346D01*
X45525845Y52602317D01*
X45368348Y52699461D01*
X45325167Y52744568D01*
X45309444Y52805000D01*
X45325167Y52865432D01*
X45368348Y52910539D01*
X45525845Y53007684D01*
X45649816Y53131655D01*
X45741857Y53280878D01*
X45797006Y53447304D01*
X45807500Y53550021D01*
X45807500Y53825000D01*
X44594000Y53825000D01*
X44532000Y53841613D01*
X44486613Y53887000D01*
X44470000Y53949000D01*
X44470000Y54201000D01*
X44486613Y54263000D01*
X44532000Y54308387D01*
X44594000Y54325000D01*
X45807499Y54325000D01*
X45807499Y54599979D01*
X45797006Y54702696D01*
X45741857Y54869123D01*
X45649816Y55018346D01*
X45525845Y55142317D01*
X45368348Y55239461D01*
X45325167Y55284568D01*
X45309444Y55345000D01*
X45325167Y55405432D01*
X45368348Y55450539D01*
X45525845Y55547684D01*
X45649816Y55671655D01*
X45741857Y55820878D01*
X45797006Y55987304D01*
X45807500Y56090021D01*
X45807500Y56365000D01*
X44594000Y56365000D01*
X44532000Y56381613D01*
X44486613Y56427000D01*
X44470000Y56489000D01*
X44470000Y56741000D01*
X44486613Y56803000D01*
X44532000Y56848387D01*
X44594000Y56865000D01*
X45807499Y56865000D01*
X45807499Y57139979D01*
X45797006Y57242696D01*
X45759296Y57356496D01*
X45754445Y57414363D01*
X45776472Y57468093D01*
X45820546Y57505903D01*
X45877002Y57519500D01*
X47386217Y57519500D01*
X47433670Y57510061D01*
X47473898Y57483181D01*
X53673181Y51283898D01*
X53700061Y51243670D01*
X53709500Y51196217D01*
X53709500Y49284730D01*
X53700061Y49237277D01*
X53673180Y49197048D01*
X53642288Y49166157D01*
X53550186Y49016835D01*
X53495000Y48850298D01*
X53484500Y48747510D01*
X53484500Y47972492D01*
X53495000Y47869704D01*
X53550186Y47703166D01*
X53642288Y47553843D01*
X53766340Y47429791D01*
X53766342Y47429790D01*
X53766344Y47429788D01*
X53769652Y47427748D01*
X53812834Y47382643D01*
X53828559Y47322211D01*
X53812838Y47261779D01*
X53769659Y47216670D01*
X53766654Y47214817D01*
X53642683Y47090846D01*
X53550642Y46941623D01*
X53495493Y46775197D01*
X53485000Y46672479D01*
X53485000Y46535000D01*
X55934999Y46535000D01*
X55934999Y46672479D01*
X55924506Y46775196D01*
X55869357Y46941623D01*
X55777316Y47090846D01*
X55720343Y47147819D01*
X55690093Y47197182D01*
X55685551Y47254898D01*
X55707706Y47308385D01*
X55751729Y47345985D01*
X55808024Y47359500D01*
X56362412Y47359500D01*
X56399699Y47353761D01*
X56433533Y47337076D01*
X56587266Y47229432D01*
X56793504Y47133261D01*
X57013308Y47074365D01*
X57240000Y47054532D01*
X57466692Y47074365D01*
X57686496Y47133261D01*
X57892734Y47229432D01*
X58079139Y47359953D01*
X58240047Y47520861D01*
X58370568Y47707266D01*
X58466739Y47913504D01*
X58525635Y48133308D01*
X58545468Y48360000D01*
X58525635Y48586692D01*
X58466739Y48806496D01*
X58370568Y49012734D01*
X58367697Y49016834D01*
X58240046Y49199141D01*
X58079140Y49360047D01*
X57892736Y49490567D01*
X57892734Y49490568D01*
X57834722Y49517620D01*
X57782548Y49563377D01*
X57763129Y49630003D01*
X57782549Y49696628D01*
X57834721Y49742381D01*
X57892734Y49769432D01*
X58079139Y49899953D01*
X58240047Y50060861D01*
X58370568Y50247266D01*
X58466739Y50453504D01*
X58525635Y50673308D01*
X58545468Y50900000D01*
X58525635Y51126692D01*
X58466739Y51346496D01*
X58370568Y51552734D01*
X58291609Y51665500D01*
X58240046Y51739141D01*
X58079140Y51900047D01*
X57892733Y52030569D01*
X57834725Y52057618D01*
X57782549Y52103375D01*
X57763129Y52170000D01*
X57782549Y52236625D01*
X57834725Y52282382D01*
X57892734Y52309432D01*
X58079139Y52439953D01*
X58240047Y52600861D01*
X58370568Y52787266D01*
X58466739Y52993504D01*
X58525635Y53213308D01*
X58545468Y53440000D01*
X58525635Y53666692D01*
X58466739Y53886496D01*
X58370568Y54092734D01*
X58325173Y54157565D01*
X58240046Y54279141D01*
X58079140Y54440047D01*
X57892736Y54570567D01*
X57860543Y54585579D01*
X57834132Y54597895D01*
X57781958Y54643652D01*
X57762539Y54710277D01*
X57781959Y54776902D01*
X57834135Y54822658D01*
X57892479Y54849865D01*
X58078819Y54980342D01*
X58239658Y55141181D01*
X58370134Y55327520D01*
X58466266Y55533674D01*
X58518872Y55730000D01*
X55961128Y55730000D01*
X56013733Y55533674D01*
X56109865Y55327520D01*
X56240341Y55141181D01*
X56401180Y54980342D01*
X56587519Y54849866D01*
X56645865Y54822658D01*
X56698040Y54776901D01*
X56717460Y54710277D01*
X56698041Y54643652D01*
X56645866Y54597895D01*
X56587267Y54570570D01*
X56400859Y54440047D01*
X56239953Y54279141D01*
X56109432Y54092736D01*
X56013261Y53886498D01*
X55954364Y53666690D01*
X55934531Y53440000D01*
X55954364Y53213311D01*
X56013261Y52993503D01*
X56109432Y52787265D01*
X56239953Y52600860D01*
X56400859Y52439954D01*
X56558843Y52329334D01*
X56587266Y52309432D01*
X56645275Y52282382D01*
X56697450Y52236625D01*
X56716869Y52170000D01*
X56697450Y52103375D01*
X56645275Y52057618D01*
X56587263Y52030567D01*
X56400859Y51900047D01*
X56239953Y51739141D01*
X56109432Y51552736D01*
X56013261Y51346498D01*
X55954275Y51126357D01*
X55925922Y51074678D01*
X55876910Y51041929D01*
X55818315Y51035512D01*
X55763377Y51056876D01*
X55724511Y51101194D01*
X55710500Y51158451D01*
X55710500Y51647721D01*
X55710540Y51650863D01*
X55712757Y51738360D01*
X55712756Y51738361D01*
X55712757Y51738363D01*
X55702344Y51796455D01*
X55701042Y51805740D01*
X55695074Y51864438D01*
X55685962Y51893476D01*
X55682224Y51908709D01*
X55676858Y51938652D01*
X55673408Y51947288D01*
X55654975Y51993437D01*
X55651815Y52002314D01*
X55634159Y52058588D01*
X55619398Y52085183D01*
X55612663Y52099364D01*
X55609531Y52107205D01*
X55601378Y52127617D01*
X55568901Y52176894D01*
X55564040Y52184918D01*
X55535409Y52236502D01*
X55535408Y52236504D01*
X55515593Y52259585D01*
X55506144Y52272117D01*
X55489402Y52297519D01*
X55447699Y52339221D01*
X55441292Y52346134D01*
X55402865Y52390897D01*
X55378802Y52409523D01*
X55367022Y52419898D01*
X51556920Y56230000D01*
X55961128Y56230000D01*
X56990000Y56230000D01*
X56990000Y57258872D01*
X57490000Y57258872D01*
X57490000Y56230000D01*
X58518872Y56230000D01*
X58518871Y56230001D01*
X58466266Y56426327D01*
X58370134Y56632481D01*
X58239658Y56818820D01*
X58078819Y56979659D01*
X57892480Y57110135D01*
X57686326Y57206267D01*
X57490000Y57258872D01*
X56990000Y57258872D01*
X56989999Y57258872D01*
X56793673Y57206267D01*
X56587519Y57110135D01*
X56401180Y56979659D01*
X56240341Y56818820D01*
X56109865Y56632481D01*
X56013733Y56426327D01*
X55961128Y56230001D01*
X55961128Y56230000D01*
X51556920Y56230000D01*
X48569567Y59217353D01*
X48567412Y59219562D01*
X48507059Y59283053D01*
X48458640Y59316754D01*
X48451118Y59322425D01*
X48405405Y59359700D01*
X48378440Y59373785D01*
X48365019Y59381916D01*
X48340049Y59399295D01*
X48340048Y59399296D01*
X48340046Y59399297D01*
X48285845Y59422557D01*
X48277336Y59426598D01*
X48225053Y59453908D01*
X48219126Y59455604D01*
X48195798Y59462279D01*
X48181020Y59467541D01*
X48153058Y59479540D01*
X48095272Y59491417D01*
X48086128Y59493662D01*
X48029421Y59509887D01*
X47999075Y59512198D01*
X47983534Y59514378D01*
X47953742Y59520500D01*
X47953741Y59520500D01*
X47894758Y59520500D01*
X47885344Y59520858D01*
X47860392Y59522758D01*
X47826524Y59525337D01*
X47826523Y59525337D01*
X47796349Y59521494D01*
X47780683Y59520500D01*
X43294279Y59520500D01*
X43291137Y59520540D01*
X43203637Y59522758D01*
X43145580Y59512352D01*
X43136251Y59511043D01*
X43077558Y59505074D01*
X43048528Y59495966D01*
X43033288Y59492225D01*
X43003346Y59486859D01*
X42948572Y59464980D01*
X42939702Y59461822D01*
X42883409Y59444159D01*
X42856818Y59429400D01*
X42842648Y59422670D01*
X42814383Y59411379D01*
X42765121Y59378913D01*
X42757066Y59374033D01*
X42705495Y59345409D01*
X42682406Y59325588D01*
X42669883Y59316145D01*
X42644484Y59299404D01*
X42602782Y59257703D01*
X42595875Y59251302D01*
X42551104Y59212866D01*
X42532480Y59188806D01*
X42522107Y59177029D01*
X41947646Y58602568D01*
X41945399Y58600377D01*
X41881948Y58540061D01*
X41848244Y58491638D01*
X41842573Y58484118D01*
X41805301Y58438407D01*
X41791210Y58411434D01*
X41783082Y58398017D01*
X41765705Y58373050D01*
X41742439Y58318835D01*
X41738399Y58310329D01*
X41711090Y58258048D01*
X41702720Y58228799D01*
X41697459Y58214022D01*
X41685460Y58186058D01*
X41673587Y58128287D01*
X41671342Y58119140D01*
X41655113Y58062420D01*
X41652802Y58032075D01*
X41650622Y58016534D01*
X41644500Y57986741D01*
X41644500Y57927758D01*
X41644142Y57918344D01*
X41639663Y57859523D01*
X41643506Y57829349D01*
X41644500Y57813683D01*
X41644500Y57479867D01*
X41626039Y57414771D01*
X41622686Y57409336D01*
X41567500Y57242798D01*
X41557000Y57140010D01*
X41557000Y56089992D01*
X41567500Y55987204D01*
X41622686Y55820665D01*
X41626039Y55815229D01*
X41644500Y55750133D01*
X41644500Y54939867D01*
X41626039Y54874771D01*
X41622686Y54869336D01*
X41588277Y54765496D01*
X41562398Y54721171D01*
X41520786Y54691123D01*
X41470571Y54680500D01*
X40919751Y54680500D01*
X40864248Y54693615D01*
X40820486Y54730187D01*
X40801083Y54756105D01*
X40779182Y54804058D01*
X40779182Y54856776D01*
X40801082Y54904730D01*
X40863352Y54987911D01*
X40913597Y55122625D01*
X40920000Y55182176D01*
X40920000Y55730000D01*
X37920000Y55730000D01*
X37920000Y55182176D01*
X37926402Y55122625D01*
X37976647Y54987912D01*
X38038918Y54904729D01*
X38060817Y54856778D01*
X38060818Y54804062D01*
X38038920Y54756110D01*
X38019519Y54730192D01*
X37975756Y54693617D01*
X37920250Y54680500D01*
X36930239Y54680500D01*
X36927097Y54680540D01*
X36839635Y54682757D01*
X36781589Y54672354D01*
X36772264Y54671046D01*
X36713562Y54665075D01*
X36684528Y54655966D01*
X36669288Y54652225D01*
X36639345Y54646858D01*
X36584568Y54624979D01*
X36575698Y54621821D01*
X36519410Y54604159D01*
X36492809Y54589395D01*
X36478639Y54582665D01*
X36450385Y54571378D01*
X36450384Y54571378D01*
X36450383Y54571377D01*
X36449154Y54570567D01*
X36401121Y54538913D01*
X36393070Y54534036D01*
X36341498Y54505410D01*
X36318414Y54485593D01*
X36305887Y54476147D01*
X36280481Y54459402D01*
X36238776Y54417698D01*
X36231869Y54411298D01*
X36187105Y54372868D01*
X36168479Y54348806D01*
X36158107Y54337030D01*
X35978643Y54157565D01*
X35976395Y54155373D01*
X35912949Y54095062D01*
X35879245Y54046639D01*
X35873573Y54039118D01*
X35836301Y53993407D01*
X35822210Y53966434D01*
X35814082Y53953017D01*
X35796705Y53928050D01*
X35773439Y53873835D01*
X35769399Y53865329D01*
X35742090Y53813048D01*
X35733720Y53783799D01*
X35728459Y53769022D01*
X35716460Y53741058D01*
X35704587Y53683287D01*
X35702342Y53674140D01*
X35686113Y53617420D01*
X35683802Y53587075D01*
X35681622Y53571534D01*
X35675500Y53541741D01*
X35675500Y53482758D01*
X35675142Y53473344D01*
X35670663Y53414523D01*
X35674506Y53384349D01*
X35675500Y53368683D01*
X35675500Y51111783D01*
X35666061Y51064330D01*
X35639181Y51024102D01*
X34962645Y50347567D01*
X34960398Y50345376D01*
X34914965Y50302187D01*
X34896947Y50285059D01*
X34883628Y50265925D01*
X34863244Y50236638D01*
X34857573Y50229118D01*
X34820301Y50183407D01*
X34806210Y50156434D01*
X34798082Y50143017D01*
X34780705Y50118050D01*
X34757439Y50063835D01*
X34753399Y50055329D01*
X34726090Y50003048D01*
X34717720Y49973799D01*
X34712459Y49959022D01*
X34700460Y49931058D01*
X34688587Y49873287D01*
X34686342Y49864140D01*
X34670113Y49807420D01*
X34667802Y49777075D01*
X34665622Y49761534D01*
X34659500Y49731741D01*
X34659500Y49672758D01*
X34659142Y49663344D01*
X34654663Y49604523D01*
X34658506Y49574349D01*
X34659500Y49558683D01*
X34659500Y48050758D01*
X34650061Y48003305D01*
X34623181Y47963077D01*
X34621505Y47961402D01*
X34485965Y47767830D01*
X34386097Y47553664D01*
X34324936Y47325408D01*
X34304340Y47090001D01*
X34324936Y46854593D01*
X34358995Y46727485D01*
X34386097Y46626337D01*
X34485965Y46412170D01*
X34621505Y46218599D01*
X34621507Y46218597D01*
X34621508Y46218596D01*
X34743430Y46096674D01*
X34774726Y46043928D01*
X34776915Y45982635D01*
X34749462Y45927791D01*
X34699083Y45892811D01*
X34567669Y45843796D01*
X34452454Y45757546D01*
X34366204Y45642332D01*
X34341689Y45576605D01*
X34315909Y45507483D01*
X34311629Y45467669D01*
X34309500Y45447870D01*
X34309500Y43652131D01*
X34315909Y43592516D01*
X34329925Y43554939D01*
X34366204Y43457669D01*
X34452454Y43342454D01*
X34567669Y43256204D01*
X34702517Y43205909D01*
X34762127Y43199500D01*
X36557872Y43199501D01*
X36617483Y43205909D01*
X36752331Y43256204D01*
X36867546Y43342454D01*
X36953796Y43457669D01*
X37002810Y43589084D01*
X37037789Y43639463D01*
X37092634Y43666916D01*
X37153927Y43664727D01*
X37206673Y43633432D01*
X37328599Y43511505D01*
X37522170Y43375965D01*
X37736337Y43276097D01*
X37964592Y43214937D01*
X38200000Y43194341D01*
X38435408Y43214937D01*
X38663663Y43276097D01*
X38877830Y43375965D01*
X39071401Y43511505D01*
X39238495Y43678599D01*
X39368426Y43864161D01*
X39412743Y43903025D01*
X39470000Y43917036D01*
X39527257Y43903025D01*
X39571573Y43864161D01*
X39701505Y43678599D01*
X39868599Y43511505D01*
X40062170Y43375965D01*
X40276337Y43276097D01*
X40504592Y43214937D01*
X40740000Y43194341D01*
X40975408Y43214937D01*
X41203663Y43276097D01*
X41417830Y43375965D01*
X41611401Y43511505D01*
X41778495Y43678599D01*
X41914035Y43872170D01*
X42013903Y44086337D01*
X42075063Y44314592D01*
X42095659Y44550000D01*
X42078951Y44740974D01*
X47182526Y44740974D01*
X47255515Y44689867D01*
X47461673Y44593734D01*
X47681397Y44534859D01*
X47907999Y44515034D01*
X48134602Y44534859D01*
X48354326Y44593734D01*
X48560480Y44689866D01*
X48633472Y44740975D01*
X47908001Y45466447D01*
X47908000Y45466447D01*
X47182526Y44740975D01*
X47182526Y44740974D01*
X42078951Y44740974D01*
X42075063Y44785408D01*
X42013903Y45013663D01*
X41914035Y45227829D01*
X41778495Y45421401D01*
X41611401Y45588495D01*
X41425402Y45718733D01*
X41386539Y45763049D01*
X41372528Y45820306D01*
X41386539Y45877563D01*
X41425405Y45921881D01*
X41611078Y46051891D01*
X41778106Y46218919D01*
X41913600Y46412424D01*
X42013430Y46626508D01*
X42070636Y46840000D01*
X40614000Y46840000D01*
X40552000Y46856613D01*
X40506613Y46902000D01*
X40490000Y46964000D01*
X40490000Y48420636D01*
X40990000Y48420636D01*
X40990000Y47340000D01*
X42070636Y47340000D01*
X42070635Y47340001D01*
X42013430Y47553493D01*
X41913599Y47767579D01*
X41778109Y47961079D01*
X41611081Y48128107D01*
X41417576Y48263601D01*
X41203492Y48363431D01*
X40990000Y48420636D01*
X40490000Y48420636D01*
X40489999Y48420636D01*
X40276507Y48363431D01*
X40062421Y48263600D01*
X39868921Y48128110D01*
X39701893Y47961082D01*
X39571880Y47775404D01*
X39527562Y47736539D01*
X39470305Y47722528D01*
X39413048Y47736539D01*
X39368730Y47775405D01*
X39351174Y47800478D01*
X39238495Y47961401D01*
X39071401Y48128495D01*
X38877830Y48264035D01*
X38663663Y48363903D01*
X38602501Y48380291D01*
X38435407Y48425064D01*
X38200000Y48445660D01*
X37964592Y48425064D01*
X37736336Y48363903D01*
X37522170Y48264035D01*
X37328598Y48128495D01*
X37161505Y47961402D01*
X37031575Y47775841D01*
X36987257Y47736975D01*
X36930000Y47722964D01*
X36872743Y47736975D01*
X36828425Y47775841D01*
X36732033Y47913503D01*
X36698495Y47961401D01*
X36696819Y47963078D01*
X36669939Y48003305D01*
X36660500Y48050758D01*
X36660500Y49164217D01*
X36669939Y49211670D01*
X36696819Y49251898D01*
X36805421Y49360500D01*
X37373390Y49928472D01*
X37375560Y49930588D01*
X37439053Y49990941D01*
X37472759Y50039370D01*
X37478428Y50046887D01*
X37489822Y50060860D01*
X37515698Y50092593D01*
X37529783Y50119561D01*
X37537918Y50132985D01*
X37554239Y50156434D01*
X37555295Y50157951D01*
X37578568Y50212185D01*
X37582598Y50220669D01*
X37588922Y50232774D01*
X37609909Y50272951D01*
X37618278Y50302203D01*
X37623534Y50316968D01*
X37635540Y50344942D01*
X37647418Y50402744D01*
X37649651Y50411844D01*
X37665887Y50468582D01*
X37668197Y50498923D01*
X37670378Y50514471D01*
X37678850Y50555694D01*
X37711208Y50616969D01*
X37771392Y50651313D01*
X37840607Y50648002D01*
X37897238Y50608070D01*
X37923601Y50543987D01*
X37925909Y50522517D01*
X37976204Y50387669D01*
X38062454Y50272454D01*
X38177669Y50186204D01*
X38312517Y50135909D01*
X38372127Y50129500D01*
X40467872Y50129501D01*
X40527483Y50135909D01*
X40662331Y50186204D01*
X40777546Y50272454D01*
X40786983Y50285060D01*
X40820485Y50329811D01*
X40864247Y50366384D01*
X40919751Y50379500D01*
X41520500Y50379500D01*
X41582500Y50362887D01*
X41627887Y50317500D01*
X41644500Y50255500D01*
X41644500Y50025279D01*
X41644460Y50022137D01*
X41642242Y49934638D01*
X41652648Y49876580D01*
X41653957Y49867251D01*
X41659926Y49808562D01*
X41669033Y49779533D01*
X41672772Y49764298D01*
X41678141Y49734348D01*
X41700020Y49679575D01*
X41703180Y49670700D01*
X41720841Y49614412D01*
X41735607Y49587809D01*
X41742337Y49573636D01*
X41753622Y49545383D01*
X41786080Y49496133D01*
X41790961Y49488077D01*
X41819590Y49436499D01*
X41839404Y49413419D01*
X41848856Y49400884D01*
X41864522Y49377113D01*
X41865599Y49375480D01*
X41907300Y49333779D01*
X41913705Y49326868D01*
X41952134Y49282104D01*
X41976193Y49263481D01*
X41987972Y49253107D01*
X44086431Y47154649D01*
X44088624Y47152400D01*
X44148942Y47088946D01*
X44197362Y47055245D01*
X44204871Y47049584D01*
X44250593Y47012302D01*
X44277562Y46998215D01*
X44290982Y46990084D01*
X44315949Y46972706D01*
X44370163Y46949441D01*
X44378663Y46945405D01*
X44430950Y46918092D01*
X44430951Y46918091D01*
X44460196Y46909723D01*
X44474986Y46904457D01*
X44480712Y46902000D01*
X44502942Y46892460D01*
X44560737Y46880584D01*
X44569854Y46878346D01*
X44626582Y46862113D01*
X44656916Y46859804D01*
X44672453Y46857626D01*
X44702259Y46851500D01*
X44761242Y46851500D01*
X44770656Y46851142D01*
X44829476Y46846663D01*
X44859651Y46850507D01*
X44875317Y46851500D01*
X46805055Y46851500D01*
X46869383Y46833509D01*
X46915044Y46784757D01*
X46928790Y46719390D01*
X46906630Y46656377D01*
X46777866Y46472484D01*
X46681733Y46266327D01*
X46622858Y46046603D01*
X46603033Y45820000D01*
X46622858Y45593398D01*
X46681733Y45373674D01*
X46777866Y45167516D01*
X46828972Y45094529D01*
X46828973Y45094528D01*
X47820318Y46085873D01*
X47875905Y46117967D01*
X47940093Y46117967D01*
X47995680Y46085873D01*
X48987025Y45094528D01*
X49038134Y45167520D01*
X49134266Y45373674D01*
X49193141Y45593398D01*
X49212966Y45820000D01*
X49193141Y46046603D01*
X49134266Y46266328D01*
X49071062Y46401869D01*
X49060368Y46469386D01*
X49087078Y46532310D01*
X49143074Y46571518D01*
X49211338Y46575096D01*
X49271123Y46541956D01*
X49546752Y46266328D01*
X50071181Y45741899D01*
X50098061Y45701671D01*
X50107500Y45654218D01*
X50107500Y44972131D01*
X50113909Y44912516D01*
X50132106Y44863727D01*
X50164204Y44777669D01*
X50250454Y44662454D01*
X50357812Y44582086D01*
X50394384Y44538324D01*
X50407500Y44482820D01*
X50407500Y42372500D01*
X50390887Y42310500D01*
X50345500Y42265113D01*
X50283500Y42248500D01*
X33977279Y42248500D01*
X33974137Y42248540D01*
X33886636Y42250758D01*
X33828571Y42240351D01*
X33819243Y42239042D01*
X33760559Y42233074D01*
X33731531Y42223967D01*
X33716296Y42220228D01*
X33686350Y42214860D01*
X33631555Y42192974D01*
X33622685Y42189816D01*
X33566410Y42172159D01*
X33539814Y42157398D01*
X33525644Y42150669D01*
X33497382Y42139379D01*
X33448122Y42106914D01*
X33440066Y42102033D01*
X33388495Y42073409D01*
X33365406Y42053588D01*
X33352883Y42044145D01*
X33327484Y42027404D01*
X33285782Y41985703D01*
X33278875Y41979302D01*
X33234104Y41940866D01*
X33215480Y41916806D01*
X33205107Y41905029D01*
X27972259Y36672181D01*
X27919513Y36640885D01*
X27858221Y36638696D01*
X27690430Y36675196D01*
X27405000Y36695611D01*
X27119570Y36675196D01*
X26839955Y36614370D01*
X26697604Y36561276D01*
X26627913Y36556292D01*
X26566590Y36589777D01*
X25186819Y37969549D01*
X25159939Y38009777D01*
X25150500Y38057230D01*
X25150500Y38855462D01*
X25162835Y38909378D01*
X25197386Y38952567D01*
X25247279Y38976437D01*
X25302586Y38976240D01*
X26490480Y38699985D01*
X26528340Y38694817D01*
X26528340Y38694818D01*
X26528341Y38694817D01*
X26671544Y38709178D01*
X26762658Y38746158D01*
X26804901Y38763303D01*
X26917608Y38852806D01*
X27000533Y38970437D01*
X27046958Y39106666D01*
X27049083Y39129495D01*
X27050500Y39144711D01*
X27050500Y42384249D01*
X27069803Y42450692D01*
X27121703Y42496448D01*
X27190041Y42507271D01*
X27253541Y42479793D01*
X27292431Y42422567D01*
X27339820Y42276716D01*
X27434466Y42112784D01*
X27561129Y41972111D01*
X27714269Y41860849D01*
X27887197Y41783856D01*
X28072352Y41744500D01*
X28072354Y41744500D01*
X28261646Y41744500D01*
X28261648Y41744500D01*
X28442032Y41782842D01*
X28446803Y41783856D01*
X28619730Y41860849D01*
X28680539Y41905029D01*
X28772870Y41972111D01*
X28791789Y41993122D01*
X28899533Y42112784D01*
X28994179Y42276716D01*
X29052674Y42456744D01*
X29072460Y42645000D01*
X29052674Y42833256D01*
X28994179Y43013284D01*
X28994179Y43013285D01*
X28899533Y43177217D01*
X28772870Y43317890D01*
X28619730Y43429152D01*
X28446802Y43506145D01*
X28261648Y43545500D01*
X28261646Y43545500D01*
X28202453Y43545500D01*
X28155000Y43554939D01*
X28114772Y43581819D01*
X27270802Y44425789D01*
X27257906Y44441887D01*
X27206775Y44489902D01*
X27203978Y44492613D01*
X27184470Y44512121D01*
X27181290Y44514588D01*
X27172424Y44522161D01*
X27140582Y44552062D01*
X27123024Y44561715D01*
X27106764Y44572396D01*
X27090936Y44584673D01*
X27050851Y44602020D01*
X27040361Y44607159D01*
X27002091Y44628198D01*
X26982691Y44633179D01*
X26964284Y44639481D01*
X26945897Y44647438D01*
X26902758Y44654271D01*
X26891324Y44656639D01*
X26849019Y44667500D01*
X26828984Y44667500D01*
X26809586Y44669027D01*
X26802162Y44670203D01*
X26789805Y44672160D01*
X26789804Y44672160D01*
X26763484Y44669672D01*
X26746325Y44668050D01*
X26734656Y44667500D01*
X15752927Y44667500D01*
X15694799Y44681968D01*
X15650236Y44721997D01*
X15629637Y44778245D01*
X15637809Y44837586D01*
X15672845Y44886173D01*
X15726569Y44912666D01*
X15970041Y44965630D01*
X15970040Y44965630D01*
X15970046Y44965631D01*
X16238161Y45065633D01*
X16489315Y45202774D01*
X16718395Y45374261D01*
X16920739Y45576605D01*
X17092226Y45805685D01*
X17229367Y46056839D01*
X17329369Y46324954D01*
X17390196Y46604572D01*
X17410610Y46890000D01*
X25399389Y46890000D01*
X25419804Y46604571D01*
X25480629Y46324959D01*
X25480631Y46324954D01*
X25557833Y46117967D01*
X25580634Y46056837D01*
X25717772Y45805687D01*
X25778896Y45724035D01*
X25889261Y45576605D01*
X26091605Y45374261D01*
X26263414Y45245646D01*
X26320686Y45202773D01*
X26385255Y45167516D01*
X26571839Y45065633D01*
X26839954Y44965631D01*
X26839957Y44965631D01*
X26839958Y44965630D01*
X26892217Y44954262D01*
X27119572Y44904804D01*
X27405000Y44884390D01*
X27690428Y44904804D01*
X27970046Y44965631D01*
X28238161Y45065633D01*
X28489315Y45202774D01*
X28718395Y45374261D01*
X28920739Y45576605D01*
X29092226Y45805685D01*
X29229367Y46056839D01*
X29329369Y46324954D01*
X29390196Y46604572D01*
X29410610Y46890000D01*
X29390196Y47175428D01*
X29329369Y47455046D01*
X29229367Y47723161D01*
X29166411Y47838456D01*
X29092227Y47974314D01*
X29049354Y48031586D01*
X28920739Y48203395D01*
X28718395Y48405739D01*
X28526549Y48549353D01*
X28489313Y48577228D01*
X28238163Y48714366D01*
X28238162Y48714367D01*
X28238161Y48714367D01*
X28018113Y48796441D01*
X27970041Y48814371D01*
X27690429Y48875196D01*
X27405000Y48895611D01*
X27119570Y48875196D01*
X26839958Y48814371D01*
X26571836Y48714366D01*
X26320686Y48577228D01*
X26091602Y48405737D01*
X25889263Y48203398D01*
X25717772Y47974314D01*
X25580634Y47723164D01*
X25480629Y47455042D01*
X25419804Y47175430D01*
X25399389Y46890000D01*
X17410610Y46890000D01*
X17390196Y47175428D01*
X17329369Y47455046D01*
X17288792Y47563833D01*
X17281333Y47616581D01*
X17282197Y47627934D01*
X17284376Y47643465D01*
X17290500Y47673259D01*
X17290500Y47732242D01*
X17290858Y47741656D01*
X17290964Y47743054D01*
X17295337Y47800476D01*
X17291493Y47830652D01*
X17290500Y47846317D01*
X17290500Y51665501D01*
X17307113Y51727501D01*
X17311743Y51732131D01*
X31619500Y51732131D01*
X31625909Y51672516D01*
X31633985Y51650863D01*
X31676204Y51537669D01*
X31762454Y51422454D01*
X31877669Y51336204D01*
X32012517Y51285909D01*
X32072127Y51279500D01*
X34167872Y51279501D01*
X34227483Y51285909D01*
X34362331Y51336204D01*
X34477546Y51422454D01*
X34563796Y51537669D01*
X34614091Y51672517D01*
X34620500Y51732127D01*
X34620499Y55627872D01*
X34614091Y55687483D01*
X34563796Y55822331D01*
X34477546Y55937546D01*
X34362331Y56023796D01*
X34227483Y56074091D01*
X34167873Y56080500D01*
X34167869Y56080500D01*
X32072130Y56080500D01*
X32012515Y56074091D01*
X31877669Y56023796D01*
X31762454Y55937546D01*
X31676204Y55822332D01*
X31625909Y55687485D01*
X31625909Y55687483D01*
X31620257Y55634907D01*
X31619500Y55627870D01*
X31619500Y51732131D01*
X17311743Y51732131D01*
X17352500Y51772888D01*
X17414500Y51789501D01*
X17840009Y51789501D01*
X17907780Y51796424D01*
X17942797Y51800001D01*
X18109334Y51855186D01*
X18258656Y51947288D01*
X18382712Y52071344D01*
X18474814Y52220666D01*
X18529999Y52387203D01*
X18540500Y52489991D01*
X18540499Y53190000D01*
X19440001Y53190000D01*
X19440001Y52490021D01*
X19450493Y52387305D01*
X19505642Y52220878D01*
X19597683Y52071655D01*
X19721654Y51947684D01*
X19870877Y51855643D01*
X20037303Y51800494D01*
X20140021Y51790000D01*
X21440000Y51790000D01*
X21440000Y53190000D01*
X21940000Y53190000D01*
X21940000Y51790001D01*
X23239979Y51790001D01*
X23342695Y51800494D01*
X23509122Y51855643D01*
X23658345Y51947684D01*
X23782316Y52071655D01*
X23874357Y52220878D01*
X23929506Y52387304D01*
X23940000Y52490021D01*
X23940000Y53190000D01*
X21940000Y53190000D01*
X21440000Y53190000D01*
X19440001Y53190000D01*
X18540499Y53190000D01*
X18540499Y53690000D01*
X19440000Y53690000D01*
X21440000Y53690000D01*
X21440000Y55089999D01*
X20140021Y55089999D01*
X20037304Y55079507D01*
X19870877Y55024358D01*
X19721654Y54932317D01*
X19597683Y54808346D01*
X19505642Y54659123D01*
X19450493Y54492697D01*
X19440000Y54389979D01*
X19440000Y53690000D01*
X18540499Y53690000D01*
X18540499Y54390008D01*
X18537670Y54417698D01*
X18529999Y54492797D01*
X18515575Y54536325D01*
X18474814Y54659334D01*
X18382712Y54808656D01*
X18382711Y54808658D01*
X18258657Y54932712D01*
X18109334Y55024814D01*
X17942797Y55080000D01*
X17844904Y55090000D01*
X21940000Y55090000D01*
X21940000Y53690000D01*
X23939999Y53690000D01*
X23939999Y54389979D01*
X23929506Y54492696D01*
X23874357Y54659123D01*
X23782316Y54808346D01*
X23658345Y54932317D01*
X23509122Y55024358D01*
X23342696Y55079507D01*
X23239979Y55090000D01*
X21940000Y55090000D01*
X17844904Y55090000D01*
X17840009Y55090500D01*
X14739991Y55090500D01*
X14637203Y55080000D01*
X14470665Y55024814D01*
X14321342Y54932712D01*
X14197288Y54808658D01*
X14105186Y54659335D01*
X14050000Y54492798D01*
X14039500Y54390010D01*
X14039500Y52489992D01*
X14050000Y52387204D01*
X14105186Y52220666D01*
X14197288Y52071343D01*
X14321342Y51947289D01*
X14321344Y51947288D01*
X14470666Y51855186D01*
X14582016Y51818288D01*
X14637202Y51800001D01*
X14739991Y51789500D01*
X15165500Y51789500D01*
X15227500Y51772887D01*
X15272887Y51727500D01*
X15289500Y51665500D01*
X15289500Y49002797D01*
X15274332Y48943370D01*
X15232539Y48898481D01*
X15174347Y48879114D01*
X15135279Y48876320D01*
X15119570Y48875196D01*
X14839958Y48814371D01*
X14571836Y48714366D01*
X14320686Y48577228D01*
X14091602Y48405737D01*
X13889261Y48203396D01*
X13782059Y48060190D01*
X13738297Y48023616D01*
X13682792Y48010500D01*
X8374499Y48010500D01*
X8312499Y48027113D01*
X8267112Y48072500D01*
X8250499Y48134500D01*
X8250499Y48357870D01*
X8249901Y48363431D01*
X8244091Y48417483D01*
X8193796Y48552331D01*
X8107546Y48667546D01*
X7992331Y48753796D01*
X7857483Y48804091D01*
X7797873Y48810500D01*
X7797869Y48810500D01*
X5102130Y48810500D01*
X5042515Y48804091D01*
X4907669Y48753796D01*
X4792454Y48667546D01*
X4706204Y48552332D01*
X4655909Y48417485D01*
X4655909Y48417483D01*
X4650149Y48363903D01*
X4649500Y48357870D01*
X4649500Y45662131D01*
X4655909Y45602516D01*
X4665574Y45576603D01*
X4706204Y45467669D01*
X4792454Y45352454D01*
X4907669Y45266204D01*
X5042517Y45215909D01*
X5102127Y45209500D01*
X7797872Y45209501D01*
X7857483Y45215909D01*
X7992331Y45266204D01*
X8107546Y45352454D01*
X8193796Y45467669D01*
X8244091Y45602517D01*
X8250500Y45662127D01*
X8250500Y45885500D01*
X8267113Y45947500D01*
X8312500Y45992887D01*
X8374500Y46009500D01*
X13532910Y46009500D01*
X13596184Y45992142D01*
X13641742Y45944927D01*
X13717772Y45805687D01*
X13778896Y45724035D01*
X13889261Y45576605D01*
X14091605Y45374261D01*
X14263414Y45245646D01*
X14320686Y45202773D01*
X14385255Y45167516D01*
X14571839Y45065633D01*
X14839954Y44965631D01*
X14839957Y44965631D01*
X14839958Y44965630D01*
X14892217Y44954262D01*
X15119572Y44904804D01*
X15385598Y44885778D01*
X15447791Y44863727D01*
X15489867Y44812895D01*
X15499910Y44747676D01*
X15475075Y44686540D01*
X15422396Y44646801D01*
X15396594Y44636586D01*
X15385549Y44632804D01*
X15343611Y44620618D01*
X15326364Y44610419D01*
X15308900Y44601864D01*
X15290267Y44594486D01*
X15254926Y44568811D01*
X15245168Y44562401D01*
X15207579Y44540171D01*
X15193410Y44526002D01*
X15178622Y44513372D01*
X15162413Y44501595D01*
X15134572Y44467942D01*
X15126711Y44459304D01*
X12670208Y42002801D01*
X12654110Y41989904D01*
X12606096Y41938775D01*
X12603391Y41935983D01*
X12583874Y41916466D01*
X12581415Y41913295D01*
X12573842Y41904428D01*
X12543935Y41872580D01*
X12534285Y41855026D01*
X12523609Y41838772D01*
X12511326Y41822937D01*
X12493975Y41782842D01*
X12488838Y41772356D01*
X12467802Y41734093D01*
X12462821Y41714691D01*
X12456520Y41696289D01*
X12448561Y41677898D01*
X12441728Y41634758D01*
X12439360Y41623326D01*
X12428500Y41581022D01*
X12428500Y41560984D01*
X12426973Y41541585D01*
X12423840Y41521806D01*
X12427950Y41478325D01*
X12428500Y41466656D01*
X12428500Y39399452D01*
X12419061Y39351999D01*
X12392181Y39311771D01*
X9783228Y36702819D01*
X9743000Y36675939D01*
X9695547Y36666500D01*
X8246051Y36666500D01*
X8185619Y36682223D01*
X8140512Y36725404D01*
X8127711Y36746158D01*
X8034049Y36839820D01*
X8001955Y36895408D01*
X8001955Y36959595D01*
X8034048Y37015181D01*
X8127712Y37108844D01*
X8219814Y37258166D01*
X8274999Y37424703D01*
X8285500Y37527491D01*
X8285499Y38327508D01*
X8274999Y38430297D01*
X8219814Y38596834D01*
X8150520Y38709178D01*
X8127711Y38746158D01*
X8003657Y38870212D01*
X7894404Y38937599D01*
X7851223Y38982706D01*
X7835500Y39043138D01*
X7835500Y40816194D01*
X7842459Y40857149D01*
X7862553Y40893507D01*
X7941814Y40992897D01*
X7941816Y40992900D01*
X8076743Y41226602D01*
X8175334Y41477805D01*
X8235383Y41740897D01*
X8255549Y42010000D01*
X8235383Y42279103D01*
X8175334Y42542195D01*
X8076743Y42793398D01*
X7941815Y43027102D01*
X7773561Y43238085D01*
X7763400Y43247513D01*
X7575743Y43421634D01*
X7451789Y43506144D01*
X7352775Y43573651D01*
X7109641Y43690738D01*
X7030097Y43715274D01*
X6851771Y43770281D01*
X6584929Y43810500D01*
X6315071Y43810500D01*
X6048228Y43770281D01*
X5790359Y43690738D01*
X5547228Y43573653D01*
X5324257Y43421634D01*
X5126439Y43238085D01*
X4958184Y43027101D01*
X4823257Y42793399D01*
X4724666Y42542196D01*
X4664616Y42279101D01*
X4644450Y42010000D01*
X4664616Y41740900D01*
X4724547Y41478325D01*
X4724666Y41477805D01*
X4823257Y41226602D01*
X4958185Y40992898D01*
X5126439Y40781915D01*
X5324259Y40598365D01*
X5547226Y40446349D01*
X5790359Y40329262D01*
X6048228Y40249720D01*
X6152112Y40234062D01*
X6228981Y40222476D01*
X6282884Y40200541D01*
X6320844Y40156431D01*
X6334500Y40099861D01*
X6334500Y39043138D01*
X6318777Y38982706D01*
X6275596Y38937599D01*
X6197596Y38889489D01*
X6132500Y38871028D01*
X6067404Y38889489D01*
X5949334Y38962314D01*
X5782797Y39017500D01*
X5680009Y39028000D01*
X4679991Y39028000D01*
X4577203Y39017500D01*
X4410665Y38962314D01*
X4261342Y38870212D01*
X4137288Y38746158D01*
X4045186Y38596835D01*
X3990000Y38430298D01*
X3979500Y38327510D01*
X3979500Y37527492D01*
X3990000Y37424704D01*
X4045186Y37258166D01*
X4137288Y37108843D01*
X4230950Y37015181D01*
X4263044Y36959594D01*
X4263044Y36895406D01*
X4230950Y36839819D01*
X4137288Y36746158D01*
X4045186Y36596835D01*
X3990000Y36430298D01*
X3979500Y36327510D01*
X3979500Y35527492D01*
X3990000Y35424704D01*
X4045186Y35258166D01*
X4137288Y35108843D01*
X4261342Y34984789D01*
X4370596Y34917401D01*
X4413777Y34872294D01*
X4429500Y34811862D01*
X4429500Y23075706D01*
X4428191Y23057736D01*
X4424711Y23033977D01*
X4429028Y22984631D01*
X4429500Y22973824D01*
X4429500Y22968292D01*
X4433098Y22937504D01*
X4433464Y22933919D01*
X4437961Y22882514D01*
X4440110Y22857959D01*
X4444329Y22838929D01*
X4444758Y22837749D01*
X4444759Y22837745D01*
X4470413Y22767258D01*
X4471582Y22763893D01*
X4495580Y22691476D01*
X4504075Y22673928D01*
X4545979Y22610216D01*
X4547889Y22607218D01*
X4584911Y22547198D01*
X4587952Y22542268D01*
X4600253Y22527170D01*
X4601168Y22526307D01*
X4601170Y22526304D01*
X4655709Y22474849D01*
X4658296Y22472336D01*
X5928084Y21202548D01*
X7018452Y20112181D01*
X7048702Y20062818D01*
X7053244Y20005102D01*
X7031089Y19951615D01*
X6987066Y19914015D01*
X6930771Y19900500D01*
X3192701Y19900500D01*
X3135444Y19914511D01*
X3091126Y19953377D01*
X3043494Y20021403D01*
X2921181Y20143716D01*
X2889885Y20196462D01*
X2887696Y20257755D01*
X2915149Y20312600D01*
X2965529Y20347579D01*
X3097088Y20396648D01*
X3212188Y20482812D01*
X3298352Y20597911D01*
X3348597Y20732625D01*
X3355000Y20792176D01*
X3355000Y21440000D01*
X655000Y21440000D01*
X655000Y20792176D01*
X661402Y20732625D01*
X711647Y20597911D01*
X797811Y20482812D01*
X912911Y20396648D01*
X1044471Y20347578D01*
X1094850Y20312599D01*
X1122303Y20257754D01*
X1120114Y20196461D01*
X1088819Y20143715D01*
X966503Y20021399D01*
X830965Y19827830D01*
X731097Y19613664D01*
X669936Y19385408D01*
X649340Y19150001D01*
X669936Y18914593D01*
X714709Y18747498D01*
X731097Y18686337D01*
X830965Y18472170D01*
X966505Y18278599D01*
X1133599Y18111505D01*
X1319160Y17981574D01*
X1358024Y17937257D01*
X1372035Y17880000D01*
X1358024Y17822743D01*
X1319158Y17778425D01*
X1139325Y17652504D01*
X1133595Y17648492D01*
X966505Y17481402D01*
X830965Y17287830D01*
X731097Y17073664D01*
X669936Y16845408D01*
X649340Y16610000D01*
X669936Y16374593D01*
X706763Y16237155D01*
X731097Y16146337D01*
X830965Y15932170D01*
X966505Y15738599D01*
X1133599Y15571505D01*
X1319160Y15441574D01*
X1358024Y15397257D01*
X1372035Y15340000D01*
X1358024Y15282743D01*
X1319159Y15238425D01*
X1133595Y15108492D01*
X966505Y14941402D01*
X830965Y14747830D01*
X731097Y14533664D01*
X669936Y14305408D01*
X649340Y14070001D01*
X669936Y13834593D01*
X696855Y13734130D01*
X731097Y13606337D01*
X830965Y13392170D01*
X966505Y13198599D01*
X1133599Y13031505D01*
X1319160Y12901574D01*
X1358024Y12857257D01*
X1372035Y12800000D01*
X1358024Y12742743D01*
X1319158Y12698425D01*
X1156183Y12584308D01*
X1133595Y12568492D01*
X966505Y12401402D01*
X830965Y12207830D01*
X731097Y11993664D01*
X669936Y11765408D01*
X649340Y11530001D01*
X669936Y11294593D01*
X698423Y11188279D01*
X731097Y11066337D01*
X830965Y10852170D01*
X966505Y10658599D01*
X1133599Y10491505D01*
X1319160Y10361574D01*
X1358024Y10317257D01*
X1372035Y10260000D01*
X1358024Y10202743D01*
X1319158Y10158425D01*
X1192161Y10069500D01*
X1133595Y10028492D01*
X966505Y9861402D01*
X830965Y9667830D01*
X731097Y9453664D01*
X669936Y9225408D01*
X649340Y8990000D01*
X669936Y8754593D01*
X677464Y8726500D01*
X731097Y8526337D01*
X830965Y8312170D01*
X966505Y8118599D01*
X1133599Y7951505D01*
X1327170Y7815965D01*
X1541337Y7716097D01*
X1769592Y7654937D01*
X2005000Y7634341D01*
X2240409Y7654937D01*
X2340870Y7681856D01*
X2405058Y7681857D01*
X2460646Y7649764D01*
X2479529Y7630880D01*
X2482711Y7628412D01*
X2491571Y7620845D01*
X2523418Y7590938D01*
X2540972Y7581288D01*
X2557236Y7570604D01*
X2568972Y7561501D01*
X2573064Y7558327D01*
X2597909Y7547576D01*
X2613152Y7540979D01*
X2623631Y7535846D01*
X2661908Y7514803D01*
X2681306Y7509823D01*
X2699708Y7503523D01*
X2718104Y7495562D01*
X2761261Y7488727D01*
X2772664Y7486366D01*
X2814981Y7475500D01*
X2835016Y7475500D01*
X2854413Y7473974D01*
X2874196Y7470840D01*
X2917674Y7474950D01*
X2929344Y7475500D01*
X6610187Y7475500D01*
X6670238Y7459989D01*
X6715266Y7417337D01*
X6734005Y7358213D01*
X6721768Y7297411D01*
X6681616Y7250140D01*
X6623594Y7228227D01*
X6473436Y7211896D01*
X6129255Y7136137D01*
X5795280Y7023607D01*
X5475439Y6875633D01*
X5173462Y6693940D01*
X4892907Y6480667D01*
X4882625Y6470929D01*
X4882625Y6470927D01*
X7000000Y4353553D01*
X7000001Y4353553D01*
X9117374Y6470927D01*
X9117373Y6470928D01*
X9107093Y6480665D01*
X8826537Y6693940D01*
X8524560Y6875633D01*
X8204719Y7023607D01*
X7870744Y7136137D01*
X7526563Y7211896D01*
X7376406Y7228227D01*
X7318384Y7250140D01*
X7278232Y7297411D01*
X7265995Y7358213D01*
X7284734Y7417337D01*
X7329762Y7459989D01*
X7389813Y7475500D01*
X15347485Y7475500D01*
X15413028Y7456762D01*
X15458762Y7406212D01*
X15470866Y7339126D01*
X15445681Y7275780D01*
X15393941Y7237621D01*
X15275811Y7149189D01*
X15189647Y7034090D01*
X15139402Y6899376D01*
X15133000Y6839824D01*
X15133000Y6192000D01*
X16609000Y6192000D01*
X16671000Y6175387D01*
X16716387Y6130000D01*
X16733000Y6068000D01*
X16733000Y4592000D01*
X17380824Y4592000D01*
X17440375Y4598403D01*
X17575089Y4648648D01*
X17690188Y4734812D01*
X17776352Y4849911D01*
X17825422Y4981472D01*
X17860401Y5031851D01*
X17915246Y5059304D01*
X17976539Y5057115D01*
X18029285Y5025819D01*
X18151599Y4903505D01*
X18219625Y4855873D01*
X18258489Y4811556D01*
X18272500Y4754299D01*
X18272500Y2938701D01*
X18258489Y2881444D01*
X18219623Y2837126D01*
X18151601Y2789498D01*
X18029284Y2667181D01*
X17976537Y2635886D01*
X17915244Y2633697D01*
X17860400Y2661150D01*
X17825421Y2711530D01*
X17776352Y2843089D01*
X17690188Y2958189D01*
X17575089Y3044353D01*
X17440375Y3094598D01*
X17380824Y3101000D01*
X16733000Y3101000D01*
X16733000Y401000D01*
X17380824Y401000D01*
X17440375Y407403D01*
X17575089Y457648D01*
X17690188Y543812D01*
X17776352Y658911D01*
X17825422Y790472D01*
X17860401Y840851D01*
X17915246Y868304D01*
X17976539Y866115D01*
X18029285Y834820D01*
X18151599Y712505D01*
X18345170Y576965D01*
X18559337Y477097D01*
X18787592Y415937D01*
X19023000Y395341D01*
X19258408Y415937D01*
X19486663Y477097D01*
X19700830Y576965D01*
X19894401Y712505D01*
X20061495Y879599D01*
X20191426Y1065161D01*
X20235743Y1104025D01*
X20293000Y1118036D01*
X20350257Y1104025D01*
X20394573Y1065161D01*
X20524505Y879599D01*
X20691599Y712505D01*
X20885170Y576965D01*
X21099337Y477097D01*
X21327592Y415937D01*
X21563000Y395341D01*
X21798408Y415937D01*
X22026663Y477097D01*
X22240830Y576965D01*
X22434401Y712505D01*
X22601495Y879599D01*
X22731426Y1065161D01*
X22775743Y1104025D01*
X22833000Y1118036D01*
X22890257Y1104025D01*
X22934573Y1065161D01*
X23064505Y879599D01*
X23231599Y712505D01*
X23425170Y576965D01*
X23639337Y477097D01*
X23867592Y415937D01*
X24103000Y395341D01*
X24338408Y415937D01*
X24566663Y477097D01*
X24780830Y576965D01*
X24974401Y712505D01*
X25141495Y879599D01*
X25277035Y1073170D01*
X25376903Y1287337D01*
X25438063Y1515592D01*
X25458659Y1751000D01*
X25438063Y1986408D01*
X25376903Y2214663D01*
X25277035Y2428829D01*
X25141495Y2622401D01*
X24974401Y2789495D01*
X24906374Y2837128D01*
X24867511Y2881444D01*
X24853500Y2938701D01*
X24853500Y4754299D01*
X24867511Y4811556D01*
X24906374Y4855873D01*
X24974401Y4903505D01*
X25141495Y5070599D01*
X25276653Y5263626D01*
X25320970Y5302489D01*
X25378227Y5316500D01*
X28719256Y5316500D01*
X28739762Y5314236D01*
X28742665Y5314328D01*
X28742667Y5314327D01*
X28809872Y5316439D01*
X28813768Y5316500D01*
X28841349Y5316500D01*
X28841350Y5316500D01*
X28845319Y5317002D01*
X28856965Y5317920D01*
X28900627Y5319291D01*
X28919859Y5324880D01*
X28938918Y5328826D01*
X28945196Y5329619D01*
X28958792Y5331336D01*
X28999407Y5347418D01*
X29010444Y5351197D01*
X29052390Y5363382D01*
X29069629Y5373578D01*
X29087102Y5382138D01*
X29105732Y5389514D01*
X29141064Y5415186D01*
X29150830Y5421600D01*
X29152622Y5422660D01*
X29188420Y5443830D01*
X29202585Y5457996D01*
X29217373Y5470627D01*
X29233587Y5482406D01*
X29261438Y5516074D01*
X29269269Y5524681D01*
X29352321Y5607733D01*
X29401682Y5637980D01*
X29459398Y5642522D01*
X29512886Y5620367D01*
X29550485Y5576344D01*
X29564000Y5520049D01*
X29564000Y124500D01*
X29547387Y62500D01*
X29502000Y17113D01*
X29440000Y500D01*
X124500Y500D01*
X62500Y17113D01*
X17113Y62500D01*
X500Y124500D01*
X500Y1529073D01*
X4882625Y1529073D01*
X4892906Y1519336D01*
X5173462Y1306061D01*
X5475439Y1124368D01*
X5795280Y976394D01*
X6129255Y863864D01*
X6473436Y788105D01*
X6823789Y750000D01*
X7176211Y750000D01*
X7526563Y788105D01*
X7870744Y863864D01*
X8204719Y976394D01*
X8524560Y1124368D01*
X8826537Y1306061D01*
X9082972Y1501000D01*
X15133000Y1501000D01*
X15133000Y853176D01*
X15139402Y793625D01*
X15189647Y658911D01*
X15275811Y543812D01*
X15390910Y457648D01*
X15525624Y407403D01*
X15585176Y401000D01*
X16233000Y401000D01*
X16233000Y1501000D01*
X15133000Y1501000D01*
X9082972Y1501000D01*
X9107094Y1519337D01*
X9117373Y1529073D01*
X9117373Y1529074D01*
X7000000Y3646447D01*
X4882625Y1529074D01*
X4882625Y1529073D01*
X500Y1529073D01*
X500Y4000000D01*
X3745226Y4000000D01*
X3764306Y3648104D01*
X3821323Y3300313D01*
X3915602Y2960748D01*
X4046047Y2633355D01*
X4211124Y2321987D01*
X4408894Y2030298D01*
X4531913Y1885469D01*
X4531914Y1885468D01*
X6646447Y3999999D01*
X7353553Y3999999D01*
X9468084Y1885468D01*
X9468085Y1885469D01*
X9566217Y2001000D01*
X15133000Y2001000D01*
X16233000Y2001000D01*
X16233000Y3101000D01*
X15585176Y3101000D01*
X15525624Y3094598D01*
X15390910Y3044353D01*
X15275811Y2958189D01*
X15189647Y2843090D01*
X15139402Y2708376D01*
X15133000Y2648824D01*
X15133000Y2001000D01*
X9566217Y2001000D01*
X9591104Y2030299D01*
X9788875Y2321987D01*
X9953952Y2633355D01*
X10084397Y2960748D01*
X10178676Y3300313D01*
X10235693Y3648104D01*
X10254773Y4000000D01*
X10235693Y4351897D01*
X10178676Y4699688D01*
X10084397Y5039253D01*
X9953952Y5366646D01*
X9788875Y5678014D01*
X9779392Y5692000D01*
X15133000Y5692000D01*
X15133000Y5044176D01*
X15139402Y4984625D01*
X15189647Y4849911D01*
X15275811Y4734812D01*
X15390910Y4648648D01*
X15525624Y4598403D01*
X15585176Y4592000D01*
X16233000Y4592000D01*
X16233000Y5692000D01*
X15133000Y5692000D01*
X9779392Y5692000D01*
X9591105Y5969703D01*
X9468085Y6114533D01*
X9468084Y6114534D01*
X7353553Y4000000D01*
X7353553Y3999999D01*
X6646447Y3999999D01*
X6646447Y4000000D01*
X4531914Y6114534D01*
X4531913Y6114534D01*
X4408894Y5969701D01*
X4211124Y5678014D01*
X4046047Y5366646D01*
X3915602Y5039253D01*
X3821323Y4699688D01*
X3764306Y4351897D01*
X3745226Y4000000D01*
X500Y4000000D01*
X500Y21940000D01*
X655000Y21940000D01*
X1755000Y21940000D01*
X1755000Y23040000D01*
X2255000Y23040000D01*
X2255000Y21940000D01*
X3355000Y21940000D01*
X3355000Y22587824D01*
X3348597Y22647376D01*
X3298352Y22782090D01*
X3212188Y22897189D01*
X3097089Y22983353D01*
X2962375Y23033598D01*
X2902824Y23040000D01*
X2255000Y23040000D01*
X1755000Y23040000D01*
X1107176Y23040000D01*
X1047624Y23033598D01*
X912910Y22983353D01*
X797811Y22897189D01*
X711647Y22782090D01*
X661402Y22647376D01*
X655000Y22587824D01*
X655000Y21940000D01*
X500Y21940000D01*
X500Y53529073D01*
X4882625Y53529073D01*
X4892906Y53519336D01*
X5173462Y53306061D01*
X5475439Y53124368D01*
X5795280Y52976394D01*
X6129255Y52863864D01*
X6473436Y52788105D01*
X6823789Y52750000D01*
X7176211Y52750000D01*
X7526563Y52788105D01*
X7870744Y52863864D01*
X8204719Y52976394D01*
X8524560Y53124368D01*
X8826537Y53306061D01*
X9107094Y53519337D01*
X9117373Y53529073D01*
X9117373Y53529074D01*
X7000000Y55646447D01*
X4882625Y53529074D01*
X4882625Y53529073D01*
X500Y53529073D01*
X500Y56000000D01*
X3745226Y56000000D01*
X3764306Y55648104D01*
X3821323Y55300313D01*
X3915602Y54960748D01*
X4046047Y54633355D01*
X4211124Y54321987D01*
X4408894Y54030298D01*
X4531913Y53885469D01*
X4531914Y53885468D01*
X6646447Y55999999D01*
X7353553Y55999999D01*
X9468084Y53885468D01*
X9468085Y53885469D01*
X9591104Y54030299D01*
X9788875Y54321987D01*
X9953952Y54633355D01*
X10084397Y54960748D01*
X10178676Y55300313D01*
X10235693Y55648104D01*
X10254773Y56000000D01*
X10242302Y56230000D01*
X37920000Y56230000D01*
X39170000Y56230000D01*
X39170000Y57230000D01*
X39670000Y57230000D01*
X39670000Y56230000D01*
X40920000Y56230000D01*
X40920000Y56777824D01*
X40913597Y56837376D01*
X40863352Y56972090D01*
X40777188Y57087189D01*
X40662089Y57173353D01*
X40527375Y57223598D01*
X40467824Y57230000D01*
X39670000Y57230000D01*
X39170000Y57230000D01*
X38372176Y57230000D01*
X38312624Y57223598D01*
X38177910Y57173353D01*
X38062811Y57087189D01*
X37976647Y56972090D01*
X37926402Y56837376D01*
X37920000Y56777824D01*
X37920000Y56230000D01*
X10242302Y56230000D01*
X10235693Y56351897D01*
X10178676Y56699688D01*
X10084397Y57039253D01*
X9953952Y57366646D01*
X9788875Y57678014D01*
X9591105Y57969703D01*
X9468085Y58114533D01*
X9468084Y58114534D01*
X7353553Y56000000D01*
X7353553Y55999999D01*
X6646447Y55999999D01*
X6646447Y56000000D01*
X4531914Y58114534D01*
X4531913Y58114534D01*
X4408894Y57969701D01*
X4211124Y57678014D01*
X4046047Y57366646D01*
X3915602Y57039253D01*
X3821323Y56699688D01*
X3764306Y56351897D01*
X3745226Y56000000D01*
X500Y56000000D01*
X500Y58470927D01*
X4882625Y58470927D01*
X7000000Y56353553D01*
X7000001Y56353553D01*
X9117374Y58470927D01*
X9117373Y58470928D01*
X9107093Y58480665D01*
X8826537Y58693940D01*
X8524560Y58875633D01*
X8204719Y59023607D01*
X7870744Y59136137D01*
X7526563Y59211896D01*
X7176211Y59250000D01*
X6823789Y59250000D01*
X6473436Y59211896D01*
X6129255Y59136137D01*
X5795280Y59023607D01*
X5475439Y58875633D01*
X5173462Y58693940D01*
X4892907Y58480667D01*
X4882625Y58470929D01*
X4882625Y58470927D01*
X500Y58470927D01*
X500Y59875500D01*
X17113Y59937500D01*
X62500Y59982887D01*
X124500Y59999500D01*
X58936000Y59999500D01*
X58998000Y59982887D01*
G37*
%TD.AperFunction*%
%TA.AperFunction,Conductor*%
G36*
X59990594Y23455489D02*
G01*
X60034912Y23416623D01*
X60059953Y23380860D01*
X60220859Y23219954D01*
X60407264Y23089433D01*
X60407265Y23089433D01*
X60407266Y23089432D01*
X60465865Y23062107D01*
X60518040Y23016350D01*
X60537460Y22949726D01*
X60518041Y22883101D01*
X60465866Y22837344D01*
X60407522Y22810137D01*
X60221180Y22679659D01*
X60060341Y22518820D01*
X59929865Y22332481D01*
X59833733Y22126327D01*
X59781128Y21930001D01*
X59781128Y21930000D01*
X61186000Y21930000D01*
X61248000Y21913387D01*
X61293387Y21868000D01*
X61310000Y21806000D01*
X61310000Y17861129D01*
X61506326Y17913734D01*
X61712480Y18009866D01*
X61898819Y18140342D01*
X61912319Y18153841D01*
X61961682Y18184091D01*
X62019398Y18188633D01*
X62072885Y18166478D01*
X62110485Y18122455D01*
X62124000Y18066160D01*
X62124000Y17932977D01*
X62114029Y17884259D01*
X62085719Y17843378D01*
X61725686Y17498939D01*
X60035957Y15882400D01*
X59996420Y15856921D01*
X59950238Y15848000D01*
X58519999Y15848000D01*
X55857200Y13946000D01*
X55096379Y13402556D01*
X54996336Y13331097D01*
X54962104Y13313915D01*
X54924262Y13308000D01*
X48868000Y13308000D01*
X30690024Y6610852D01*
X30623879Y6605412D01*
X30564402Y6634862D01*
X30528632Y6690767D01*
X30526817Y6757111D01*
X30559474Y6814886D01*
X35882770Y12138181D01*
X35922999Y12165061D01*
X35970452Y12174500D01*
X44213256Y12174500D01*
X44233762Y12172236D01*
X44236665Y12172328D01*
X44236667Y12172327D01*
X44303872Y12174439D01*
X44307768Y12174500D01*
X44335349Y12174500D01*
X44335350Y12174500D01*
X44339319Y12175002D01*
X44350965Y12175920D01*
X44394627Y12177291D01*
X44413859Y12182880D01*
X44432918Y12186826D01*
X44439196Y12187619D01*
X44452792Y12189336D01*
X44493407Y12205418D01*
X44504444Y12209197D01*
X44546390Y12221382D01*
X44563629Y12231578D01*
X44581102Y12240138D01*
X44599732Y12247514D01*
X44635064Y12273186D01*
X44644830Y12279600D01*
X44682418Y12301829D01*
X44682417Y12301829D01*
X44682420Y12301830D01*
X44696585Y12315996D01*
X44711373Y12328627D01*
X44727587Y12340406D01*
X44755438Y12374074D01*
X44763279Y12382691D01*
X49599945Y17219356D01*
X49657626Y17251990D01*
X49723878Y17250255D01*
X49779774Y17214645D01*
X49790428Y17202812D01*
X49943568Y17091550D01*
X50116496Y17014557D01*
X50262147Y16983598D01*
X50321250Y16952701D01*
X50355799Y16895655D01*
X50355799Y16828962D01*
X50321251Y16771916D01*
X50262148Y16741018D01*
X50112197Y16709145D01*
X49939269Y16632152D01*
X49786129Y16520890D01*
X49659466Y16380217D01*
X49564820Y16216285D01*
X49506326Y16036258D01*
X49486540Y15848000D01*
X49506326Y15659743D01*
X49564820Y15479716D01*
X49659466Y15315784D01*
X49786129Y15175111D01*
X49939269Y15063849D01*
X50112197Y14986856D01*
X50297352Y14947500D01*
X50297354Y14947500D01*
X50486646Y14947500D01*
X50486648Y14947500D01*
X50671800Y14986855D01*
X50671801Y14986856D01*
X50671803Y14986856D01*
X50806556Y15046853D01*
X50864438Y15057349D01*
X50920648Y15039985D01*
X50962528Y14998669D01*
X51005288Y14929343D01*
X51129342Y14805289D01*
X51142074Y14797436D01*
X51278666Y14713186D01*
X51373132Y14681883D01*
X51445202Y14658001D01*
X51455702Y14656929D01*
X51547991Y14647500D01*
X52348008Y14647501D01*
X52450797Y14658001D01*
X52617334Y14713186D01*
X52766656Y14805288D01*
X52860320Y14898953D01*
X52915906Y14931045D01*
X52980094Y14931045D01*
X53035679Y14898953D01*
X53086703Y14847929D01*
X53129345Y14805287D01*
X53142074Y14797436D01*
X53278666Y14713186D01*
X53373132Y14681883D01*
X53445202Y14658001D01*
X53455702Y14656929D01*
X53547991Y14647500D01*
X54348008Y14647501D01*
X54450797Y14658001D01*
X54617334Y14713186D01*
X54766656Y14805288D01*
X54890712Y14929344D01*
X54982814Y15078666D01*
X55037999Y15245203D01*
X55048500Y15347991D01*
X55048499Y15835772D01*
X55057938Y15883224D01*
X55084815Y15923449D01*
X58051366Y18890000D01*
X59781128Y18890000D01*
X59833733Y18693674D01*
X59929865Y18487520D01*
X60060341Y18301181D01*
X60221180Y18140342D01*
X60407519Y18009866D01*
X60613673Y17913734D01*
X60809999Y17861129D01*
X60810000Y17861128D01*
X60810000Y18890000D01*
X59781128Y18890000D01*
X58051366Y18890000D01*
X58497642Y19336276D01*
X58511260Y19348046D01*
X58530530Y19362390D01*
X58562376Y19400344D01*
X58569662Y19408296D01*
X58573591Y19412223D01*
X58592833Y19436561D01*
X58595090Y19439330D01*
X58609853Y19456925D01*
X58643302Y19496786D01*
X58643303Y19496789D01*
X58644115Y19497756D01*
X58654573Y19514173D01*
X58655106Y19515318D01*
X58655111Y19515323D01*
X58686833Y19583354D01*
X58688362Y19586512D01*
X58722040Y19653567D01*
X58722040Y19653568D01*
X58722612Y19654706D01*
X58729000Y19673086D01*
X58729255Y19674325D01*
X58729257Y19674327D01*
X58744447Y19747897D01*
X58745186Y19751230D01*
X58762500Y19824279D01*
X58762500Y19824283D01*
X58762791Y19825511D01*
X58764770Y19844879D01*
X58764733Y19846141D01*
X58764734Y19846144D01*
X58762552Y19921131D01*
X58762500Y19924737D01*
X58762500Y21430000D01*
X59781128Y21430000D01*
X59833733Y21233674D01*
X59929865Y21027520D01*
X60060341Y20841181D01*
X60221180Y20680342D01*
X60407519Y20549866D01*
X60466456Y20522382D01*
X60518632Y20476625D01*
X60538051Y20410000D01*
X60518632Y20343375D01*
X60466456Y20297618D01*
X60407519Y20270135D01*
X60221180Y20139659D01*
X60060341Y19978820D01*
X59929865Y19792481D01*
X59833733Y19586327D01*
X59781128Y19390001D01*
X59781128Y19390000D01*
X60810000Y19390000D01*
X60810000Y21430000D01*
X59781128Y21430000D01*
X58762500Y21430000D01*
X58762500Y22597770D01*
X58771939Y22645223D01*
X58798819Y22685451D01*
X59546549Y23433181D01*
X59586777Y23460061D01*
X59634230Y23469500D01*
X59933337Y23469500D01*
X59990594Y23455489D01*
G37*
%TD.AperFunction*%
%TA.AperFunction,Conductor*%
G36*
X33984570Y17266728D02*
G01*
X34017500Y17211048D01*
X34017906Y17146360D01*
X33985679Y17090271D01*
X31958444Y15063036D01*
X31901461Y15030577D01*
X31835891Y15031722D01*
X31780075Y15066150D01*
X31749625Y15124232D01*
X31753057Y15189722D01*
X31794506Y15314806D01*
X31805000Y15417521D01*
X31805000Y15555000D01*
X30830000Y15555000D01*
X30830000Y14717501D01*
X31104979Y14717501D01*
X31207695Y14727994D01*
X31332779Y14769443D01*
X31398269Y14772875D01*
X31456350Y14742425D01*
X31490778Y14686609D01*
X31491923Y14621039D01*
X31459464Y14564056D01*
X27055228Y10159819D01*
X27015000Y10132939D01*
X26967547Y10123500D01*
X23168230Y10123500D01*
X23111935Y10137015D01*
X23067912Y10174615D01*
X23045757Y10228102D01*
X23050299Y10285818D01*
X23080549Y10335181D01*
X23352214Y10606847D01*
X23445642Y10700276D01*
X23459260Y10712046D01*
X23478530Y10726390D01*
X23510376Y10764344D01*
X23517662Y10772296D01*
X23521591Y10776223D01*
X23540833Y10800561D01*
X23543090Y10803330D01*
X23557853Y10820925D01*
X23591302Y10860786D01*
X23591303Y10860789D01*
X23592115Y10861756D01*
X23602573Y10878173D01*
X23603106Y10879318D01*
X23603111Y10879323D01*
X23634833Y10947354D01*
X23636362Y10950512D01*
X23670040Y11017567D01*
X23670040Y11017568D01*
X23670612Y11018706D01*
X23677000Y11037086D01*
X23677255Y11038325D01*
X23677257Y11038327D01*
X23692447Y11111897D01*
X23693186Y11115230D01*
X23710500Y11188279D01*
X23710500Y11188283D01*
X23710791Y11189511D01*
X23712770Y11208879D01*
X23712733Y11210141D01*
X23712734Y11210144D01*
X23710552Y11285131D01*
X23710500Y11288737D01*
X23710500Y13946000D01*
X23727113Y14008000D01*
X23772500Y14053387D01*
X23834500Y14070000D01*
X29310000Y14070000D01*
X29310000Y14902476D01*
X29323515Y14958771D01*
X29361115Y15002794D01*
X29414602Y15024949D01*
X29472318Y15020407D01*
X29521681Y14990157D01*
X29636654Y14875184D01*
X29785877Y14783143D01*
X29952303Y14727994D01*
X30055021Y14717500D01*
X30330000Y14717500D01*
X30330000Y15931000D01*
X30346613Y15993000D01*
X30392000Y16038387D01*
X30454000Y16055000D01*
X31804999Y16055000D01*
X31804999Y16192479D01*
X31794506Y16295196D01*
X31739357Y16461623D01*
X31647316Y16610846D01*
X31523344Y16734818D01*
X31520343Y16736669D01*
X31477161Y16781777D01*
X31461440Y16842211D01*
X31477166Y16902644D01*
X31520347Y16947748D01*
X31523656Y16949788D01*
X31647712Y17073844D01*
X31722808Y17195596D01*
X31767916Y17238777D01*
X31828348Y17254500D01*
X33545256Y17254500D01*
X33565762Y17252236D01*
X33568665Y17252328D01*
X33568667Y17252327D01*
X33635872Y17254439D01*
X33639768Y17254500D01*
X33667349Y17254500D01*
X33667350Y17254500D01*
X33671319Y17255002D01*
X33682965Y17255920D01*
X33726627Y17257291D01*
X33745859Y17262880D01*
X33764918Y17266826D01*
X33771196Y17267619D01*
X33784792Y17269336D01*
X33825407Y17285418D01*
X33836452Y17289198D01*
X33863403Y17297028D01*
X33928080Y17298248D01*
X33984570Y17266728D01*
G37*
%TD.AperFunction*%
%TA.AperFunction,Conductor*%
G36*
X19765569Y13308876D02*
G01*
X19807181Y13278826D01*
X19821268Y13254694D01*
X19822578Y13255501D01*
X19922288Y13093843D01*
X20046340Y12969791D01*
X20046342Y12969790D01*
X20046344Y12969788D01*
X20049652Y12967748D01*
X20092834Y12922643D01*
X20108559Y12862211D01*
X20092838Y12801779D01*
X20049659Y12756670D01*
X20046654Y12754817D01*
X19922683Y12630846D01*
X19830642Y12481623D01*
X19775493Y12315197D01*
X19765000Y12212479D01*
X19765000Y12075000D01*
X21116000Y12075000D01*
X21178000Y12058387D01*
X21223387Y12013000D01*
X21240000Y11951000D01*
X21240000Y11699000D01*
X21223387Y11637000D01*
X21178000Y11591613D01*
X21116000Y11575000D01*
X19765001Y11575000D01*
X19765001Y11437521D01*
X19775493Y11334805D01*
X19828944Y11173504D01*
X19833795Y11115637D01*
X19811768Y11061907D01*
X19767694Y11024097D01*
X19711238Y11010500D01*
X19375200Y11010500D01*
X19319775Y11023576D01*
X19276039Y11060048D01*
X19253218Y11112222D01*
X19256124Y11169095D01*
X19287597Y11277428D01*
X19287596Y11277428D01*
X19287598Y11277431D01*
X19290500Y11314306D01*
X19290500Y11745694D01*
X19287598Y11782569D01*
X19241744Y11940398D01*
X19158081Y12081865D01*
X19158080Y12081866D01*
X19150107Y12095348D01*
X19151680Y12096279D01*
X19130533Y12132906D01*
X19130533Y12197094D01*
X19151680Y12233722D01*
X19150107Y12234652D01*
X19172894Y12273183D01*
X19241744Y12389602D01*
X19287598Y12547431D01*
X19290500Y12584306D01*
X19290500Y13015694D01*
X19287598Y13052569D01*
X19284219Y13064200D01*
X19256124Y13160905D01*
X19253218Y13217778D01*
X19276039Y13269952D01*
X19319775Y13306424D01*
X19375200Y13319500D01*
X19715351Y13319500D01*
X19765569Y13308876D01*
G37*
%TD.AperFunction*%
%TA.AperFunction,Conductor*%
G36*
X10956000Y19562387D02*
G01*
X11001387Y19517000D01*
X11018000Y19455000D01*
X11018000Y18229001D01*
X11267979Y18229001D01*
X11370695Y18239494D01*
X11537122Y18294643D01*
X11686345Y18386684D01*
X11810316Y18510655D01*
X11879838Y18623369D01*
X11931342Y18669881D01*
X11999771Y18681435D01*
X12063692Y18654412D01*
X12103083Y18597277D01*
X12148186Y18461166D01*
X12240288Y18311843D01*
X12364340Y18187791D01*
X12364342Y18187790D01*
X12364344Y18187788D01*
X12367652Y18185748D01*
X12410834Y18140643D01*
X12426559Y18080211D01*
X12410838Y18019779D01*
X12367659Y17974670D01*
X12364654Y17972817D01*
X12240683Y17848846D01*
X12148642Y17699623D01*
X12093493Y17533197D01*
X12083000Y17430479D01*
X12083000Y17293000D01*
X15466000Y17293000D01*
X15528000Y17276387D01*
X15573387Y17231000D01*
X15590000Y17169000D01*
X15590000Y15955501D01*
X15864979Y15955501D01*
X15976899Y15966934D01*
X16044075Y15954920D01*
X16094722Y15909184D01*
X16113500Y15843576D01*
X16113500Y15084706D01*
X16112191Y15066736D01*
X16108711Y15042977D01*
X16113028Y14993631D01*
X16113500Y14982824D01*
X16113500Y14977292D01*
X16117098Y14946504D01*
X16117464Y14942919D01*
X16120622Y14906819D01*
X16124110Y14866959D01*
X16128329Y14847929D01*
X16128758Y14846749D01*
X16128759Y14846745D01*
X16154413Y14776258D01*
X16155582Y14772893D01*
X16179580Y14700476D01*
X16188075Y14682928D01*
X16229979Y14619216D01*
X16231889Y14616218D01*
X16268519Y14556834D01*
X16271952Y14551268D01*
X16284253Y14536169D01*
X16323472Y14499167D01*
X16358020Y14441555D01*
X16357454Y14374381D01*
X16342402Y14322571D01*
X16339500Y14285691D01*
X16339500Y13854308D01*
X16342402Y13817428D01*
X16388255Y13659603D01*
X16479893Y13504652D01*
X16478319Y13503722D01*
X16499467Y13467094D01*
X16499467Y13402906D01*
X16478319Y13366279D01*
X16479893Y13365348D01*
X16388255Y13210398D01*
X16342402Y13052573D01*
X16340937Y13033950D01*
X16339628Y13017314D01*
X16339500Y13015692D01*
X16339500Y12584308D01*
X16342402Y12547428D01*
X16388255Y12389603D01*
X16479893Y12234652D01*
X16478319Y12233722D01*
X16499467Y12197094D01*
X16499467Y12132906D01*
X16478319Y12096279D01*
X16479893Y12095348D01*
X16388255Y11940398D01*
X16342402Y11782573D01*
X16339500Y11745692D01*
X16339500Y11314308D01*
X16342402Y11277428D01*
X16373876Y11169095D01*
X16376782Y11112222D01*
X16353961Y11060048D01*
X16310225Y11023576D01*
X16254800Y11010500D01*
X14425200Y11010500D01*
X14369775Y11023576D01*
X14326039Y11060048D01*
X14303218Y11112222D01*
X14306124Y11169095D01*
X14337597Y11277428D01*
X14337596Y11277428D01*
X14337598Y11277431D01*
X14340500Y11314306D01*
X14340500Y11745694D01*
X14337598Y11782569D01*
X14291744Y11940398D01*
X14208081Y12081865D01*
X14208080Y12081866D01*
X14200107Y12095348D01*
X14201569Y12096214D01*
X14180178Y12133267D01*
X14180182Y12197460D01*
X14201296Y12234021D01*
X14199709Y12234960D01*
X14291280Y12389800D01*
X14337099Y12547512D01*
X14337295Y12550000D01*
X12739000Y12550000D01*
X12677000Y12566613D01*
X12631613Y12612000D01*
X12615000Y12674000D01*
X12615000Y12926000D01*
X12631613Y12988000D01*
X12677000Y13033387D01*
X12739000Y13050000D01*
X14337295Y13050000D01*
X14337295Y13050001D01*
X14337099Y13052489D01*
X14291280Y13210201D01*
X14199709Y13365040D01*
X14201296Y13365980D01*
X14180179Y13402556D01*
X14180182Y13466746D01*
X14201569Y13503787D01*
X14200107Y13504651D01*
X14260244Y13606338D01*
X14291744Y13659602D01*
X14337598Y13817431D01*
X14340500Y13854306D01*
X14340500Y14285694D01*
X14337598Y14322569D01*
X14331146Y14344775D01*
X14291744Y14480398D01*
X14210534Y14617717D01*
X14208081Y14621865D01*
X14091865Y14738081D01*
X14038835Y14769443D01*
X13950397Y14821745D01*
X13792572Y14867598D01*
X13770444Y14869340D01*
X13755694Y14870500D01*
X11974306Y14870500D01*
X11962014Y14869533D01*
X11937427Y14867598D01*
X11792268Y14825424D01*
X11757673Y14820500D01*
X11366248Y14820500D01*
X11305816Y14836223D01*
X11273863Y14866811D01*
X11272961Y14865908D01*
X11138657Y15000212D01*
X10989334Y15092314D01*
X10822797Y15147500D01*
X10720009Y15158000D01*
X9669991Y15158000D01*
X9567203Y15147500D01*
X9400665Y15092314D01*
X9251342Y15000212D01*
X9117039Y14865908D01*
X9116136Y14866811D01*
X9084184Y14836223D01*
X9023752Y14820500D01*
X8826248Y14820500D01*
X8765816Y14836223D01*
X8733863Y14866811D01*
X8732961Y14865908D01*
X8598657Y15000212D01*
X8449334Y15092314D01*
X8282797Y15147500D01*
X8180009Y15158000D01*
X7129991Y15158000D01*
X7027203Y15147500D01*
X6860665Y15092314D01*
X6711342Y15000212D01*
X6587288Y14876158D01*
X6495186Y14726835D01*
X6440000Y14560298D01*
X6429500Y14457510D01*
X6429500Y13682492D01*
X6440000Y13579704D01*
X6495186Y13413166D01*
X6587288Y13263843D01*
X6711344Y13139787D01*
X6714181Y13138037D01*
X6757360Y13092931D01*
X6773082Y13032500D01*
X6757360Y12972069D01*
X6714181Y12926963D01*
X6711344Y12925214D01*
X6587288Y12801158D01*
X6495186Y12651835D01*
X6440000Y12485298D01*
X6435826Y12444434D01*
X6410015Y12380482D01*
X6354030Y12340210D01*
X6285189Y12336075D01*
X6224787Y12369356D01*
X5458819Y13135324D01*
X5431939Y13175552D01*
X5422500Y13223005D01*
X5422500Y13879294D01*
X5423809Y13897264D01*
X5424338Y13900882D01*
X5427289Y13921023D01*
X5422972Y13970369D01*
X5422500Y13981176D01*
X5422500Y13986711D01*
X5418903Y14017479D01*
X5418536Y14021071D01*
X5414256Y14070000D01*
X5411999Y14095797D01*
X5411998Y14095799D01*
X5411889Y14097051D01*
X5407672Y14116070D01*
X5381592Y14187726D01*
X5380408Y14191132D01*
X5375890Y14204765D01*
X5356814Y14262334D01*
X5356812Y14262337D01*
X5356415Y14263536D01*
X5347929Y14281064D01*
X5347237Y14282116D01*
X5347237Y14282117D01*
X5306001Y14344812D01*
X5304086Y14347819D01*
X5264712Y14411655D01*
X5264711Y14411656D01*
X5264048Y14412731D01*
X5251748Y14427830D01*
X5196272Y14480169D01*
X5193685Y14482682D01*
X3377869Y16298499D01*
X3349028Y16343770D01*
X3342022Y16396988D01*
X3348717Y16473500D01*
X3360659Y16610000D01*
X3344648Y16793000D01*
X12083001Y16793000D01*
X12083001Y16655521D01*
X12093493Y16552805D01*
X12148642Y16386378D01*
X12240683Y16237155D01*
X12364654Y16113184D01*
X12513877Y16021143D01*
X12680303Y15965994D01*
X12783021Y15955500D01*
X13058000Y15955500D01*
X13058000Y16793000D01*
X13558000Y16793000D01*
X13558000Y15955501D01*
X13832979Y15955501D01*
X13935695Y15965994D01*
X14102120Y16021142D01*
X14258903Y16117846D01*
X14324000Y16136307D01*
X14389097Y16117846D01*
X14545879Y16021142D01*
X14712303Y15965994D01*
X14815021Y15955500D01*
X15090000Y15955500D01*
X15090000Y16793000D01*
X13558000Y16793000D01*
X13058000Y16793000D01*
X12083001Y16793000D01*
X3344648Y16793000D01*
X3340063Y16845408D01*
X3278903Y17073663D01*
X3179035Y17287829D01*
X3043495Y17481401D01*
X2876401Y17648495D01*
X2690839Y17778427D01*
X2651975Y17822743D01*
X2637964Y17880000D01*
X2651975Y17937257D01*
X2690839Y17981574D01*
X2876401Y18111505D01*
X3043495Y18278599D01*
X3091127Y18346626D01*
X3135444Y18385489D01*
X3192701Y18399500D01*
X7887757Y18399500D01*
X7952853Y18381039D01*
X8008650Y18346624D01*
X8093666Y18294186D01*
X8190797Y18262000D01*
X8260202Y18239001D01*
X8270703Y18237929D01*
X8362991Y18228500D01*
X9363008Y18228501D01*
X9465797Y18239001D01*
X9632334Y18294186D01*
X9750880Y18367306D01*
X9815975Y18385767D01*
X9881072Y18367306D01*
X9998879Y18294642D01*
X10165303Y18239494D01*
X10268021Y18229000D01*
X10518000Y18229000D01*
X10518000Y19455000D01*
X10534613Y19517000D01*
X10580000Y19562387D01*
X10642000Y19579000D01*
X10894000Y19579000D01*
X10956000Y19562387D01*
G37*
%TD.AperFunction*%
%TA.AperFunction,Conductor*%
G36*
X19519931Y26031701D02*
G01*
X22173181Y23378451D01*
X22200061Y23338223D01*
X22209500Y23290770D01*
X22209500Y14853731D01*
X22195985Y14797436D01*
X22158385Y14753413D01*
X22104898Y14731258D01*
X22047182Y14735800D01*
X21997819Y14766050D01*
X21933657Y14830212D01*
X21784334Y14922314D01*
X21617797Y14977500D01*
X21515009Y14988000D01*
X20464991Y14988000D01*
X20362203Y14977500D01*
X20195665Y14922314D01*
X20060528Y14838961D01*
X19995432Y14820500D01*
X19934721Y14820500D01*
X18922327Y14820500D01*
X18887732Y14825424D01*
X18742572Y14867598D01*
X18720444Y14869340D01*
X18705694Y14870500D01*
X18705692Y14870500D01*
X18127230Y14870500D01*
X18079777Y14879939D01*
X18039549Y14906819D01*
X17650819Y15295549D01*
X17623939Y15335777D01*
X17614500Y15383230D01*
X17614500Y15658846D01*
X17628097Y15715302D01*
X17665907Y15759376D01*
X17719638Y15781403D01*
X17777504Y15776553D01*
X17785203Y15774001D01*
X17887991Y15763500D01*
X18888008Y15763501D01*
X18990797Y15774001D01*
X19093712Y15808104D01*
X19140880Y15814128D01*
X19186852Y15801953D01*
X19224861Y15773369D01*
X19306129Y15683111D01*
X19459269Y15571849D01*
X19632197Y15494856D01*
X19817352Y15455500D01*
X19817354Y15455500D01*
X20006646Y15455500D01*
X20006648Y15455500D01*
X20130084Y15481738D01*
X20191803Y15494856D01*
X20364730Y15571849D01*
X20517871Y15683112D01*
X20644533Y15823784D01*
X20739179Y15987716D01*
X20797674Y16167744D01*
X20817460Y16356000D01*
X20797674Y16544256D01*
X20755590Y16673777D01*
X20739179Y16724285D01*
X20644533Y16888217D01*
X20517870Y17028890D01*
X20364730Y17140152D01*
X20191802Y17217145D01*
X20006648Y17256500D01*
X20006646Y17256500D01*
X19948867Y17256500D01*
X19903219Y17265208D01*
X19863983Y17290108D01*
X19840775Y17311902D01*
X19837978Y17314613D01*
X19818470Y17334121D01*
X19815290Y17336588D01*
X19806424Y17344161D01*
X19774582Y17374062D01*
X19757024Y17383715D01*
X19740764Y17394396D01*
X19724936Y17406673D01*
X19684851Y17424020D01*
X19674361Y17429159D01*
X19636091Y17450198D01*
X19616691Y17455179D01*
X19598283Y17461481D01*
X19588961Y17465515D01*
X19546736Y17495597D01*
X19531457Y17521638D01*
X19530422Y17520999D01*
X19430713Y17682655D01*
X19413745Y17699623D01*
X19337047Y17776321D01*
X19304955Y17831906D01*
X19304955Y17896094D01*
X19337047Y17951680D01*
X19430712Y18045344D01*
X19522814Y18194666D01*
X19577999Y18361203D01*
X19588500Y18463991D01*
X19588499Y19264008D01*
X19584142Y19306656D01*
X19577999Y19366797D01*
X19577344Y19368775D01*
X19522814Y19533334D01*
X19465995Y19625453D01*
X19440736Y19666405D01*
X19422275Y19731501D01*
X19440734Y19796594D01*
X19522814Y19929666D01*
X19577999Y20096203D01*
X19588500Y20198991D01*
X19588499Y20999008D01*
X19586198Y21021529D01*
X19577999Y21101797D01*
X19544613Y21202548D01*
X19522814Y21268334D01*
X19449760Y21386774D01*
X19430713Y21417655D01*
X19388151Y21460217D01*
X19336693Y21511675D01*
X19304601Y21567260D01*
X19304601Y21631448D01*
X19336696Y21687036D01*
X19430316Y21780656D01*
X19522357Y21929878D01*
X19577506Y22096304D01*
X19588000Y22199021D01*
X19588000Y22349000D01*
X18262000Y22349000D01*
X18200000Y22365613D01*
X18154613Y22411000D01*
X18138000Y22473000D01*
X18138000Y23698999D01*
X17888021Y23698999D01*
X17785304Y23688507D01*
X17618877Y23633358D01*
X17469654Y23541317D01*
X17445181Y23516843D01*
X17395818Y23486593D01*
X17338102Y23482051D01*
X17284615Y23504206D01*
X17247015Y23548229D01*
X17233500Y23604524D01*
X17233500Y23699000D01*
X18638000Y23699000D01*
X18638000Y22849000D01*
X19587999Y22849000D01*
X19587999Y22998979D01*
X19577506Y23101696D01*
X19522357Y23268123D01*
X19430316Y23417346D01*
X19306345Y23541317D01*
X19157122Y23633358D01*
X18990696Y23688507D01*
X18887979Y23699000D01*
X18638000Y23699000D01*
X17233500Y23699000D01*
X17233500Y23964294D01*
X17234809Y23982264D01*
X17236252Y23992117D01*
X17238289Y24006023D01*
X17233972Y24055369D01*
X17233500Y24066176D01*
X17233500Y24071711D01*
X17229903Y24102479D01*
X17229536Y24106071D01*
X17224151Y24167623D01*
X17222999Y24180797D01*
X17222998Y24180799D01*
X17222889Y24182051D01*
X17218672Y24201070D01*
X17192592Y24272726D01*
X17191408Y24276132D01*
X17179123Y24313206D01*
X17167814Y24347334D01*
X17167812Y24347337D01*
X17167415Y24348536D01*
X17158929Y24366064D01*
X17158237Y24367116D01*
X17158237Y24367117D01*
X17117001Y24429812D01*
X17115086Y24432819D01*
X17114354Y24434005D01*
X17075712Y24496655D01*
X17075711Y24496656D01*
X17075047Y24497733D01*
X17062748Y24512831D01*
X17007275Y24565167D01*
X17004688Y24567680D01*
X16423728Y25148640D01*
X16411946Y25162273D01*
X16397609Y25181531D01*
X16359666Y25213369D01*
X16351691Y25220677D01*
X16347782Y25224586D01*
X16347777Y25224591D01*
X16323423Y25243848D01*
X16320648Y25246109D01*
X16310636Y25254510D01*
X16275370Y25303048D01*
X16267020Y25362461D01*
X16287540Y25418840D01*
X16332126Y25458985D01*
X16390341Y25473500D01*
X16698692Y25473500D01*
X16698694Y25473500D01*
X16735569Y25476402D01*
X16893398Y25522256D01*
X17034865Y25605919D01*
X17151081Y25722135D01*
X17234744Y25863602D01*
X17259364Y25948346D01*
X17287114Y25997626D01*
X17333866Y26029459D01*
X17389892Y26037217D01*
X17443535Y26019286D01*
X17549978Y25953633D01*
X17593666Y25926686D01*
X17705016Y25889788D01*
X17760202Y25871501D01*
X17770702Y25870429D01*
X17862991Y25861000D01*
X18913008Y25861001D01*
X19015797Y25871501D01*
X19182334Y25926686D01*
X19331656Y26018788D01*
X19344566Y26031699D01*
X19400155Y26063794D01*
X19464343Y26063795D01*
X19519931Y26031701D01*
G37*
%TD.AperFunction*%
%TA.AperFunction,Conductor*%
G36*
X40725505Y22760114D02*
G01*
X40769267Y22723540D01*
X40836343Y22633936D01*
X40852019Y22595158D01*
X40853570Y22595771D01*
X40875414Y22540596D01*
X40879197Y22529549D01*
X40891382Y22487609D01*
X40901580Y22470365D01*
X40910136Y22452900D01*
X40917514Y22434268D01*
X40919020Y22432195D01*
X40943180Y22398941D01*
X40949593Y22389178D01*
X40971826Y22351584D01*
X40971829Y22351581D01*
X40971830Y22351580D01*
X40985995Y22337415D01*
X40998627Y22322625D01*
X41010406Y22306413D01*
X41041725Y22280504D01*
X41044057Y22278575D01*
X41052698Y22270712D01*
X41255198Y22068211D01*
X41268096Y22052112D01*
X41319225Y22004098D01*
X41322021Y22001388D01*
X41341529Y21981880D01*
X41344711Y21979412D01*
X41353571Y21971845D01*
X41362508Y21963452D01*
X41385418Y21941938D01*
X41402970Y21932289D01*
X41419238Y21921603D01*
X41435064Y21909327D01*
X41475146Y21891983D01*
X41485633Y21886845D01*
X41523907Y21865803D01*
X41532410Y21863621D01*
X41543308Y21860822D01*
X41561713Y21854522D01*
X41580104Y21846563D01*
X41623250Y21839730D01*
X41634668Y21837365D01*
X41676981Y21826500D01*
X41697016Y21826500D01*
X41716415Y21824973D01*
X41736196Y21821840D01*
X41779674Y21825950D01*
X41791344Y21826500D01*
X44635024Y21826500D01*
X44694761Y21811162D01*
X44739721Y21768943D01*
X44758779Y21710286D01*
X44747223Y21649704D01*
X44707910Y21602182D01*
X44706128Y21600888D01*
X44579466Y21460217D01*
X44484820Y21296285D01*
X44426326Y21116258D01*
X44408678Y20948349D01*
X44397277Y20907927D01*
X44373038Y20873630D01*
X41025228Y17525819D01*
X40985000Y17498939D01*
X40937547Y17489500D01*
X39993991Y17489500D01*
X39937535Y17503097D01*
X39893461Y17540907D01*
X39871434Y17594637D01*
X39876285Y17652504D01*
X39912006Y17760304D01*
X39922500Y17863021D01*
X39922500Y18138000D01*
X38709000Y18138000D01*
X38647000Y18154613D01*
X38601613Y18200000D01*
X38585000Y18262000D01*
X38585000Y18514000D01*
X38601613Y18576000D01*
X38647000Y18621387D01*
X38709000Y18638000D01*
X39922499Y18638000D01*
X39922499Y18912979D01*
X39912006Y19015696D01*
X39856857Y19182123D01*
X39764816Y19331346D01*
X39640845Y19455317D01*
X39491622Y19547358D01*
X39325196Y19602507D01*
X39222479Y19613000D01*
X39211750Y19613000D01*
X39146040Y19631842D01*
X39100300Y19682641D01*
X39088429Y19749960D01*
X39103321Y19891657D01*
X39114720Y19932073D01*
X39138957Y19966368D01*
X40107789Y20935200D01*
X40123885Y20948094D01*
X40125873Y20950213D01*
X40125877Y20950214D01*
X40171948Y20999277D01*
X40174566Y21001977D01*
X40194120Y21021529D01*
X40196581Y21024702D01*
X40204156Y21033573D01*
X40234062Y21065418D01*
X40243717Y21082982D01*
X40254394Y21099236D01*
X40266673Y21115064D01*
X40284018Y21155148D01*
X40289160Y21165644D01*
X40310197Y21203908D01*
X40315179Y21223316D01*
X40321481Y21241720D01*
X40329437Y21260104D01*
X40336269Y21303248D01*
X40338633Y21314662D01*
X40349500Y21356981D01*
X40349500Y21377016D01*
X40351027Y21396415D01*
X40351530Y21399594D01*
X40354160Y21416196D01*
X40350050Y21459675D01*
X40349500Y21471344D01*
X40349500Y22368138D01*
X40358939Y22415591D01*
X40385819Y22455819D01*
X40420000Y22490000D01*
X40420000Y22508590D01*
X40433116Y22564094D01*
X40469689Y22607856D01*
X40502543Y22632452D01*
X40502542Y22632452D01*
X40502546Y22632454D01*
X40570735Y22723543D01*
X40614496Y22760114D01*
X40670000Y22773230D01*
X40725505Y22760114D01*
G37*
%TD.AperFunction*%
%TA.AperFunction,Conductor*%
G36*
X52152000Y27922061D02*
G01*
X52192229Y27895181D01*
X52270182Y27817227D01*
X52297061Y27776998D01*
X52306500Y27729546D01*
X52306500Y23270452D01*
X52297061Y23222999D01*
X52270181Y23182771D01*
X50594181Y21506772D01*
X50544818Y21476522D01*
X50487102Y21471980D01*
X50433615Y21494135D01*
X50396015Y21538158D01*
X50382500Y21594453D01*
X50382500Y24274256D01*
X50384764Y24294764D01*
X50382561Y24364887D01*
X50382500Y24368781D01*
X50382500Y24396346D01*
X50382500Y24396350D01*
X50381997Y24400330D01*
X50381081Y24411972D01*
X50379710Y24455627D01*
X50374118Y24474874D01*
X50370174Y24493915D01*
X50367664Y24513792D01*
X50351579Y24554417D01*
X50347808Y24565432D01*
X50335618Y24607390D01*
X50325414Y24624645D01*
X50316861Y24642105D01*
X50309486Y24660731D01*
X50309486Y24660732D01*
X50283808Y24696075D01*
X50277401Y24705829D01*
X50267441Y24722670D01*
X50255170Y24743420D01*
X50241005Y24757585D01*
X50228367Y24772383D01*
X50216595Y24788587D01*
X50182941Y24816427D01*
X50174299Y24824291D01*
X48878771Y26119820D01*
X48848521Y26169183D01*
X48843979Y26226899D01*
X48866134Y26280386D01*
X48910157Y26317986D01*
X48966447Y26331501D01*
X49744008Y26331501D01*
X49744009Y26331501D01*
X49795402Y26336752D01*
X49846797Y26342001D01*
X50013334Y26397186D01*
X50162656Y26489288D01*
X50286712Y26613344D01*
X50378814Y26762666D01*
X50433999Y26929203D01*
X50444500Y27031991D01*
X50444499Y27807501D01*
X50461112Y27869500D01*
X50506499Y27914887D01*
X50568499Y27931500D01*
X52104547Y27931500D01*
X52152000Y27922061D01*
G37*
%TD.AperFunction*%
%TA.AperFunction,Conductor*%
G36*
X6116500Y30203294D02*
G01*
X6161887Y30157907D01*
X6225466Y30047784D01*
X6352129Y29907111D01*
X6505269Y29795849D01*
X6678197Y29718856D01*
X6863352Y29679500D01*
X6863354Y29679500D01*
X7052646Y29679500D01*
X7052647Y29679500D01*
X7104929Y29690613D01*
X7177112Y29705957D01*
X7227484Y29706203D01*
X7273798Y29686393D01*
X7289372Y29669926D01*
X7291039Y29671592D01*
X7425342Y29537289D01*
X7425517Y29537181D01*
X7574666Y29445186D01*
X7676390Y29411478D01*
X7741202Y29390001D01*
X7751703Y29388929D01*
X7843991Y29379500D01*
X8644008Y29379501D01*
X8746797Y29390001D01*
X8913334Y29445186D01*
X9062656Y29537288D01*
X9156320Y29630953D01*
X9211906Y29663045D01*
X9276094Y29663045D01*
X9331679Y29630953D01*
X9389132Y29573500D01*
X9425345Y29537287D01*
X9425517Y29537181D01*
X9574666Y29445186D01*
X9584497Y29441929D01*
X9636915Y29407996D01*
X9666150Y29352819D01*
X9664787Y29290391D01*
X9633173Y29236542D01*
X8377358Y27980728D01*
X8363727Y27968947D01*
X8344467Y27954608D01*
X8312633Y27916671D01*
X8305341Y27908711D01*
X8301408Y27904778D01*
X8282176Y27880455D01*
X8279902Y27877663D01*
X8230894Y27819256D01*
X8220418Y27802813D01*
X8188192Y27733706D01*
X8186622Y27730464D01*
X8152393Y27662308D01*
X8145996Y27643902D01*
X8130573Y27569212D01*
X8129793Y27565695D01*
X8112208Y27491495D01*
X8110229Y27472122D01*
X8112448Y27395869D01*
X8112500Y27392263D01*
X8112500Y26927958D01*
X8096777Y26867526D01*
X8053596Y26822419D01*
X8044342Y26816712D01*
X7920288Y26692658D01*
X7828186Y26543335D01*
X7773000Y26376798D01*
X7762500Y26274010D01*
X7762500Y25273992D01*
X7773000Y25171204D01*
X7828186Y25004666D01*
X7901011Y24886597D01*
X7919472Y24821501D01*
X7901011Y24756405D01*
X7828186Y24638335D01*
X7773000Y24471798D01*
X7762500Y24369010D01*
X7762500Y23368992D01*
X7773000Y23266204D01*
X7828186Y23099666D01*
X7920288Y22950343D01*
X8044342Y22826289D01*
X8053598Y22820580D01*
X8193666Y22734186D01*
X8270294Y22708794D01*
X8360202Y22679001D01*
X8364047Y22678609D01*
X8381185Y22676858D01*
X8439458Y22655250D01*
X8479927Y22608080D01*
X8492425Y22547198D01*
X8473811Y22487899D01*
X8428762Y22445081D01*
X8368595Y22429500D01*
X8362996Y22429500D01*
X8260203Y22419000D01*
X8093665Y22363814D01*
X7944342Y22271712D01*
X7820288Y22147658D01*
X7728187Y21998336D01*
X7728186Y21998334D01*
X7716840Y21964094D01*
X7673656Y21833775D01*
X7639723Y21781357D01*
X7584546Y21752122D01*
X7522118Y21753485D01*
X7468269Y21785099D01*
X5966819Y23286549D01*
X5939939Y23326777D01*
X5930500Y23374230D01*
X5930500Y30095907D01*
X5947113Y30157907D01*
X5992500Y30203294D01*
X6054500Y30219907D01*
X6116500Y30203294D01*
G37*
%TD.AperFunction*%
%TA.AperFunction,Conductor*%
G36*
X33857500Y25397887D02*
G01*
X33902887Y25352500D01*
X33919500Y25290500D01*
X33919500Y24917131D01*
X33925909Y24857516D01*
X33942620Y24812712D01*
X33976204Y24722669D01*
X34062454Y24607454D01*
X34177669Y24521204D01*
X34312517Y24470909D01*
X34372127Y24464500D01*
X35770500Y24464501D01*
X35832500Y24447888D01*
X35877887Y24402501D01*
X35894500Y24340501D01*
X35894500Y22942131D01*
X35900909Y22882514D01*
X35924843Y22818344D01*
X35929827Y22748653D01*
X35896342Y22687331D01*
X35306832Y22097819D01*
X35266604Y22070939D01*
X35219151Y22061500D01*
X31828348Y22061500D01*
X31767916Y22077223D01*
X31722809Y22120404D01*
X31647711Y22242158D01*
X31523659Y22366210D01*
X31520345Y22368254D01*
X31477163Y22413362D01*
X31461440Y22473796D01*
X31477164Y22534229D01*
X31520348Y22579336D01*
X31523348Y22581187D01*
X31647316Y22705155D01*
X31739357Y22854378D01*
X31794506Y23020804D01*
X31805000Y23123521D01*
X31805000Y23261000D01*
X30454000Y23261000D01*
X30392000Y23277613D01*
X30346613Y23323000D01*
X30330000Y23385000D01*
X30330000Y24598499D01*
X30055021Y24598499D01*
X29952304Y24588007D01*
X29785877Y24532858D01*
X29636654Y24440817D01*
X29521681Y24325843D01*
X29472318Y24295593D01*
X29414602Y24291051D01*
X29361115Y24313206D01*
X29323515Y24357229D01*
X29310000Y24413524D01*
X29310000Y24598500D01*
X30830000Y24598500D01*
X30830000Y23761000D01*
X31804999Y23761000D01*
X31804999Y23898479D01*
X31794506Y24001196D01*
X31739357Y24167623D01*
X31647316Y24316846D01*
X31523345Y24440817D01*
X31374122Y24532858D01*
X31207696Y24588007D01*
X31104979Y24598500D01*
X30830000Y24598500D01*
X29310000Y24598500D01*
X29310000Y25290500D01*
X29326613Y25352500D01*
X29372000Y25397887D01*
X29434000Y25414500D01*
X33795500Y25414500D01*
X33857500Y25397887D01*
G37*
%TD.AperFunction*%
%TA.AperFunction,Conductor*%
G36*
X59990594Y36155489D02*
G01*
X60034912Y36116623D01*
X60059953Y36080860D01*
X60220859Y35919954D01*
X60407264Y35789433D01*
X60407265Y35789433D01*
X60407266Y35789432D01*
X60465865Y35762107D01*
X60518040Y35716350D01*
X60537460Y35649726D01*
X60518041Y35583101D01*
X60465866Y35537344D01*
X60407522Y35510137D01*
X60221180Y35379659D01*
X60060341Y35218820D01*
X59929865Y35032481D01*
X59833733Y34826327D01*
X59781128Y34630001D01*
X59781128Y34630000D01*
X61186000Y34630000D01*
X61248000Y34613387D01*
X61293387Y34568000D01*
X61310000Y34506000D01*
X61310000Y30561129D01*
X61506326Y30613734D01*
X61712480Y30709866D01*
X61898819Y30840342D01*
X61912319Y30853841D01*
X61961682Y30884091D01*
X62019398Y30888633D01*
X62072885Y30866478D01*
X62110485Y30822455D01*
X62124000Y30766160D01*
X62124000Y28173774D01*
X62109874Y28116297D01*
X62070716Y28071915D01*
X62015446Y28050740D01*
X61983138Y28054508D01*
X61982862Y28051933D01*
X61907824Y28060000D01*
X61310000Y28060000D01*
X61310000Y26634000D01*
X61293387Y26572000D01*
X61248000Y26526613D01*
X61186000Y26510000D01*
X59760000Y26510000D01*
X59760000Y25912176D01*
X59766402Y25852625D01*
X59816647Y25717911D01*
X59902811Y25602812D01*
X60017910Y25516648D01*
X60152624Y25466403D01*
X60188217Y25462576D01*
X60244139Y25442197D01*
X60284123Y25398109D01*
X60298957Y25340468D01*
X60285224Y25282555D01*
X60246088Y25237712D01*
X60220859Y25220047D01*
X60059953Y25059141D01*
X60034912Y25023377D01*
X59990594Y24984511D01*
X59933337Y24970500D01*
X59335706Y24970500D01*
X59317736Y24971809D01*
X59303853Y24973843D01*
X59293977Y24975289D01*
X59293976Y24975289D01*
X59244634Y24970972D01*
X59233827Y24970500D01*
X59228289Y24970500D01*
X59197487Y24966901D01*
X59193906Y24966535D01*
X59117952Y24959889D01*
X59098923Y24955671D01*
X59027271Y24929592D01*
X59023868Y24928409D01*
X58951479Y24904421D01*
X58933927Y24895924D01*
X58870228Y24854030D01*
X58867190Y24852095D01*
X58802281Y24812057D01*
X58787164Y24799744D01*
X58734848Y24744292D01*
X58732336Y24741706D01*
X57526358Y23535728D01*
X57512727Y23523947D01*
X57493467Y23509608D01*
X57461633Y23471671D01*
X57454347Y23463718D01*
X57450202Y23459571D01*
X57400841Y23429307D01*
X57343120Y23424755D01*
X57289624Y23446906D01*
X57252018Y23490931D01*
X57238500Y23547231D01*
X57238500Y27010000D01*
X59760000Y27010000D01*
X60810000Y27010000D01*
X60810000Y28060000D01*
X60212176Y28060000D01*
X60152624Y28053598D01*
X60017910Y28003353D01*
X59902811Y27917189D01*
X59816647Y27802090D01*
X59766402Y27667376D01*
X59760000Y27607824D01*
X59760000Y27010000D01*
X57238500Y27010000D01*
X57238500Y31590000D01*
X59781128Y31590000D01*
X59833733Y31393674D01*
X59929865Y31187520D01*
X60060341Y31001181D01*
X60221180Y30840342D01*
X60407519Y30709866D01*
X60613673Y30613734D01*
X60809999Y30561129D01*
X60810000Y30561128D01*
X60810000Y31590000D01*
X59781128Y31590000D01*
X57238500Y31590000D01*
X57238500Y34130000D01*
X59781128Y34130000D01*
X59833733Y33933674D01*
X59929865Y33727520D01*
X60060341Y33541181D01*
X60221180Y33380342D01*
X60407518Y33249866D01*
X60466455Y33222384D01*
X60518632Y33176627D01*
X60538052Y33110002D01*
X60518633Y33043377D01*
X60466458Y32997620D01*
X60407522Y32970137D01*
X60221180Y32839659D01*
X60060341Y32678820D01*
X59929865Y32492481D01*
X59833733Y32286327D01*
X59781128Y32090001D01*
X59781128Y32090000D01*
X60810000Y32090000D01*
X60810000Y34130000D01*
X59781128Y34130000D01*
X57238500Y34130000D01*
X57238500Y34515770D01*
X57247939Y34563223D01*
X57274819Y34603451D01*
X58804549Y36133181D01*
X58844777Y36160061D01*
X58892230Y36169500D01*
X59933337Y36169500D01*
X59990594Y36155489D01*
G37*
%TD.AperFunction*%
%TA.AperFunction,Conductor*%
G36*
X17107847Y29554722D02*
G01*
X17153584Y29504074D01*
X17165597Y29436897D01*
X17163000Y29411478D01*
X17163000Y29274000D01*
X19520048Y29274000D01*
X19567501Y29264561D01*
X19607727Y29237682D01*
X19814057Y29031352D01*
X19989196Y28856213D01*
X20002096Y28840112D01*
X20053223Y28792100D01*
X20056020Y28789389D01*
X20075529Y28769880D01*
X20078711Y28767412D01*
X20087571Y28759845D01*
X20119418Y28729938D01*
X20136972Y28720288D01*
X20153236Y28709604D01*
X20164972Y28700501D01*
X20169064Y28697327D01*
X20193909Y28686576D01*
X20209152Y28679979D01*
X20219631Y28674846D01*
X20257908Y28653803D01*
X20277306Y28648823D01*
X20295708Y28642523D01*
X20314104Y28634562D01*
X20357261Y28627727D01*
X20368664Y28625366D01*
X20410981Y28614500D01*
X20431016Y28614500D01*
X20450413Y28612974D01*
X20470196Y28609840D01*
X20500730Y28612727D01*
X20566657Y28600776D01*
X20616744Y28556269D01*
X20636364Y28492202D01*
X20619787Y28427280D01*
X20608820Y28408286D01*
X20550326Y28228258D01*
X20530540Y28040000D01*
X20550326Y27851743D01*
X20608820Y27671716D01*
X20703466Y27507784D01*
X20830129Y27367111D01*
X20983269Y27255849D01*
X21156197Y27178856D01*
X21341352Y27139500D01*
X21341354Y27139500D01*
X21530646Y27139500D01*
X21530648Y27139500D01*
X21715799Y27178855D01*
X21715799Y27178856D01*
X21715803Y27178856D01*
X21779622Y27207272D01*
X21827890Y27217972D01*
X21876507Y27208962D01*
X21917735Y27181674D01*
X21993790Y27105619D01*
X22043760Y27055649D01*
X22043767Y27055643D01*
X23443197Y25656213D01*
X23456098Y25640111D01*
X23458212Y25638126D01*
X23458214Y25638123D01*
X23495816Y25602812D01*
X23507240Y25592084D01*
X23510036Y25589374D01*
X23529530Y25569880D01*
X23532704Y25567418D01*
X23541568Y25559847D01*
X23573418Y25529938D01*
X23581549Y25525468D01*
X23590974Y25520286D01*
X23607231Y25509608D01*
X23612352Y25505635D01*
X23623065Y25497325D01*
X23647245Y25486862D01*
X23686594Y25459819D01*
X23712808Y25419913D01*
X23722000Y25373060D01*
X23722000Y24253348D01*
X23708810Y24197697D01*
X23672048Y24153885D01*
X23619532Y24131232D01*
X23562436Y24134557D01*
X23512906Y24163154D01*
X23484272Y24190169D01*
X23481685Y24192682D01*
X20576771Y27097597D01*
X20546521Y27146960D01*
X20491179Y27317285D01*
X20396533Y27481217D01*
X20269870Y27621890D01*
X20116730Y27733152D01*
X19943802Y27810145D01*
X19758648Y27849500D01*
X19758646Y27849500D01*
X19569354Y27849500D01*
X19551578Y27845722D01*
X19463679Y27827040D01*
X19402681Y27829438D01*
X19350219Y27860650D01*
X19331659Y27879210D01*
X19331656Y27879212D01*
X19328344Y27881255D01*
X19285163Y27926362D01*
X19269440Y27986796D01*
X19285164Y28047229D01*
X19328348Y28092336D01*
X19331348Y28094187D01*
X19455316Y28218155D01*
X19547357Y28367378D01*
X19602506Y28533804D01*
X19613000Y28636521D01*
X19613000Y28774000D01*
X17163001Y28774000D01*
X17163001Y28636521D01*
X17173493Y28533805D01*
X17202768Y28445460D01*
X17207378Y28386090D01*
X17183779Y28331417D01*
X17137414Y28294049D01*
X17078976Y28282605D01*
X17021941Y28299724D01*
X16893397Y28375745D01*
X16735572Y28421598D01*
X16713443Y28423340D01*
X16698694Y28424500D01*
X16267306Y28424500D01*
X16255014Y28423533D01*
X16230427Y28421598D01*
X16072602Y28375745D01*
X15917652Y28284107D01*
X15916721Y28285681D01*
X15880094Y28264533D01*
X15815906Y28264533D01*
X15779278Y28285681D01*
X15778348Y28284107D01*
X15626476Y28373924D01*
X15581780Y28419407D01*
X15565598Y28481089D01*
X15582210Y28542656D01*
X15663478Y28683417D01*
X15678594Y28729939D01*
X15721973Y28863445D01*
X15739621Y29031360D01*
X15751019Y29071774D01*
X15775256Y29106069D01*
X16206369Y29537181D01*
X16246598Y29564061D01*
X16294051Y29573500D01*
X17042239Y29573500D01*
X17107847Y29554722D01*
G37*
%TD.AperFunction*%
%TA.AperFunction,Conductor*%
G36*
X39925504Y31260114D02*
G01*
X39969264Y31223543D01*
X40037454Y31132454D01*
X40037455Y31132454D01*
X40037456Y31132452D01*
X40070311Y31107856D01*
X40106884Y31064094D01*
X40120000Y31008590D01*
X40120000Y30990000D01*
X40192823Y30990000D01*
X40254398Y30996620D01*
X40280908Y30996619D01*
X40321715Y30992233D01*
X40347127Y30989500D01*
X40992872Y30989501D01*
X41052483Y30995909D01*
X41052484Y30995910D01*
X41056748Y30996368D01*
X41083258Y30996367D01*
X41087516Y30995910D01*
X41087517Y30995909D01*
X41147127Y30989500D01*
X41792872Y30989501D01*
X41852483Y30995909D01*
X41852484Y30995910D01*
X41856748Y30996368D01*
X41883258Y30996367D01*
X41887516Y30995910D01*
X41887517Y30995909D01*
X41947127Y30989500D01*
X42295500Y30989501D01*
X42357500Y30972888D01*
X42402887Y30927501D01*
X42419500Y30865501D01*
X42419500Y30517130D01*
X42426367Y30453255D01*
X42426367Y30426748D01*
X42419500Y30362871D01*
X42419500Y29717130D01*
X42426367Y29653255D01*
X42426367Y29626748D01*
X42419500Y29562871D01*
X42419500Y28917130D01*
X42426367Y28853255D01*
X42426367Y28826748D01*
X42419500Y28762871D01*
X42419500Y28117129D01*
X42426367Y28053253D01*
X42426367Y28026747D01*
X42419500Y27962871D01*
X42419500Y27317129D01*
X42426367Y27253253D01*
X42426367Y27226747D01*
X42419500Y27162871D01*
X42419500Y26517130D01*
X42426367Y26453255D01*
X42426367Y26426748D01*
X42419500Y26362871D01*
X42419500Y25717129D01*
X42426367Y25653253D01*
X42426367Y25626747D01*
X42425909Y25622483D01*
X42420254Y25569880D01*
X42419500Y25562870D01*
X42419500Y25214500D01*
X42402887Y25152500D01*
X42357500Y25107113D01*
X42295500Y25090500D01*
X41947127Y25090500D01*
X41904840Y25085954D01*
X41841366Y25095870D01*
X41791373Y25136218D01*
X41768280Y25196168D01*
X41778286Y25259627D01*
X41818704Y25309562D01*
X41853871Y25335112D01*
X41980533Y25475784D01*
X42075179Y25639716D01*
X42133674Y25819744D01*
X42153460Y26008000D01*
X42133674Y26196256D01*
X42086318Y26342001D01*
X42075179Y26376285D01*
X41980533Y26540217D01*
X41853870Y26680890D01*
X41700730Y26792152D01*
X41527802Y26869145D01*
X41342648Y26908500D01*
X41342646Y26908500D01*
X41153354Y26908500D01*
X41153352Y26908500D01*
X40968197Y26869145D01*
X40795269Y26792152D01*
X40642129Y26680890D01*
X40515466Y26540217D01*
X40420820Y26376285D01*
X40362326Y26196258D01*
X40344679Y26028351D01*
X40333279Y25987930D01*
X40309040Y25953633D01*
X40257228Y25901820D01*
X40216999Y25874939D01*
X40169546Y25865500D01*
X36644500Y25865500D01*
X36582500Y25882113D01*
X36537113Y25927500D01*
X36520500Y25989500D01*
X36520499Y26362870D01*
X36513632Y26426750D01*
X36513633Y26453260D01*
X36516306Y26478120D01*
X36520500Y26517127D01*
X36520499Y27162872D01*
X36514091Y27222483D01*
X36514090Y27222485D01*
X36513632Y27226748D01*
X36513633Y27253258D01*
X36514091Y27257517D01*
X36520500Y27317127D01*
X36520499Y27690501D01*
X36537112Y27752500D01*
X36582499Y27797887D01*
X36644499Y27814500D01*
X37129265Y27814500D01*
X37167583Y27808431D01*
X37202151Y27790818D01*
X37239270Y27763849D01*
X37404013Y27690500D01*
X37412197Y27686856D01*
X37597352Y27647500D01*
X37597354Y27647500D01*
X37786646Y27647500D01*
X37786648Y27647500D01*
X37910084Y27673738D01*
X37971803Y27686856D01*
X38144730Y27763849D01*
X38181850Y27790818D01*
X38297870Y27875111D01*
X38324582Y27904777D01*
X38424533Y28015784D01*
X38519179Y28179716D01*
X38577674Y28359744D01*
X38597460Y28548000D01*
X38577674Y28736256D01*
X38541843Y28846531D01*
X38519179Y28916285D01*
X38424533Y29080217D01*
X38297870Y29220890D01*
X38144730Y29332152D01*
X37971802Y29409145D01*
X37786648Y29448500D01*
X37786646Y29448500D01*
X37597354Y29448500D01*
X37597352Y29448500D01*
X37412197Y29409145D01*
X37239269Y29332152D01*
X37086129Y29220890D01*
X37015835Y29142819D01*
X36983157Y29106527D01*
X36941444Y29076220D01*
X36891009Y29065500D01*
X36644500Y29065500D01*
X36582500Y29082113D01*
X36537113Y29127500D01*
X36520500Y29189500D01*
X36520499Y29562870D01*
X36520371Y29564061D01*
X36514091Y29622483D01*
X36514090Y29622485D01*
X36513632Y29626750D01*
X36513633Y29653260D01*
X36515604Y29671592D01*
X36520500Y29717127D01*
X36520499Y30362872D01*
X36514091Y30422483D01*
X36514090Y30422485D01*
X36513632Y30426750D01*
X36513633Y30453260D01*
X36514091Y30457517D01*
X36520500Y30517127D01*
X36520499Y30865502D01*
X36537112Y30927501D01*
X36582499Y30972888D01*
X36644499Y30989501D01*
X36992869Y30989501D01*
X36992872Y30989501D01*
X37052483Y30995909D01*
X37052484Y30995910D01*
X37056748Y30996368D01*
X37083258Y30996367D01*
X37087516Y30995910D01*
X37087517Y30995909D01*
X37147127Y30989500D01*
X37792872Y30989501D01*
X37852483Y30995909D01*
X37852484Y30995910D01*
X37856748Y30996368D01*
X37883258Y30996367D01*
X37887516Y30995910D01*
X37887517Y30995909D01*
X37947127Y30989500D01*
X38592872Y30989501D01*
X38652483Y30995909D01*
X38652484Y30995910D01*
X38656748Y30996368D01*
X38683258Y30996367D01*
X38687516Y30995910D01*
X38687517Y30995909D01*
X38747127Y30989500D01*
X39392872Y30989501D01*
X39452483Y30995909D01*
X39452485Y30995910D01*
X39459092Y30996620D01*
X39485601Y30996620D01*
X39547177Y30990000D01*
X39620000Y30990000D01*
X39620000Y31008590D01*
X39633116Y31064094D01*
X39669689Y31107856D01*
X39697090Y31128370D01*
X39702546Y31132454D01*
X39770735Y31223543D01*
X39814496Y31260114D01*
X39870000Y31273230D01*
X39925504Y31260114D01*
G37*
%TD.AperFunction*%
%TA.AperFunction,Conductor*%
G36*
X11821885Y27486365D02*
G01*
X11859485Y27442342D01*
X11873000Y27386047D01*
X11873000Y27199000D01*
X14069000Y27199000D01*
X14131000Y27182387D01*
X14176387Y27137000D01*
X14193000Y27075000D01*
X14193000Y26823000D01*
X14176387Y26761000D01*
X14131000Y26715613D01*
X14069000Y26699000D01*
X11850730Y26699000D01*
X11803277Y26708439D01*
X11763051Y26735317D01*
X11681656Y26816712D01*
X11681655Y26816713D01*
X11681654Y26816714D01*
X11582107Y26878114D01*
X11532334Y26908814D01*
X11453856Y26934819D01*
X11395732Y26954080D01*
X11343314Y26988014D01*
X11314079Y27043190D01*
X11315442Y27105619D01*
X11347052Y27159463D01*
X11661320Y27473730D01*
X11710682Y27503978D01*
X11768398Y27508520D01*
X11821885Y27486365D01*
G37*
%TD.AperFunction*%
%TA.AperFunction,Conductor*%
G36*
X10364952Y35442326D02*
G01*
X10401424Y35398590D01*
X10414500Y35343165D01*
X10414500Y34069308D01*
X10417402Y34032428D01*
X10463255Y33874603D01*
X10497732Y33816306D01*
X10515000Y33753185D01*
X10515000Y33097500D01*
X11065000Y33097500D01*
X11065000Y33360500D01*
X11081613Y33422500D01*
X11127000Y33467887D01*
X11189000Y33484500D01*
X11240500Y33484500D01*
X11302500Y33467887D01*
X11347887Y33422500D01*
X11364500Y33360500D01*
X11364500Y32813230D01*
X11355061Y32765777D01*
X11328181Y32725549D01*
X11220247Y32617615D01*
X11164660Y32585521D01*
X11100472Y32585521D01*
X11079724Y32597500D01*
X9465000Y32597500D01*
X9465000Y32194361D01*
X9467900Y32157507D01*
X9513717Y31999803D01*
X9591544Y31868204D01*
X9608795Y31807150D01*
X9593589Y31745556D01*
X9549909Y31699544D01*
X9425341Y31622711D01*
X9331681Y31529050D01*
X9276094Y31496956D01*
X9211906Y31496956D01*
X9156319Y31529050D01*
X9062657Y31622712D01*
X8913334Y31714814D01*
X8746797Y31770000D01*
X8644009Y31780500D01*
X7843991Y31780500D01*
X7741203Y31770000D01*
X7574665Y31714814D01*
X7425342Y31622712D01*
X7291039Y31488408D01*
X7289372Y31490075D01*
X7273758Y31473580D01*
X7227460Y31453793D01*
X7177111Y31454045D01*
X7052648Y31480500D01*
X7052646Y31480500D01*
X6863354Y31480500D01*
X6863352Y31480500D01*
X6678197Y31441145D01*
X6505269Y31364152D01*
X6352129Y31252890D01*
X6225466Y31112217D01*
X6161887Y31002093D01*
X6116500Y30956706D01*
X6054500Y30940093D01*
X5992500Y30956706D01*
X5947113Y31002093D01*
X5930500Y31064093D01*
X5930500Y33137500D01*
X6265000Y33137500D01*
X6265000Y33111659D01*
X6271043Y33045157D01*
X6318725Y32892139D01*
X6401642Y32754976D01*
X6514975Y32641643D01*
X6652138Y32558726D01*
X6805156Y32511044D01*
X6835000Y32508332D01*
X6835000Y33137500D01*
X7335000Y33137500D01*
X7335000Y32508332D01*
X7364843Y32511044D01*
X7517861Y32558726D01*
X7655024Y32641643D01*
X7768357Y32754976D01*
X7851274Y32892139D01*
X7898956Y33045157D01*
X7903713Y33097500D01*
X9465000Y33097500D01*
X10015000Y33097500D01*
X10015000Y34082295D01*
X10014999Y34082296D01*
X10012511Y34082100D01*
X9854799Y34036281D01*
X9713442Y33952683D01*
X9597317Y33836558D01*
X9513717Y33695198D01*
X9467900Y33537494D01*
X9465000Y33500639D01*
X9465000Y33097500D01*
X7903713Y33097500D01*
X7905000Y33111659D01*
X7905000Y33137500D01*
X7335000Y33137500D01*
X6835000Y33137500D01*
X6265000Y33137500D01*
X5930500Y33137500D01*
X5930500Y34811862D01*
X5946223Y34872294D01*
X5989402Y34917401D01*
X6067405Y34965513D01*
X6132498Y34983973D01*
X6197593Y34965514D01*
X6209125Y34958401D01*
X6254934Y34908328D01*
X6267522Y34841639D01*
X6264500Y34808384D01*
X6264500Y34256616D01*
X6270547Y34190068D01*
X6318266Y34036931D01*
X6326286Y34023665D01*
X6344168Y33959517D01*
X6326286Y33895370D01*
X6318726Y33882864D01*
X6271043Y33729844D01*
X6265000Y33663341D01*
X6265000Y33637500D01*
X7905000Y33637500D01*
X7905000Y33663341D01*
X7898956Y33729844D01*
X7851274Y33882861D01*
X7843715Y33895366D01*
X7825831Y33959517D01*
X7843715Y34023668D01*
X7851733Y34036931D01*
X7899452Y34190067D01*
X7905500Y34256619D01*
X7905499Y34808380D01*
X7902476Y34841640D01*
X7915065Y34908327D01*
X7960870Y34958398D01*
X8003656Y34984788D01*
X8127712Y35108844D01*
X8219814Y35258166D01*
X8243784Y35330506D01*
X8269663Y35374829D01*
X8311275Y35404877D01*
X8361490Y35415500D01*
X9923256Y35415500D01*
X9943762Y35413236D01*
X9946665Y35413328D01*
X9946667Y35413327D01*
X10013872Y35415439D01*
X10017768Y35415500D01*
X10045349Y35415500D01*
X10045350Y35415500D01*
X10049319Y35416002D01*
X10060965Y35416920D01*
X10104627Y35418291D01*
X10123859Y35423880D01*
X10142918Y35427826D01*
X10149196Y35428619D01*
X10162792Y35430336D01*
X10203407Y35446418D01*
X10214444Y35450197D01*
X10255908Y35462243D01*
X10312778Y35465147D01*
X10364952Y35442326D01*
G37*
%TD.AperFunction*%
%TA.AperFunction,Conductor*%
G36*
X25968605Y43402170D02*
G01*
X26013097Y43362492D01*
X26033931Y43306636D01*
X26026291Y43247513D01*
X25991943Y43198788D01*
X25938827Y43171723D01*
X24370038Y42806888D01*
X22095528Y42277932D01*
X22095525Y42277932D01*
X22095525Y42277931D01*
X22020436Y42250534D01*
X21902808Y42167611D01*
X21813301Y42054899D01*
X21759178Y41921546D01*
X21757090Y41904428D01*
X21749500Y41842198D01*
X21749500Y40157803D01*
X21759179Y40078456D01*
X21776484Y40035819D01*
X21813303Y39945098D01*
X21902804Y39832395D01*
X21902806Y39832393D01*
X22020437Y39749467D01*
X22095530Y39722067D01*
X23364514Y39426954D01*
X23553588Y39382983D01*
X23603077Y39358942D01*
X23637294Y39315855D01*
X23649500Y39262206D01*
X23649500Y37758706D01*
X23648191Y37740736D01*
X23644711Y37716977D01*
X23649028Y37667631D01*
X23649500Y37656824D01*
X23649500Y37651292D01*
X23653098Y37620504D01*
X23653464Y37616919D01*
X23660110Y37540959D01*
X23664329Y37521929D01*
X23664758Y37520749D01*
X23664759Y37520745D01*
X23690413Y37450258D01*
X23691582Y37446893D01*
X23715580Y37374476D01*
X23724075Y37356928D01*
X23765979Y37293216D01*
X23767889Y37290218D01*
X23787660Y37258166D01*
X23807952Y37225268D01*
X23820253Y37210170D01*
X23821168Y37209307D01*
X23821170Y37209304D01*
X23833916Y37197279D01*
X23875708Y37157850D01*
X23878295Y37155337D01*
X25505222Y35528410D01*
X25538707Y35467088D01*
X25533723Y35397397D01*
X25480631Y35255048D01*
X25419804Y34975430D01*
X25399389Y34690000D01*
X25419804Y34404571D01*
X25480629Y34124959D01*
X25480631Y34124954D01*
X25574007Y33874603D01*
X25580634Y33856837D01*
X25717772Y33605687D01*
X25781135Y33521044D01*
X25889261Y33376605D01*
X26091605Y33174261D01*
X26194146Y33097500D01*
X26320686Y33002773D01*
X26380460Y32970134D01*
X26571839Y32865633D01*
X26839954Y32765631D01*
X26839957Y32765631D01*
X26839958Y32765630D01*
X26857252Y32761868D01*
X27119572Y32704804D01*
X27405000Y32684390D01*
X27690428Y32704804D01*
X27970046Y32765631D01*
X28238161Y32865633D01*
X28489315Y33002774D01*
X28718395Y33174261D01*
X28920739Y33376605D01*
X29092226Y33605685D01*
X29229367Y33856839D01*
X29329369Y34124954D01*
X29390196Y34404572D01*
X29410610Y34690000D01*
X29390196Y34975428D01*
X29353694Y35143224D01*
X29355883Y35204514D01*
X29387177Y35257258D01*
X32358049Y38228130D01*
X32415919Y38260810D01*
X32482357Y38258912D01*
X32538271Y38222979D01*
X32567596Y38163334D01*
X32561909Y38097113D01*
X32498611Y37927403D01*
X32437800Y37647858D01*
X32417390Y37362500D01*
X32437800Y37077143D01*
X32498611Y36797598D01*
X32598588Y36529548D01*
X32735693Y36278458D01*
X32842383Y36135938D01*
X34422500Y37716053D01*
X35649062Y38942617D01*
X35506542Y39049307D01*
X35255452Y39186412D01*
X34987402Y39286389D01*
X34707857Y39347200D01*
X34422500Y39367610D01*
X34137142Y39347200D01*
X33857597Y39286389D01*
X33687888Y39223091D01*
X33621667Y39217404D01*
X33562022Y39246729D01*
X33526089Y39302643D01*
X33524191Y39369081D01*
X33556872Y39426953D01*
X34341101Y40211181D01*
X34381330Y40238061D01*
X34428783Y40247500D01*
X37539546Y40247500D01*
X37595841Y40233985D01*
X37639864Y40196385D01*
X37662019Y40142898D01*
X37657477Y40085182D01*
X37627227Y40035819D01*
X36292208Y38700801D01*
X36276110Y38687904D01*
X36228096Y38636775D01*
X36225391Y38633983D01*
X36205874Y38614466D01*
X36203415Y38611295D01*
X36195840Y38602426D01*
X36183887Y38589697D01*
X36139554Y38559452D01*
X36086594Y38550772D01*
X36034925Y38565284D01*
X36007684Y38588701D01*
X36002615Y38589064D01*
X34422500Y37008947D01*
X33195936Y35782385D01*
X33338458Y35675694D01*
X33589547Y35538589D01*
X33857597Y35438612D01*
X34137142Y35377801D01*
X34422499Y35357391D01*
X34692196Y35376681D01*
X34750938Y35366516D01*
X34798147Y35330112D01*
X34822912Y35275885D01*
X34819509Y35216367D01*
X34788724Y35165316D01*
X32389228Y32765819D01*
X32349000Y32738939D01*
X32301547Y32729500D01*
X30394747Y32729500D01*
X30344312Y32740220D01*
X30302598Y32770527D01*
X30296871Y32776888D01*
X30143730Y32888151D01*
X30143729Y32888152D01*
X30143727Y32888153D01*
X29970802Y32965145D01*
X29785648Y33004500D01*
X29785646Y33004500D01*
X29596354Y33004500D01*
X29596352Y33004500D01*
X29411197Y32965145D01*
X29238269Y32888152D01*
X29085129Y32776890D01*
X28958466Y32636217D01*
X28863820Y32472285D01*
X28805326Y32292258D01*
X28785540Y32104000D01*
X28805326Y31915743D01*
X28863820Y31735716D01*
X28958466Y31571784D01*
X29085129Y31431111D01*
X29238269Y31319849D01*
X29247409Y31315779D01*
X29298796Y31273268D01*
X29320728Y31210286D01*
X29306862Y31145051D01*
X29261208Y31096435D01*
X29196973Y31078500D01*
X22921996Y31078500D01*
X22865701Y31092015D01*
X22821678Y31129615D01*
X22799523Y31183102D01*
X22804065Y31240818D01*
X22834315Y31290181D01*
X22868729Y31324595D01*
X22920739Y31376605D01*
X23092226Y31605685D01*
X23229367Y31856839D01*
X23329369Y32124954D01*
X23390196Y32404572D01*
X23410610Y32690000D01*
X23390196Y32975428D01*
X23329369Y33255046D01*
X23229367Y33523161D01*
X23150604Y33667405D01*
X23092227Y33774314D01*
X23049354Y33831586D01*
X22920739Y34003395D01*
X22718395Y34205739D01*
X22603854Y34291483D01*
X22489313Y34377228D01*
X22238163Y34514366D01*
X22238162Y34514367D01*
X22238161Y34514367D01*
X21970046Y34614369D01*
X21970041Y34614371D01*
X21690429Y34675196D01*
X21405000Y34695611D01*
X21119570Y34675196D01*
X20839958Y34614371D01*
X20571836Y34514366D01*
X20320686Y34377228D01*
X20091602Y34205737D01*
X19889263Y34003398D01*
X19717772Y33774314D01*
X19580633Y33523161D01*
X19579890Y33521168D01*
X19577188Y33516852D01*
X19576383Y33515377D01*
X19576295Y33515425D01*
X19553452Y33478931D01*
X19512521Y33450512D01*
X19463708Y33440500D01*
X17211019Y33440500D01*
X17149659Y33456746D01*
X17104377Y33501227D01*
X17087039Y33562287D01*
X17102187Y33623927D01*
X17151255Y33713788D01*
X17229367Y33856839D01*
X17329369Y34124954D01*
X17390196Y34404572D01*
X17410610Y34690000D01*
X17390196Y34975428D01*
X17329369Y35255046D01*
X17325968Y35264163D01*
X17276275Y35397395D01*
X17268491Y35443679D01*
X17278468Y35489541D01*
X17304772Y35528407D01*
X18485638Y36709273D01*
X18499256Y36721043D01*
X18518530Y36735390D01*
X18550382Y36773351D01*
X18557668Y36781303D01*
X18561590Y36785223D01*
X18580863Y36809601D01*
X18583030Y36812261D01*
X18631302Y36869786D01*
X18631303Y36869790D01*
X18632119Y36870761D01*
X18642575Y36887175D01*
X18643109Y36888321D01*
X18643111Y36888323D01*
X18674816Y36956318D01*
X18676369Y36959525D01*
X18710040Y37026567D01*
X18710040Y37026571D01*
X18710610Y37027704D01*
X18716999Y37046083D01*
X18723397Y37077071D01*
X18732431Y37120829D01*
X18733186Y37124233D01*
X18750500Y37197279D01*
X18750500Y37197281D01*
X18750790Y37198505D01*
X18752769Y37217877D01*
X18752732Y37219141D01*
X18752733Y37219144D01*
X18750552Y37294111D01*
X18750500Y37297716D01*
X18750500Y39262207D01*
X18762706Y39315856D01*
X18796923Y39358943D01*
X18846412Y39382984D01*
X19035482Y39426954D01*
X20304472Y39722068D01*
X20379563Y39749467D01*
X20497194Y39832392D01*
X20586697Y39945099D01*
X20640822Y40078456D01*
X20650500Y40157802D01*
X20650500Y41842197D01*
X20640821Y41921544D01*
X20586697Y42054901D01*
X20586696Y42054902D01*
X20586696Y42054903D01*
X20497195Y42167606D01*
X20497194Y42167607D01*
X20379563Y42250533D01*
X20304470Y42277933D01*
X17142463Y43013284D01*
X16461176Y43171723D01*
X16408060Y43198788D01*
X16373712Y43247513D01*
X16366072Y43306636D01*
X16386906Y43362492D01*
X16431398Y43402170D01*
X16489264Y43416500D01*
X25910739Y43416500D01*
X25968605Y43402170D01*
G37*
%TD.AperFunction*%
%TA.AperFunction,Conductor*%
G36*
X41874001Y38581061D02*
G01*
X41914229Y38554181D01*
X42608181Y37860228D01*
X42635061Y37820000D01*
X42644500Y37772547D01*
X42644500Y33714500D01*
X42627887Y33652500D01*
X42582500Y33607113D01*
X42520500Y33590500D01*
X41947129Y33590500D01*
X41883255Y33583633D01*
X41856744Y33583634D01*
X41840628Y33585367D01*
X41776943Y33611415D01*
X41736949Y33667405D01*
X41732960Y33736096D01*
X41766206Y33796338D01*
X41786174Y33816306D01*
X41807712Y33837844D01*
X41899814Y33987166D01*
X41954999Y34153703D01*
X41965500Y34256491D01*
X41965499Y35031508D01*
X41954999Y35134297D01*
X41899814Y35300834D01*
X41830428Y35413327D01*
X41807711Y35450158D01*
X41683659Y35574210D01*
X41680345Y35576254D01*
X41637163Y35621362D01*
X41621440Y35681796D01*
X41637164Y35742229D01*
X41680348Y35787336D01*
X41683348Y35789187D01*
X41807316Y35913155D01*
X41899357Y36062378D01*
X41954506Y36228804D01*
X41965000Y36331521D01*
X41965000Y36469000D01*
X38582000Y36469000D01*
X38520000Y36485613D01*
X38474613Y36531000D01*
X38458000Y36593000D01*
X38458000Y37806499D01*
X38457999Y37806500D01*
X38958000Y37806500D01*
X38958000Y36969000D01*
X40490000Y36969000D01*
X40490000Y37806499D01*
X40215021Y37806499D01*
X40112304Y37796007D01*
X39945877Y37740858D01*
X39789096Y37644155D01*
X39724000Y37625694D01*
X39658904Y37644155D01*
X39502122Y37740858D01*
X39335696Y37796007D01*
X39232979Y37806500D01*
X40990000Y37806500D01*
X40990000Y36969000D01*
X41964999Y36969000D01*
X41964999Y37106479D01*
X41954506Y37209196D01*
X41899357Y37375623D01*
X41807316Y37524846D01*
X41683345Y37648817D01*
X41534122Y37740858D01*
X41367696Y37796007D01*
X41264979Y37806500D01*
X40990000Y37806500D01*
X39232979Y37806500D01*
X38958000Y37806500D01*
X38457999Y37806500D01*
X38450273Y37814225D01*
X38426152Y37820017D01*
X38382130Y37857617D01*
X38359976Y37911104D01*
X38364519Y37968819D01*
X38394765Y38018175D01*
X38930771Y38554181D01*
X38971000Y38581061D01*
X39018453Y38590500D01*
X41826548Y38590500D01*
X41874001Y38581061D01*
G37*
%TD.AperFunction*%
%TD*%
M02*
