%TF.GenerationSoftware,KiCad,Pcbnew,7.0.1+dfsg-1*%
%TF.CreationDate,2024-08-17T23:40:15+03:00*%
%TF.ProjectId,OpenEVSE_mod,4f70656e-4556-4534-955f-6d6f642e6b69,rev?*%
%TF.SameCoordinates,PX9d5b340PY54e0840*%
%TF.FileFunction,Legend,Top*%
%TF.FilePolarity,Positive*%
%FSLAX46Y46*%
G04 Gerber Fmt 4.6, Leading zero omitted, Abs format (unit mm)*
G04 Created by KiCad (PCBNEW 7.0.1+dfsg-1) date 2024-08-17 23:40:15*
%MOMM*%
%LPD*%
G01*
G04 APERTURE LIST*
%ADD10C,0.150000*%
%ADD11C,0.120000*%
G04 APERTURE END LIST*
D10*
X78352619Y46169239D02*
X78352619Y46740667D01*
X79352619Y46454953D02*
X78352619Y46454953D01*
X78828809Y47074001D02*
X78828809Y47407334D01*
X79352619Y47550191D02*
X79352619Y47074001D01*
X79352619Y47074001D02*
X78352619Y47074001D01*
X78352619Y47074001D02*
X78352619Y47550191D01*
X79305000Y47931144D02*
X79352619Y48074001D01*
X79352619Y48074001D02*
X79352619Y48312096D01*
X79352619Y48312096D02*
X79305000Y48407334D01*
X79305000Y48407334D02*
X79257380Y48454953D01*
X79257380Y48454953D02*
X79162142Y48502572D01*
X79162142Y48502572D02*
X79066904Y48502572D01*
X79066904Y48502572D02*
X78971666Y48454953D01*
X78971666Y48454953D02*
X78924047Y48407334D01*
X78924047Y48407334D02*
X78876428Y48312096D01*
X78876428Y48312096D02*
X78828809Y48121620D01*
X78828809Y48121620D02*
X78781190Y48026382D01*
X78781190Y48026382D02*
X78733571Y47978763D01*
X78733571Y47978763D02*
X78638333Y47931144D01*
X78638333Y47931144D02*
X78543095Y47931144D01*
X78543095Y47931144D02*
X78447857Y47978763D01*
X78447857Y47978763D02*
X78400238Y48026382D01*
X78400238Y48026382D02*
X78352619Y48121620D01*
X78352619Y48121620D02*
X78352619Y48359715D01*
X78352619Y48359715D02*
X78400238Y48502572D01*
X78352619Y48788287D02*
X78352619Y49359715D01*
X79352619Y49074001D02*
X78352619Y49074001D01*
X78447857Y49645430D02*
X78400238Y49693049D01*
X78400238Y49693049D02*
X78352619Y49788287D01*
X78352619Y49788287D02*
X78352619Y50026382D01*
X78352619Y50026382D02*
X78400238Y50121620D01*
X78400238Y50121620D02*
X78447857Y50169239D01*
X78447857Y50169239D02*
X78543095Y50216858D01*
X78543095Y50216858D02*
X78638333Y50216858D01*
X78638333Y50216858D02*
X78781190Y50169239D01*
X78781190Y50169239D02*
X79352619Y49597811D01*
X79352619Y49597811D02*
X79352619Y50216858D01*
X78479619Y40708239D02*
X78479619Y41279667D01*
X79479619Y40993953D02*
X78479619Y40993953D01*
X78955809Y41613001D02*
X78955809Y41946334D01*
X79479619Y42089191D02*
X79479619Y41613001D01*
X79479619Y41613001D02*
X78479619Y41613001D01*
X78479619Y41613001D02*
X78479619Y42089191D01*
X79432000Y42470144D02*
X79479619Y42613001D01*
X79479619Y42613001D02*
X79479619Y42851096D01*
X79479619Y42851096D02*
X79432000Y42946334D01*
X79432000Y42946334D02*
X79384380Y42993953D01*
X79384380Y42993953D02*
X79289142Y43041572D01*
X79289142Y43041572D02*
X79193904Y43041572D01*
X79193904Y43041572D02*
X79098666Y42993953D01*
X79098666Y42993953D02*
X79051047Y42946334D01*
X79051047Y42946334D02*
X79003428Y42851096D01*
X79003428Y42851096D02*
X78955809Y42660620D01*
X78955809Y42660620D02*
X78908190Y42565382D01*
X78908190Y42565382D02*
X78860571Y42517763D01*
X78860571Y42517763D02*
X78765333Y42470144D01*
X78765333Y42470144D02*
X78670095Y42470144D01*
X78670095Y42470144D02*
X78574857Y42517763D01*
X78574857Y42517763D02*
X78527238Y42565382D01*
X78527238Y42565382D02*
X78479619Y42660620D01*
X78479619Y42660620D02*
X78479619Y42898715D01*
X78479619Y42898715D02*
X78527238Y43041572D01*
X78479619Y43327287D02*
X78479619Y43898715D01*
X79479619Y43613001D02*
X78479619Y43613001D01*
X79479619Y44755858D02*
X79479619Y44184430D01*
X79479619Y44470144D02*
X78479619Y44470144D01*
X78479619Y44470144D02*
X78622476Y44374906D01*
X78622476Y44374906D02*
X78717714Y44279668D01*
X78717714Y44279668D02*
X78765333Y44184430D01*
X75157000Y39470000D02*
X79602000Y39470000D01*
X75157000Y30580000D02*
X75157000Y39470000D01*
X75157000Y30580000D02*
X79602000Y30580000D01*
X75157000Y21944000D02*
X75157000Y30580000D01*
X79602000Y21944000D02*
X75157000Y21944000D01*
X77320619Y33548524D02*
X76844428Y33215191D01*
X77320619Y32977096D02*
X76320619Y32977096D01*
X76320619Y32977096D02*
X76320619Y33358048D01*
X76320619Y33358048D02*
X76368238Y33453286D01*
X76368238Y33453286D02*
X76415857Y33500905D01*
X76415857Y33500905D02*
X76511095Y33548524D01*
X76511095Y33548524D02*
X76653952Y33548524D01*
X76653952Y33548524D02*
X76749190Y33500905D01*
X76749190Y33500905D02*
X76796809Y33453286D01*
X76796809Y33453286D02*
X76844428Y33358048D01*
X76844428Y33358048D02*
X76844428Y32977096D01*
X76796809Y33977096D02*
X76796809Y34310429D01*
X77320619Y34453286D02*
X77320619Y33977096D01*
X77320619Y33977096D02*
X76320619Y33977096D01*
X76320619Y33977096D02*
X76320619Y34453286D01*
X77320619Y35358048D02*
X77320619Y34881858D01*
X77320619Y34881858D02*
X76320619Y34881858D01*
X77034904Y35643763D02*
X77034904Y36119953D01*
X77320619Y35548525D02*
X76320619Y35881858D01*
X76320619Y35881858D02*
X77320619Y36215191D01*
X76844428Y36739001D02*
X77320619Y36739001D01*
X76320619Y36405668D02*
X76844428Y36739001D01*
X76844428Y36739001D02*
X76320619Y37072334D01*
X76415857Y38119954D02*
X76368238Y38167573D01*
X76368238Y38167573D02*
X76320619Y38262811D01*
X76320619Y38262811D02*
X76320619Y38500906D01*
X76320619Y38500906D02*
X76368238Y38596144D01*
X76368238Y38596144D02*
X76415857Y38643763D01*
X76415857Y38643763D02*
X76511095Y38691382D01*
X76511095Y38691382D02*
X76606333Y38691382D01*
X76606333Y38691382D02*
X76749190Y38643763D01*
X76749190Y38643763D02*
X77320619Y38072335D01*
X77320619Y38072335D02*
X77320619Y38691382D01*
X77447619Y23896524D02*
X76971428Y23563191D01*
X77447619Y23325096D02*
X76447619Y23325096D01*
X76447619Y23325096D02*
X76447619Y23706048D01*
X76447619Y23706048D02*
X76495238Y23801286D01*
X76495238Y23801286D02*
X76542857Y23848905D01*
X76542857Y23848905D02*
X76638095Y23896524D01*
X76638095Y23896524D02*
X76780952Y23896524D01*
X76780952Y23896524D02*
X76876190Y23848905D01*
X76876190Y23848905D02*
X76923809Y23801286D01*
X76923809Y23801286D02*
X76971428Y23706048D01*
X76971428Y23706048D02*
X76971428Y23325096D01*
X76923809Y24325096D02*
X76923809Y24658429D01*
X77447619Y24801286D02*
X77447619Y24325096D01*
X77447619Y24325096D02*
X76447619Y24325096D01*
X76447619Y24325096D02*
X76447619Y24801286D01*
X77447619Y25706048D02*
X77447619Y25229858D01*
X77447619Y25229858D02*
X76447619Y25229858D01*
X77161904Y25991763D02*
X77161904Y26467953D01*
X77447619Y25896525D02*
X76447619Y26229858D01*
X76447619Y26229858D02*
X77447619Y26563191D01*
X76971428Y27087001D02*
X77447619Y27087001D01*
X76447619Y26753668D02*
X76971428Y27087001D01*
X76971428Y27087001D02*
X76447619Y27420334D01*
X77447619Y29039382D02*
X77447619Y28467954D01*
X77447619Y28753668D02*
X76447619Y28753668D01*
X76447619Y28753668D02*
X76590476Y28658430D01*
X76590476Y28658430D02*
X76685714Y28563192D01*
X76685714Y28563192D02*
X76733333Y28467954D01*
X76236476Y17907096D02*
X76712666Y17907096D01*
X76141238Y17621381D02*
X76474571Y18621381D01*
X76474571Y18621381D02*
X76807904Y17621381D01*
X77712666Y17716620D02*
X77665047Y17669000D01*
X77665047Y17669000D02*
X77522190Y17621381D01*
X77522190Y17621381D02*
X77426952Y17621381D01*
X77426952Y17621381D02*
X77284095Y17669000D01*
X77284095Y17669000D02*
X77188857Y17764239D01*
X77188857Y17764239D02*
X77141238Y17859477D01*
X77141238Y17859477D02*
X77093619Y18049953D01*
X77093619Y18049953D02*
X77093619Y18192810D01*
X77093619Y18192810D02*
X77141238Y18383286D01*
X77141238Y18383286D02*
X77188857Y18478524D01*
X77188857Y18478524D02*
X77284095Y18573762D01*
X77284095Y18573762D02*
X77426952Y18621381D01*
X77426952Y18621381D02*
X77522190Y18621381D01*
X77522190Y18621381D02*
X77665047Y18573762D01*
X77665047Y18573762D02*
X77712666Y18526143D01*
X78903143Y17621381D02*
X78903143Y18621381D01*
X78903143Y18621381D02*
X79474571Y17621381D01*
X79474571Y17621381D02*
X79474571Y18621381D01*
X76363476Y12573096D02*
X76839666Y12573096D01*
X76268238Y12287381D02*
X76601571Y13287381D01*
X76601571Y13287381D02*
X76934904Y12287381D01*
X77839666Y12382620D02*
X77792047Y12335000D01*
X77792047Y12335000D02*
X77649190Y12287381D01*
X77649190Y12287381D02*
X77553952Y12287381D01*
X77553952Y12287381D02*
X77411095Y12335000D01*
X77411095Y12335000D02*
X77315857Y12430239D01*
X77315857Y12430239D02*
X77268238Y12525477D01*
X77268238Y12525477D02*
X77220619Y12715953D01*
X77220619Y12715953D02*
X77220619Y12858810D01*
X77220619Y12858810D02*
X77268238Y13049286D01*
X77268238Y13049286D02*
X77315857Y13144524D01*
X77315857Y13144524D02*
X77411095Y13239762D01*
X77411095Y13239762D02*
X77553952Y13287381D01*
X77553952Y13287381D02*
X77649190Y13287381D01*
X77649190Y13287381D02*
X77792047Y13239762D01*
X77792047Y13239762D02*
X77839666Y13192143D01*
X79506333Y12287381D02*
X79030143Y12287381D01*
X79030143Y12287381D02*
X79030143Y13287381D01*
X33373904Y41878381D02*
X32802476Y41878381D01*
X33088190Y41878381D02*
X33088190Y42878381D01*
X33088190Y42878381D02*
X32992952Y42735524D01*
X32992952Y42735524D02*
X32897714Y42640286D01*
X32897714Y42640286D02*
X32802476Y42592667D01*
X12296619Y41232096D02*
X11296619Y41232096D01*
X11296619Y41232096D02*
X11296619Y41613048D01*
X11296619Y41613048D02*
X11344238Y41708286D01*
X11344238Y41708286D02*
X11391857Y41755905D01*
X11391857Y41755905D02*
X11487095Y41803524D01*
X11487095Y41803524D02*
X11629952Y41803524D01*
X11629952Y41803524D02*
X11725190Y41755905D01*
X11725190Y41755905D02*
X11772809Y41708286D01*
X11772809Y41708286D02*
X11820428Y41613048D01*
X11820428Y41613048D02*
X11820428Y41232096D01*
X12296619Y42232096D02*
X11296619Y42232096D01*
X11296619Y42232096D02*
X11296619Y42613048D01*
X11296619Y42613048D02*
X11344238Y42708286D01*
X11344238Y42708286D02*
X11391857Y42755905D01*
X11391857Y42755905D02*
X11487095Y42803524D01*
X11487095Y42803524D02*
X11629952Y42803524D01*
X11629952Y42803524D02*
X11725190Y42755905D01*
X11725190Y42755905D02*
X11772809Y42708286D01*
X11772809Y42708286D02*
X11820428Y42613048D01*
X11820428Y42613048D02*
X11820428Y42232096D01*
X24568000Y7529477D02*
X24615619Y7672334D01*
X24615619Y7672334D02*
X24615619Y7910429D01*
X24615619Y7910429D02*
X24568000Y8005667D01*
X24568000Y8005667D02*
X24520380Y8053286D01*
X24520380Y8053286D02*
X24425142Y8100905D01*
X24425142Y8100905D02*
X24329904Y8100905D01*
X24329904Y8100905D02*
X24234666Y8053286D01*
X24234666Y8053286D02*
X24187047Y8005667D01*
X24187047Y8005667D02*
X24139428Y7910429D01*
X24139428Y7910429D02*
X24091809Y7719953D01*
X24091809Y7719953D02*
X24044190Y7624715D01*
X24044190Y7624715D02*
X23996571Y7577096D01*
X23996571Y7577096D02*
X23901333Y7529477D01*
X23901333Y7529477D02*
X23806095Y7529477D01*
X23806095Y7529477D02*
X23710857Y7577096D01*
X23710857Y7577096D02*
X23663238Y7624715D01*
X23663238Y7624715D02*
X23615619Y7719953D01*
X23615619Y7719953D02*
X23615619Y7958048D01*
X23615619Y7958048D02*
X23663238Y8100905D01*
X24615619Y8529477D02*
X23615619Y8529477D01*
X23615619Y8529477D02*
X23615619Y8767572D01*
X23615619Y8767572D02*
X23663238Y8910429D01*
X23663238Y8910429D02*
X23758476Y9005667D01*
X23758476Y9005667D02*
X23853714Y9053286D01*
X23853714Y9053286D02*
X24044190Y9100905D01*
X24044190Y9100905D02*
X24187047Y9100905D01*
X24187047Y9100905D02*
X24377523Y9053286D01*
X24377523Y9053286D02*
X24472761Y9005667D01*
X24472761Y9005667D02*
X24568000Y8910429D01*
X24568000Y8910429D02*
X24615619Y8767572D01*
X24615619Y8767572D02*
X24615619Y8529477D01*
X24329904Y9481858D02*
X24329904Y9958048D01*
X24615619Y9386620D02*
X23615619Y9719953D01*
X23615619Y9719953D02*
X24615619Y10053286D01*
X22028000Y7529477D02*
X22075619Y7672334D01*
X22075619Y7672334D02*
X22075619Y7910429D01*
X22075619Y7910429D02*
X22028000Y8005667D01*
X22028000Y8005667D02*
X21980380Y8053286D01*
X21980380Y8053286D02*
X21885142Y8100905D01*
X21885142Y8100905D02*
X21789904Y8100905D01*
X21789904Y8100905D02*
X21694666Y8053286D01*
X21694666Y8053286D02*
X21647047Y8005667D01*
X21647047Y8005667D02*
X21599428Y7910429D01*
X21599428Y7910429D02*
X21551809Y7719953D01*
X21551809Y7719953D02*
X21504190Y7624715D01*
X21504190Y7624715D02*
X21456571Y7577096D01*
X21456571Y7577096D02*
X21361333Y7529477D01*
X21361333Y7529477D02*
X21266095Y7529477D01*
X21266095Y7529477D02*
X21170857Y7577096D01*
X21170857Y7577096D02*
X21123238Y7624715D01*
X21123238Y7624715D02*
X21075619Y7719953D01*
X21075619Y7719953D02*
X21075619Y7958048D01*
X21075619Y7958048D02*
X21123238Y8100905D01*
X21980380Y9100905D02*
X22028000Y9053286D01*
X22028000Y9053286D02*
X22075619Y8910429D01*
X22075619Y8910429D02*
X22075619Y8815191D01*
X22075619Y8815191D02*
X22028000Y8672334D01*
X22028000Y8672334D02*
X21932761Y8577096D01*
X21932761Y8577096D02*
X21837523Y8529477D01*
X21837523Y8529477D02*
X21647047Y8481858D01*
X21647047Y8481858D02*
X21504190Y8481858D01*
X21504190Y8481858D02*
X21313714Y8529477D01*
X21313714Y8529477D02*
X21218476Y8577096D01*
X21218476Y8577096D02*
X21123238Y8672334D01*
X21123238Y8672334D02*
X21075619Y8815191D01*
X21075619Y8815191D02*
X21075619Y8910429D01*
X21075619Y8910429D02*
X21123238Y9053286D01*
X21123238Y9053286D02*
X21170857Y9100905D01*
X22075619Y10005667D02*
X22075619Y9529477D01*
X22075619Y9529477D02*
X21075619Y9529477D01*
X19281666Y7450096D02*
X19281666Y8212000D01*
X19662619Y7831048D02*
X18900714Y7831048D01*
X18662619Y9164381D02*
X18662619Y8688191D01*
X18662619Y8688191D02*
X19138809Y8640572D01*
X19138809Y8640572D02*
X19091190Y8688191D01*
X19091190Y8688191D02*
X19043571Y8783429D01*
X19043571Y8783429D02*
X19043571Y9021524D01*
X19043571Y9021524D02*
X19091190Y9116762D01*
X19091190Y9116762D02*
X19138809Y9164381D01*
X19138809Y9164381D02*
X19234047Y9212000D01*
X19234047Y9212000D02*
X19472142Y9212000D01*
X19472142Y9212000D02*
X19567380Y9164381D01*
X19567380Y9164381D02*
X19615000Y9116762D01*
X19615000Y9116762D02*
X19662619Y9021524D01*
X19662619Y9021524D02*
X19662619Y8783429D01*
X19662619Y8783429D02*
X19615000Y8688191D01*
X19615000Y8688191D02*
X19567380Y8640572D01*
X18662619Y9497715D02*
X19662619Y9831048D01*
X19662619Y9831048D02*
X18662619Y10164381D01*
X16043238Y8100905D02*
X15995619Y8005667D01*
X15995619Y8005667D02*
X15995619Y7862810D01*
X15995619Y7862810D02*
X16043238Y7719953D01*
X16043238Y7719953D02*
X16138476Y7624715D01*
X16138476Y7624715D02*
X16233714Y7577096D01*
X16233714Y7577096D02*
X16424190Y7529477D01*
X16424190Y7529477D02*
X16567047Y7529477D01*
X16567047Y7529477D02*
X16757523Y7577096D01*
X16757523Y7577096D02*
X16852761Y7624715D01*
X16852761Y7624715D02*
X16948000Y7719953D01*
X16948000Y7719953D02*
X16995619Y7862810D01*
X16995619Y7862810D02*
X16995619Y7958048D01*
X16995619Y7958048D02*
X16948000Y8100905D01*
X16948000Y8100905D02*
X16900380Y8148524D01*
X16900380Y8148524D02*
X16567047Y8148524D01*
X16567047Y8148524D02*
X16567047Y7958048D01*
X16995619Y8577096D02*
X15995619Y8577096D01*
X15995619Y8577096D02*
X16995619Y9148524D01*
X16995619Y9148524D02*
X15995619Y9148524D01*
X16995619Y9624715D02*
X15995619Y9624715D01*
X15995619Y9624715D02*
X15995619Y9862810D01*
X15995619Y9862810D02*
X16043238Y10005667D01*
X16043238Y10005667D02*
X16138476Y10100905D01*
X16138476Y10100905D02*
X16233714Y10148524D01*
X16233714Y10148524D02*
X16424190Y10196143D01*
X16424190Y10196143D02*
X16567047Y10196143D01*
X16567047Y10196143D02*
X16757523Y10148524D01*
X16757523Y10148524D02*
X16852761Y10100905D01*
X16852761Y10100905D02*
X16948000Y10005667D01*
X16948000Y10005667D02*
X16995619Y9862810D01*
X16995619Y9862810D02*
X16995619Y9624715D01*
X12169619Y45423096D02*
X11169619Y45423096D01*
X11169619Y45423096D02*
X11169619Y45804048D01*
X11169619Y45804048D02*
X11217238Y45899286D01*
X11217238Y45899286D02*
X11264857Y45946905D01*
X11264857Y45946905D02*
X11360095Y45994524D01*
X11360095Y45994524D02*
X11502952Y45994524D01*
X11502952Y45994524D02*
X11598190Y45946905D01*
X11598190Y45946905D02*
X11645809Y45899286D01*
X11645809Y45899286D02*
X11693428Y45804048D01*
X11693428Y45804048D02*
X11693428Y45423096D01*
X12169619Y46423096D02*
X11169619Y46423096D01*
X12169619Y47375476D02*
X12169619Y46899286D01*
X12169619Y46899286D02*
X11169619Y46899286D01*
X11169619Y47899286D02*
X11169619Y48089762D01*
X11169619Y48089762D02*
X11217238Y48185000D01*
X11217238Y48185000D02*
X11312476Y48280238D01*
X11312476Y48280238D02*
X11502952Y48327857D01*
X11502952Y48327857D02*
X11836285Y48327857D01*
X11836285Y48327857D02*
X12026761Y48280238D01*
X12026761Y48280238D02*
X12122000Y48185000D01*
X12122000Y48185000D02*
X12169619Y48089762D01*
X12169619Y48089762D02*
X12169619Y47899286D01*
X12169619Y47899286D02*
X12122000Y47804048D01*
X12122000Y47804048D02*
X12026761Y47708810D01*
X12026761Y47708810D02*
X11836285Y47661191D01*
X11836285Y47661191D02*
X11502952Y47661191D01*
X11502952Y47661191D02*
X11312476Y47708810D01*
X11312476Y47708810D02*
X11217238Y47804048D01*
X11217238Y47804048D02*
X11169619Y47899286D01*
X11169619Y48613572D02*
X11169619Y49185000D01*
X12169619Y48899286D02*
X11169619Y48899286D01*
X4465523Y8477381D02*
X4132190Y8953572D01*
X3894095Y8477381D02*
X3894095Y9477381D01*
X3894095Y9477381D02*
X4275047Y9477381D01*
X4275047Y9477381D02*
X4370285Y9429762D01*
X4370285Y9429762D02*
X4417904Y9382143D01*
X4417904Y9382143D02*
X4465523Y9286905D01*
X4465523Y9286905D02*
X4465523Y9144048D01*
X4465523Y9144048D02*
X4417904Y9048810D01*
X4417904Y9048810D02*
X4370285Y9001191D01*
X4370285Y9001191D02*
X4275047Y8953572D01*
X4275047Y8953572D02*
X3894095Y8953572D01*
X4846476Y8525000D02*
X4989333Y8477381D01*
X4989333Y8477381D02*
X5227428Y8477381D01*
X5227428Y8477381D02*
X5322666Y8525000D01*
X5322666Y8525000D02*
X5370285Y8572620D01*
X5370285Y8572620D02*
X5417904Y8667858D01*
X5417904Y8667858D02*
X5417904Y8763096D01*
X5417904Y8763096D02*
X5370285Y8858334D01*
X5370285Y8858334D02*
X5322666Y8905953D01*
X5322666Y8905953D02*
X5227428Y8953572D01*
X5227428Y8953572D02*
X5036952Y9001191D01*
X5036952Y9001191D02*
X4941714Y9048810D01*
X4941714Y9048810D02*
X4894095Y9096429D01*
X4894095Y9096429D02*
X4846476Y9191667D01*
X4846476Y9191667D02*
X4846476Y9286905D01*
X4846476Y9286905D02*
X4894095Y9382143D01*
X4894095Y9382143D02*
X4941714Y9429762D01*
X4941714Y9429762D02*
X5036952Y9477381D01*
X5036952Y9477381D02*
X5275047Y9477381D01*
X5275047Y9477381D02*
X5417904Y9429762D01*
X5703619Y9477381D02*
X6275047Y9477381D01*
X5989333Y8477381D02*
X5989333Y9477381D01*
X3878238Y12144381D02*
X4449666Y12144381D01*
X4163952Y11144381D02*
X4163952Y12144381D01*
X4687762Y12144381D02*
X5354428Y11144381D01*
X5354428Y12144381D02*
X4687762Y11144381D01*
X4465523Y13684381D02*
X4132190Y14160572D01*
X3894095Y13684381D02*
X3894095Y14684381D01*
X3894095Y14684381D02*
X4275047Y14684381D01*
X4275047Y14684381D02*
X4370285Y14636762D01*
X4370285Y14636762D02*
X4417904Y14589143D01*
X4417904Y14589143D02*
X4465523Y14493905D01*
X4465523Y14493905D02*
X4465523Y14351048D01*
X4465523Y14351048D02*
X4417904Y14255810D01*
X4417904Y14255810D02*
X4370285Y14208191D01*
X4370285Y14208191D02*
X4275047Y14160572D01*
X4275047Y14160572D02*
X3894095Y14160572D01*
X4798857Y14684381D02*
X5465523Y13684381D01*
X5465523Y14684381D02*
X4798857Y13684381D01*
X3640095Y16732334D02*
X4402000Y16732334D01*
X4021047Y16351381D02*
X4021047Y17113286D01*
X5401999Y16351381D02*
X4830571Y16351381D01*
X5116285Y16351381D02*
X5116285Y17351381D01*
X5116285Y17351381D02*
X5021047Y17208524D01*
X5021047Y17208524D02*
X4925809Y17113286D01*
X4925809Y17113286D02*
X4830571Y17065667D01*
X5782952Y17256143D02*
X5830571Y17303762D01*
X5830571Y17303762D02*
X5925809Y17351381D01*
X5925809Y17351381D02*
X6163904Y17351381D01*
X6163904Y17351381D02*
X6259142Y17303762D01*
X6259142Y17303762D02*
X6306761Y17256143D01*
X6306761Y17256143D02*
X6354380Y17160905D01*
X6354380Y17160905D02*
X6354380Y17065667D01*
X6354380Y17065667D02*
X6306761Y16922810D01*
X6306761Y16922810D02*
X5735333Y16351381D01*
X5735333Y16351381D02*
X6354380Y16351381D01*
X6640095Y17351381D02*
X6973428Y16351381D01*
X6973428Y16351381D02*
X7306761Y17351381D01*
X3767095Y19145334D02*
X4529000Y19145334D01*
X4148047Y18764381D02*
X4148047Y19526286D01*
X5481380Y19764381D02*
X5005190Y19764381D01*
X5005190Y19764381D02*
X4957571Y19288191D01*
X4957571Y19288191D02*
X5005190Y19335810D01*
X5005190Y19335810D02*
X5100428Y19383429D01*
X5100428Y19383429D02*
X5338523Y19383429D01*
X5338523Y19383429D02*
X5433761Y19335810D01*
X5433761Y19335810D02*
X5481380Y19288191D01*
X5481380Y19288191D02*
X5528999Y19192953D01*
X5528999Y19192953D02*
X5528999Y18954858D01*
X5528999Y18954858D02*
X5481380Y18859620D01*
X5481380Y18859620D02*
X5433761Y18812000D01*
X5433761Y18812000D02*
X5338523Y18764381D01*
X5338523Y18764381D02*
X5100428Y18764381D01*
X5100428Y18764381D02*
X5005190Y18812000D01*
X5005190Y18812000D02*
X4957571Y18859620D01*
X5814714Y19764381D02*
X6148047Y18764381D01*
X6148047Y18764381D02*
X6481380Y19764381D01*
X4290904Y22129762D02*
X4195666Y22177381D01*
X4195666Y22177381D02*
X4052809Y22177381D01*
X4052809Y22177381D02*
X3909952Y22129762D01*
X3909952Y22129762D02*
X3814714Y22034524D01*
X3814714Y22034524D02*
X3767095Y21939286D01*
X3767095Y21939286D02*
X3719476Y21748810D01*
X3719476Y21748810D02*
X3719476Y21605953D01*
X3719476Y21605953D02*
X3767095Y21415477D01*
X3767095Y21415477D02*
X3814714Y21320239D01*
X3814714Y21320239D02*
X3909952Y21225000D01*
X3909952Y21225000D02*
X4052809Y21177381D01*
X4052809Y21177381D02*
X4148047Y21177381D01*
X4148047Y21177381D02*
X4290904Y21225000D01*
X4290904Y21225000D02*
X4338523Y21272620D01*
X4338523Y21272620D02*
X4338523Y21605953D01*
X4338523Y21605953D02*
X4148047Y21605953D01*
X4767095Y21177381D02*
X4767095Y22177381D01*
X4767095Y22177381D02*
X5338523Y21177381D01*
X5338523Y21177381D02*
X5338523Y22177381D01*
X5814714Y21177381D02*
X5814714Y22177381D01*
X5814714Y22177381D02*
X6052809Y22177381D01*
X6052809Y22177381D02*
X6195666Y22129762D01*
X6195666Y22129762D02*
X6290904Y22034524D01*
X6290904Y22034524D02*
X6338523Y21939286D01*
X6338523Y21939286D02*
X6386142Y21748810D01*
X6386142Y21748810D02*
X6386142Y21605953D01*
X6386142Y21605953D02*
X6338523Y21415477D01*
X6338523Y21415477D02*
X6290904Y21320239D01*
X6290904Y21320239D02*
X6195666Y21225000D01*
X6195666Y21225000D02*
X6052809Y21177381D01*
X6052809Y21177381D02*
X5814714Y21177381D01*
%TO.C,J6*%
X13175619Y1417667D02*
X13889904Y1417667D01*
X13889904Y1417667D02*
X14032761Y1370048D01*
X14032761Y1370048D02*
X14128000Y1274810D01*
X14128000Y1274810D02*
X14175619Y1131953D01*
X14175619Y1131953D02*
X14175619Y1036715D01*
X13175619Y2322429D02*
X13175619Y2131953D01*
X13175619Y2131953D02*
X13223238Y2036715D01*
X13223238Y2036715D02*
X13270857Y1989096D01*
X13270857Y1989096D02*
X13413714Y1893858D01*
X13413714Y1893858D02*
X13604190Y1846239D01*
X13604190Y1846239D02*
X13985142Y1846239D01*
X13985142Y1846239D02*
X14080380Y1893858D01*
X14080380Y1893858D02*
X14128000Y1941477D01*
X14128000Y1941477D02*
X14175619Y2036715D01*
X14175619Y2036715D02*
X14175619Y2227191D01*
X14175619Y2227191D02*
X14128000Y2322429D01*
X14128000Y2322429D02*
X14080380Y2370048D01*
X14080380Y2370048D02*
X13985142Y2417667D01*
X13985142Y2417667D02*
X13747047Y2417667D01*
X13747047Y2417667D02*
X13651809Y2370048D01*
X13651809Y2370048D02*
X13604190Y2322429D01*
X13604190Y2322429D02*
X13556571Y2227191D01*
X13556571Y2227191D02*
X13556571Y2036715D01*
X13556571Y2036715D02*
X13604190Y1941477D01*
X13604190Y1941477D02*
X13651809Y1893858D01*
X13651809Y1893858D02*
X13747047Y1846239D01*
%TO.C,Y1*%
X30027428Y19535810D02*
X30503619Y19535810D01*
X29503619Y19202477D02*
X30027428Y19535810D01*
X30027428Y19535810D02*
X29503619Y19869143D01*
X30503619Y20726286D02*
X30503619Y20154858D01*
X30503619Y20440572D02*
X29503619Y20440572D01*
X29503619Y20440572D02*
X29646476Y20345334D01*
X29646476Y20345334D02*
X29741714Y20250096D01*
X29741714Y20250096D02*
X29789333Y20154858D01*
%TO.C,J4*%
X6116666Y51056381D02*
X6116666Y50342096D01*
X6116666Y50342096D02*
X6069047Y50199239D01*
X6069047Y50199239D02*
X5973809Y50104000D01*
X5973809Y50104000D02*
X5830952Y50056381D01*
X5830952Y50056381D02*
X5735714Y50056381D01*
X7021428Y50723048D02*
X7021428Y50056381D01*
X6783333Y51104000D02*
X6545238Y50389715D01*
X6545238Y50389715D02*
X7164285Y50389715D01*
%TO.C,U5*%
X60288095Y46567381D02*
X60288095Y45757858D01*
X60288095Y45757858D02*
X60335714Y45662620D01*
X60335714Y45662620D02*
X60383333Y45615000D01*
X60383333Y45615000D02*
X60478571Y45567381D01*
X60478571Y45567381D02*
X60669047Y45567381D01*
X60669047Y45567381D02*
X60764285Y45615000D01*
X60764285Y45615000D02*
X60811904Y45662620D01*
X60811904Y45662620D02*
X60859523Y45757858D01*
X60859523Y45757858D02*
X60859523Y46567381D01*
X61811904Y46567381D02*
X61335714Y46567381D01*
X61335714Y46567381D02*
X61288095Y46091191D01*
X61288095Y46091191D02*
X61335714Y46138810D01*
X61335714Y46138810D02*
X61430952Y46186429D01*
X61430952Y46186429D02*
X61669047Y46186429D01*
X61669047Y46186429D02*
X61764285Y46138810D01*
X61764285Y46138810D02*
X61811904Y46091191D01*
X61811904Y46091191D02*
X61859523Y45995953D01*
X61859523Y45995953D02*
X61859523Y45757858D01*
X61859523Y45757858D02*
X61811904Y45662620D01*
X61811904Y45662620D02*
X61764285Y45615000D01*
X61764285Y45615000D02*
X61669047Y45567381D01*
X61669047Y45567381D02*
X61430952Y45567381D01*
X61430952Y45567381D02*
X61335714Y45615000D01*
X61335714Y45615000D02*
X61288095Y45662620D01*
%TO.C,U4*%
X64108095Y42327381D02*
X64108095Y41517858D01*
X64108095Y41517858D02*
X64155714Y41422620D01*
X64155714Y41422620D02*
X64203333Y41375000D01*
X64203333Y41375000D02*
X64298571Y41327381D01*
X64298571Y41327381D02*
X64489047Y41327381D01*
X64489047Y41327381D02*
X64584285Y41375000D01*
X64584285Y41375000D02*
X64631904Y41422620D01*
X64631904Y41422620D02*
X64679523Y41517858D01*
X64679523Y41517858D02*
X64679523Y42327381D01*
X65584285Y41994048D02*
X65584285Y41327381D01*
X65346190Y42375000D02*
X65108095Y41660715D01*
X65108095Y41660715D02*
X65727142Y41660715D01*
%TO.C,U3*%
X64108095Y29627381D02*
X64108095Y28817858D01*
X64108095Y28817858D02*
X64155714Y28722620D01*
X64155714Y28722620D02*
X64203333Y28675000D01*
X64203333Y28675000D02*
X64298571Y28627381D01*
X64298571Y28627381D02*
X64489047Y28627381D01*
X64489047Y28627381D02*
X64584285Y28675000D01*
X64584285Y28675000D02*
X64631904Y28722620D01*
X64631904Y28722620D02*
X64679523Y28817858D01*
X64679523Y28817858D02*
X64679523Y29627381D01*
X65060476Y29627381D02*
X65679523Y29627381D01*
X65679523Y29627381D02*
X65346190Y29246429D01*
X65346190Y29246429D02*
X65489047Y29246429D01*
X65489047Y29246429D02*
X65584285Y29198810D01*
X65584285Y29198810D02*
X65631904Y29151191D01*
X65631904Y29151191D02*
X65679523Y29055953D01*
X65679523Y29055953D02*
X65679523Y28817858D01*
X65679523Y28817858D02*
X65631904Y28722620D01*
X65631904Y28722620D02*
X65584285Y28675000D01*
X65584285Y28675000D02*
X65489047Y28627381D01*
X65489047Y28627381D02*
X65203333Y28627381D01*
X65203333Y28627381D02*
X65108095Y28675000D01*
X65108095Y28675000D02*
X65060476Y28722620D01*
%TO.C,RV1*%
X63772619Y7124762D02*
X63296428Y6791429D01*
X63772619Y6553334D02*
X62772619Y6553334D01*
X62772619Y6553334D02*
X62772619Y6934286D01*
X62772619Y6934286D02*
X62820238Y7029524D01*
X62820238Y7029524D02*
X62867857Y7077143D01*
X62867857Y7077143D02*
X62963095Y7124762D01*
X62963095Y7124762D02*
X63105952Y7124762D01*
X63105952Y7124762D02*
X63201190Y7077143D01*
X63201190Y7077143D02*
X63248809Y7029524D01*
X63248809Y7029524D02*
X63296428Y6934286D01*
X63296428Y6934286D02*
X63296428Y6553334D01*
X62772619Y7410477D02*
X63772619Y7743810D01*
X63772619Y7743810D02*
X62772619Y8077143D01*
X63772619Y8934286D02*
X63772619Y8362858D01*
X63772619Y8648572D02*
X62772619Y8648572D01*
X62772619Y8648572D02*
X62915476Y8553334D01*
X62915476Y8553334D02*
X63010714Y8458096D01*
X63010714Y8458096D02*
X63058333Y8362858D01*
%TO.C,R7*%
X68962619Y50733334D02*
X68486428Y50400001D01*
X68962619Y50161906D02*
X67962619Y50161906D01*
X67962619Y50161906D02*
X67962619Y50542858D01*
X67962619Y50542858D02*
X68010238Y50638096D01*
X68010238Y50638096D02*
X68057857Y50685715D01*
X68057857Y50685715D02*
X68153095Y50733334D01*
X68153095Y50733334D02*
X68295952Y50733334D01*
X68295952Y50733334D02*
X68391190Y50685715D01*
X68391190Y50685715D02*
X68438809Y50638096D01*
X68438809Y50638096D02*
X68486428Y50542858D01*
X68486428Y50542858D02*
X68486428Y50161906D01*
X67962619Y51066668D02*
X67962619Y51733334D01*
X67962619Y51733334D02*
X68962619Y51304763D01*
%TO.C,R6*%
X74222619Y48701334D02*
X73746428Y48368001D01*
X74222619Y48129906D02*
X73222619Y48129906D01*
X73222619Y48129906D02*
X73222619Y48510858D01*
X73222619Y48510858D02*
X73270238Y48606096D01*
X73270238Y48606096D02*
X73317857Y48653715D01*
X73317857Y48653715D02*
X73413095Y48701334D01*
X73413095Y48701334D02*
X73555952Y48701334D01*
X73555952Y48701334D02*
X73651190Y48653715D01*
X73651190Y48653715D02*
X73698809Y48606096D01*
X73698809Y48606096D02*
X73746428Y48510858D01*
X73746428Y48510858D02*
X73746428Y48129906D01*
X73222619Y49558477D02*
X73222619Y49368001D01*
X73222619Y49368001D02*
X73270238Y49272763D01*
X73270238Y49272763D02*
X73317857Y49225144D01*
X73317857Y49225144D02*
X73460714Y49129906D01*
X73460714Y49129906D02*
X73651190Y49082287D01*
X73651190Y49082287D02*
X74032142Y49082287D01*
X74032142Y49082287D02*
X74127380Y49129906D01*
X74127380Y49129906D02*
X74175000Y49177525D01*
X74175000Y49177525D02*
X74222619Y49272763D01*
X74222619Y49272763D02*
X74222619Y49463239D01*
X74222619Y49463239D02*
X74175000Y49558477D01*
X74175000Y49558477D02*
X74127380Y49606096D01*
X74127380Y49606096D02*
X74032142Y49653715D01*
X74032142Y49653715D02*
X73794047Y49653715D01*
X73794047Y49653715D02*
X73698809Y49606096D01*
X73698809Y49606096D02*
X73651190Y49558477D01*
X73651190Y49558477D02*
X73603571Y49463239D01*
X73603571Y49463239D02*
X73603571Y49272763D01*
X73603571Y49272763D02*
X73651190Y49177525D01*
X73651190Y49177525D02*
X73698809Y49129906D01*
X73698809Y49129906D02*
X73794047Y49082287D01*
%TO.C,PS1*%
X30915619Y1806715D02*
X29915619Y1806715D01*
X29915619Y1806715D02*
X29915619Y2187667D01*
X29915619Y2187667D02*
X29963238Y2282905D01*
X29963238Y2282905D02*
X30010857Y2330524D01*
X30010857Y2330524D02*
X30106095Y2378143D01*
X30106095Y2378143D02*
X30248952Y2378143D01*
X30248952Y2378143D02*
X30344190Y2330524D01*
X30344190Y2330524D02*
X30391809Y2282905D01*
X30391809Y2282905D02*
X30439428Y2187667D01*
X30439428Y2187667D02*
X30439428Y1806715D01*
X30868000Y2759096D02*
X30915619Y2901953D01*
X30915619Y2901953D02*
X30915619Y3140048D01*
X30915619Y3140048D02*
X30868000Y3235286D01*
X30868000Y3235286D02*
X30820380Y3282905D01*
X30820380Y3282905D02*
X30725142Y3330524D01*
X30725142Y3330524D02*
X30629904Y3330524D01*
X30629904Y3330524D02*
X30534666Y3282905D01*
X30534666Y3282905D02*
X30487047Y3235286D01*
X30487047Y3235286D02*
X30439428Y3140048D01*
X30439428Y3140048D02*
X30391809Y2949572D01*
X30391809Y2949572D02*
X30344190Y2854334D01*
X30344190Y2854334D02*
X30296571Y2806715D01*
X30296571Y2806715D02*
X30201333Y2759096D01*
X30201333Y2759096D02*
X30106095Y2759096D01*
X30106095Y2759096D02*
X30010857Y2806715D01*
X30010857Y2806715D02*
X29963238Y2854334D01*
X29963238Y2854334D02*
X29915619Y2949572D01*
X29915619Y2949572D02*
X29915619Y3187667D01*
X29915619Y3187667D02*
X29963238Y3330524D01*
X30915619Y4282905D02*
X30915619Y3711477D01*
X30915619Y3997191D02*
X29915619Y3997191D01*
X29915619Y3997191D02*
X30058476Y3901953D01*
X30058476Y3901953D02*
X30153714Y3806715D01*
X30153714Y3806715D02*
X30201333Y3711477D01*
%TO.C,K1*%
X27301905Y50818381D02*
X27301905Y51818381D01*
X27873333Y50818381D02*
X27444762Y51389810D01*
X27873333Y51818381D02*
X27301905Y51246953D01*
X28825714Y50818381D02*
X28254286Y50818381D01*
X28540000Y50818381D02*
X28540000Y51818381D01*
X28540000Y51818381D02*
X28444762Y51675524D01*
X28444762Y51675524D02*
X28349524Y51580286D01*
X28349524Y51580286D02*
X28254286Y51532667D01*
%TO.C,J5*%
X83586666Y9908381D02*
X83586666Y9194096D01*
X83586666Y9194096D02*
X83539047Y9051239D01*
X83539047Y9051239D02*
X83443809Y8956000D01*
X83443809Y8956000D02*
X83300952Y8908381D01*
X83300952Y8908381D02*
X83205714Y8908381D01*
X84539047Y9908381D02*
X84062857Y9908381D01*
X84062857Y9908381D02*
X84015238Y9432191D01*
X84015238Y9432191D02*
X84062857Y9479810D01*
X84062857Y9479810D02*
X84158095Y9527429D01*
X84158095Y9527429D02*
X84396190Y9527429D01*
X84396190Y9527429D02*
X84491428Y9479810D01*
X84491428Y9479810D02*
X84539047Y9432191D01*
X84539047Y9432191D02*
X84586666Y9336953D01*
X84586666Y9336953D02*
X84586666Y9098858D01*
X84586666Y9098858D02*
X84539047Y9003620D01*
X84539047Y9003620D02*
X84491428Y8956000D01*
X84491428Y8956000D02*
X84396190Y8908381D01*
X84396190Y8908381D02*
X84158095Y8908381D01*
X84158095Y8908381D02*
X84062857Y8956000D01*
X84062857Y8956000D02*
X84015238Y9003620D01*
%TO.C,J3*%
X1671666Y24997381D02*
X1671666Y24283096D01*
X1671666Y24283096D02*
X1624047Y24140239D01*
X1624047Y24140239D02*
X1528809Y24045000D01*
X1528809Y24045000D02*
X1385952Y23997381D01*
X1385952Y23997381D02*
X1290714Y23997381D01*
X2052619Y24997381D02*
X2671666Y24997381D01*
X2671666Y24997381D02*
X2338333Y24616429D01*
X2338333Y24616429D02*
X2481190Y24616429D01*
X2481190Y24616429D02*
X2576428Y24568810D01*
X2576428Y24568810D02*
X2624047Y24521191D01*
X2624047Y24521191D02*
X2671666Y24425953D01*
X2671666Y24425953D02*
X2671666Y24187858D01*
X2671666Y24187858D02*
X2624047Y24092620D01*
X2624047Y24092620D02*
X2576428Y24045000D01*
X2576428Y24045000D02*
X2481190Y23997381D01*
X2481190Y23997381D02*
X2195476Y23997381D01*
X2195476Y23997381D02*
X2100238Y24045000D01*
X2100238Y24045000D02*
X2052619Y24092620D01*
%TO.C,J2*%
X13175619Y5608667D02*
X13889904Y5608667D01*
X13889904Y5608667D02*
X14032761Y5561048D01*
X14032761Y5561048D02*
X14128000Y5465810D01*
X14128000Y5465810D02*
X14175619Y5322953D01*
X14175619Y5322953D02*
X14175619Y5227715D01*
X13270857Y6037239D02*
X13223238Y6084858D01*
X13223238Y6084858D02*
X13175619Y6180096D01*
X13175619Y6180096D02*
X13175619Y6418191D01*
X13175619Y6418191D02*
X13223238Y6513429D01*
X13223238Y6513429D02*
X13270857Y6561048D01*
X13270857Y6561048D02*
X13366095Y6608667D01*
X13366095Y6608667D02*
X13461333Y6608667D01*
X13461333Y6608667D02*
X13604190Y6561048D01*
X13604190Y6561048D02*
X14175619Y5989620D01*
X14175619Y5989620D02*
X14175619Y6608667D01*
%TO.C,J1*%
X32792619Y45486667D02*
X33506904Y45486667D01*
X33506904Y45486667D02*
X33649761Y45439048D01*
X33649761Y45439048D02*
X33745000Y45343810D01*
X33745000Y45343810D02*
X33792619Y45200953D01*
X33792619Y45200953D02*
X33792619Y45105715D01*
X33792619Y46486667D02*
X33792619Y45915239D01*
X33792619Y46200953D02*
X32792619Y46200953D01*
X32792619Y46200953D02*
X32935476Y46105715D01*
X32935476Y46105715D02*
X33030714Y46010477D01*
X33030714Y46010477D02*
X33078333Y45915239D01*
%TO.C,F2*%
X70776666Y9403191D02*
X70443333Y9403191D01*
X70443333Y8879381D02*
X70443333Y9879381D01*
X70443333Y9879381D02*
X70919523Y9879381D01*
X71252857Y9784143D02*
X71300476Y9831762D01*
X71300476Y9831762D02*
X71395714Y9879381D01*
X71395714Y9879381D02*
X71633809Y9879381D01*
X71633809Y9879381D02*
X71729047Y9831762D01*
X71729047Y9831762D02*
X71776666Y9784143D01*
X71776666Y9784143D02*
X71824285Y9688905D01*
X71824285Y9688905D02*
X71824285Y9593667D01*
X71824285Y9593667D02*
X71776666Y9450810D01*
X71776666Y9450810D02*
X71205238Y8879381D01*
X71205238Y8879381D02*
X71824285Y8879381D01*
%TO.C,F1*%
X70776666Y2291191D02*
X70443333Y2291191D01*
X70443333Y1767381D02*
X70443333Y2767381D01*
X70443333Y2767381D02*
X70919523Y2767381D01*
X71824285Y1767381D02*
X71252857Y1767381D01*
X71538571Y1767381D02*
X71538571Y2767381D01*
X71538571Y2767381D02*
X71443333Y2624524D01*
X71443333Y2624524D02*
X71348095Y2529286D01*
X71348095Y2529286D02*
X71252857Y2481667D01*
%TO.C,C6*%
X49491333Y40202620D02*
X49443714Y40155000D01*
X49443714Y40155000D02*
X49300857Y40107381D01*
X49300857Y40107381D02*
X49205619Y40107381D01*
X49205619Y40107381D02*
X49062762Y40155000D01*
X49062762Y40155000D02*
X48967524Y40250239D01*
X48967524Y40250239D02*
X48919905Y40345477D01*
X48919905Y40345477D02*
X48872286Y40535953D01*
X48872286Y40535953D02*
X48872286Y40678810D01*
X48872286Y40678810D02*
X48919905Y40869286D01*
X48919905Y40869286D02*
X48967524Y40964524D01*
X48967524Y40964524D02*
X49062762Y41059762D01*
X49062762Y41059762D02*
X49205619Y41107381D01*
X49205619Y41107381D02*
X49300857Y41107381D01*
X49300857Y41107381D02*
X49443714Y41059762D01*
X49443714Y41059762D02*
X49491333Y41012143D01*
X50348476Y41107381D02*
X50158000Y41107381D01*
X50158000Y41107381D02*
X50062762Y41059762D01*
X50062762Y41059762D02*
X50015143Y41012143D01*
X50015143Y41012143D02*
X49919905Y40869286D01*
X49919905Y40869286D02*
X49872286Y40678810D01*
X49872286Y40678810D02*
X49872286Y40297858D01*
X49872286Y40297858D02*
X49919905Y40202620D01*
X49919905Y40202620D02*
X49967524Y40155000D01*
X49967524Y40155000D02*
X50062762Y40107381D01*
X50062762Y40107381D02*
X50253238Y40107381D01*
X50253238Y40107381D02*
X50348476Y40155000D01*
X50348476Y40155000D02*
X50396095Y40202620D01*
X50396095Y40202620D02*
X50443714Y40297858D01*
X50443714Y40297858D02*
X50443714Y40535953D01*
X50443714Y40535953D02*
X50396095Y40631191D01*
X50396095Y40631191D02*
X50348476Y40678810D01*
X50348476Y40678810D02*
X50253238Y40726429D01*
X50253238Y40726429D02*
X50062762Y40726429D01*
X50062762Y40726429D02*
X49967524Y40678810D01*
X49967524Y40678810D02*
X49919905Y40631191D01*
X49919905Y40631191D02*
X49872286Y40535953D01*
D11*
%TO.C,J6*%
X15153000Y1751000D02*
X15153000Y3081000D01*
X15153000Y3081000D02*
X16483000Y3081000D01*
X17753000Y421000D02*
X25433000Y421000D01*
X17753000Y421000D02*
X17753000Y3081000D01*
X17753000Y3081000D02*
X25433000Y3081000D01*
X25433000Y421000D02*
X25433000Y3081000D01*
%TO.C,Y1*%
X23991000Y23137000D02*
X23991000Y16887000D01*
X29041000Y23137000D02*
X29041000Y16887000D01*
X23991000Y16887000D02*
G75*
G03*
X29041000Y16887000I2525000J0D01*
G01*
X29041000Y23137000D02*
G75*
G03*
X23991000Y23137000I-2525000J0D01*
G01*
%TO.C,J4*%
X1390000Y49570000D02*
X1390000Y39450000D01*
X4903000Y48292000D02*
X4796000Y48398000D01*
X5176000Y43017000D02*
X4796000Y43397000D01*
X8104000Y45622000D02*
X7997000Y45729000D01*
X1150000Y49810000D02*
X1150000Y49410000D01*
X2950000Y49570000D02*
X2950000Y39450000D01*
X5458000Y43268000D02*
X5062000Y43663000D01*
X1790000Y49810000D02*
X1150000Y49810000D01*
X5169000Y48558000D02*
X5062000Y48664000D01*
X7838000Y40356000D02*
X7442000Y40751000D01*
X10510000Y39450000D02*
X1390000Y39450000D01*
X1850000Y49570000D02*
X1850000Y39450000D01*
X7838000Y45356000D02*
X7731000Y45463000D01*
X10510000Y49570000D02*
X10510000Y39450000D01*
X8104000Y40622000D02*
X7724000Y41002000D01*
X10510000Y49570000D02*
X1390000Y49570000D01*
X8630000Y42010000D02*
G75*
G03*
X8630000Y42010000I-2180000J0D01*
G01*
X8630000Y47010000D02*
G75*
G03*
X8630000Y47010000I-2180000J0D01*
G01*
%TO.C,U5*%
X62050000Y47030000D02*
G75*
G03*
X60050000Y47030000I-1000000J0D01*
G01*
X63700000Y57310000D02*
X58400000Y57310000D01*
X62050000Y47030000D02*
X63700000Y47030000D01*
X58400000Y57310000D02*
X58400000Y47030000D01*
X63700000Y47030000D02*
X63700000Y57310000D01*
X58400000Y47030000D02*
X60050000Y47030000D01*
%TO.C,U4*%
X63870000Y40790000D02*
G75*
G03*
X65870000Y40790000I1000000J0D01*
G01*
X67520000Y30510000D02*
X67520000Y40790000D01*
X67520000Y40790000D02*
X65870000Y40790000D01*
X63870000Y40790000D02*
X62220000Y40790000D01*
X62220000Y40790000D02*
X62220000Y30510000D01*
X62220000Y30510000D02*
X67520000Y30510000D01*
%TO.C,U3*%
X62220000Y17810000D02*
X67520000Y17810000D01*
X62220000Y28090000D02*
X62220000Y17810000D01*
X63870000Y28090000D02*
X62220000Y28090000D01*
X67520000Y28090000D02*
X65870000Y28090000D01*
X67520000Y17810000D02*
X67520000Y28090000D01*
X63870000Y28090000D02*
G75*
G03*
X65870000Y28090000I1000000J0D01*
G01*
D10*
%TO.C,RV1*%
X58410000Y1720000D02*
X62310000Y1720000D01*
X58410000Y1720000D02*
X58410000Y13720000D01*
X58410000Y13720000D02*
X62310000Y13720000D01*
X62310000Y1720000D02*
X62310000Y13720000D01*
D11*
%TO.C,R7*%
X71220000Y57480000D02*
X71220000Y55520000D01*
X72940000Y55520000D02*
X69500000Y55520000D01*
X71220000Y44320000D02*
X71220000Y46280000D01*
X69500000Y55520000D02*
X69500000Y46280000D01*
X69500000Y46280000D02*
X72940000Y46280000D01*
X72940000Y46280000D02*
X72940000Y55520000D01*
%TO.C,R6*%
X78020000Y43740000D02*
X78020000Y52980000D01*
X74580000Y43740000D02*
X78020000Y43740000D01*
X74580000Y52980000D02*
X74580000Y43740000D01*
X76300000Y41780000D02*
X76300000Y43740000D01*
X78020000Y52980000D02*
X74580000Y52980000D01*
X76300000Y54940000D02*
X76300000Y52980000D01*
%TO.C,PS1*%
X54922500Y39562500D02*
X54922500Y39552500D01*
X54912500Y39562500D02*
X54922500Y39562500D01*
X31932500Y39562500D02*
X54912500Y39562500D01*
X31922500Y39562500D02*
X31932500Y39562500D01*
X54922500Y39552500D02*
X54922500Y1572500D01*
X31922500Y39552500D02*
X31922500Y39562500D01*
X54922500Y1572500D02*
X54922500Y1562500D01*
X31922500Y1572500D02*
X31922500Y39552500D01*
X54922500Y1562500D02*
X54912500Y1562500D01*
X54912500Y1562500D02*
X31932500Y1562500D01*
X31932500Y1562500D02*
X31922500Y1562500D01*
X31922500Y1562500D02*
X31922500Y1572500D01*
X31422500Y1062500D02*
X31422500Y4062500D01*
X31422500Y1062500D02*
X34422500Y1062500D01*
%TO.C,K1*%
X19905000Y36190000D02*
X19905000Y41190000D01*
X21405000Y43690000D02*
X18705000Y48190000D01*
X15405000Y38690000D02*
X19905000Y38690000D01*
X22905000Y38690000D02*
X27405000Y38690000D01*
X21405000Y42190000D02*
X21405000Y43690000D01*
X19905000Y41190000D02*
X22905000Y41190000D01*
X13705000Y50390000D02*
X29105000Y50390000D01*
X21405000Y35290000D02*
X25105000Y35290000D01*
X25105000Y42190000D02*
X25105000Y35290000D01*
X21405000Y35290000D02*
X21405000Y34390000D01*
X15405000Y38690000D02*
X15405000Y36390000D01*
X22905000Y41190000D02*
X22905000Y36190000D01*
X29105000Y50390000D02*
X29105000Y31190000D01*
X22905000Y41190000D02*
X19905000Y36190000D01*
X21405000Y42190000D02*
X25105000Y42190000D01*
X13705000Y31190000D02*
X13705000Y50390000D01*
X22605000Y31190000D02*
X29105000Y31190000D01*
X25705000Y46890000D02*
X23405000Y46890000D01*
X17105000Y46890000D02*
X19405000Y46890000D01*
X27405000Y36390000D02*
X27405000Y38690000D01*
X22905000Y36190000D02*
X19905000Y36190000D01*
X13705000Y31190000D02*
X20205000Y31190000D01*
%TO.C,J5*%
X85194000Y27073000D02*
X85574000Y26693000D01*
X84912000Y26822000D02*
X85308000Y26427000D01*
X79860000Y10520000D02*
X79860000Y50640000D01*
X85467000Y11798000D02*
X85574000Y11692000D01*
X82532000Y29734000D02*
X82928000Y29339000D01*
X88520000Y10520000D02*
X88520000Y50640000D01*
X85194000Y37073000D02*
X85574000Y36693000D01*
X82266000Y14468000D02*
X82373000Y14361000D01*
X84912000Y31822000D02*
X85308000Y31427000D01*
X82532000Y24734000D02*
X82928000Y24339000D01*
X79860000Y10520000D02*
X88980000Y10520000D01*
X82266000Y44468000D02*
X82646000Y44088000D01*
X84912000Y36822000D02*
X85308000Y36427000D01*
X88980000Y10520000D02*
X88980000Y50640000D01*
X88580000Y10280000D02*
X89220000Y10280000D01*
X85194000Y17073000D02*
X85574000Y16693000D01*
X84912000Y41822000D02*
X85308000Y41427000D01*
X82266000Y29468000D02*
X82646000Y29088000D01*
X84912000Y16822000D02*
X85308000Y16427000D01*
X82532000Y49734000D02*
X82928000Y49339000D01*
X82266000Y39468000D02*
X82646000Y39088000D01*
X82532000Y19734000D02*
X82928000Y19339000D01*
X82266000Y24468000D02*
X82646000Y24088000D01*
X85201000Y11532000D02*
X85308000Y11426000D01*
X84912000Y46822000D02*
X85308000Y46427000D01*
X82532000Y14734000D02*
X82639000Y14627000D01*
X85194000Y32073000D02*
X85574000Y31693000D01*
X89220000Y10280000D02*
X89220000Y10680000D01*
X79860000Y50640000D02*
X88980000Y50640000D01*
X84912000Y21822000D02*
X85308000Y21427000D01*
X82266000Y19468000D02*
X82646000Y19088000D01*
X85194000Y42073000D02*
X85574000Y41693000D01*
X82266000Y49468000D02*
X82646000Y49088000D01*
X85194000Y22073000D02*
X85574000Y21693000D01*
X82532000Y34734000D02*
X82928000Y34339000D01*
X82266000Y34468000D02*
X82646000Y34088000D01*
X87420000Y10520000D02*
X87420000Y50640000D01*
X82532000Y39734000D02*
X82928000Y39339000D01*
X82532000Y44734000D02*
X82928000Y44339000D01*
X85194000Y47073000D02*
X85574000Y46693000D01*
X86100000Y13080000D02*
G75*
G03*
X86100000Y13080000I-2180000J0D01*
G01*
X86100000Y28080000D02*
G75*
G03*
X86100000Y28080000I-2180000J0D01*
G01*
X86100000Y33080000D02*
G75*
G03*
X86100000Y33080000I-2180000J0D01*
G01*
X86100000Y23080000D02*
G75*
G03*
X86100000Y23080000I-2180000J0D01*
G01*
X86100000Y48080000D02*
G75*
G03*
X86100000Y48080000I-2180000J0D01*
G01*
X86100000Y38080000D02*
G75*
G03*
X86100000Y38080000I-2180000J0D01*
G01*
X86100000Y18080000D02*
G75*
G03*
X86100000Y18080000I-2180000J0D01*
G01*
X86100000Y43080000D02*
G75*
G03*
X86100000Y43080000I-2180000J0D01*
G01*
%TO.C,J3*%
X2005000Y23020000D02*
X3335000Y23020000D01*
X675000Y20420000D02*
X3335000Y20420000D01*
X3335000Y20420000D02*
X3335000Y7660000D01*
X3335000Y23020000D02*
X3335000Y21690000D01*
X675000Y20420000D02*
X675000Y7660000D01*
X675000Y7660000D02*
X3335000Y7660000D01*
%TO.C,J2*%
X25433000Y4612000D02*
X25433000Y7272000D01*
X17753000Y7272000D02*
X25433000Y7272000D01*
X17753000Y4612000D02*
X17753000Y7272000D01*
X17753000Y4612000D02*
X25433000Y4612000D01*
X15153000Y7272000D02*
X16483000Y7272000D01*
X15153000Y5942000D02*
X15153000Y7272000D01*
%TO.C,J1*%
X34330000Y45820000D02*
X34330000Y48420000D01*
X35660000Y43220000D02*
X34330000Y43220000D01*
X36930000Y43220000D02*
X36930000Y45820000D01*
X36930000Y43220000D02*
X42070000Y43220000D01*
X34330000Y43220000D02*
X34330000Y44550000D01*
X34330000Y48420000D02*
X42070000Y48420000D01*
X42070000Y43220000D02*
X42070000Y48420000D01*
X36930000Y45820000D02*
X34330000Y45820000D01*
%TO.C,F2*%
X75590000Y10172000D02*
X75590000Y14412000D01*
X66850000Y14412000D02*
X66850000Y10172000D01*
X75590000Y10172000D02*
X66850000Y10172000D01*
X66850000Y14412000D02*
X75590000Y14412000D01*
%TO.C,F1*%
X75590000Y3060000D02*
X75590000Y7300000D01*
X66850000Y7300000D02*
X66850000Y3060000D01*
X75590000Y3060000D02*
X66850000Y3060000D01*
X66850000Y7300000D02*
X75590000Y7300000D01*
%TO.C,C6*%
X53778000Y45820000D02*
G75*
G03*
X53778000Y45820000I-4120000J0D01*
G01*
X47257000Y46860000D02*
X47257000Y49129000D01*
X48497000Y41906000D02*
X48497000Y44780000D01*
X46377000Y43366000D02*
X46377000Y48274000D01*
X45657000Y44872000D02*
X45657000Y46768000D01*
X49218000Y41763000D02*
X49218000Y49877000D01*
X47897000Y46860000D02*
X47897000Y49506000D01*
X48057000Y42063000D02*
X48057000Y44780000D01*
X47457000Y42376000D02*
X47457000Y44780000D01*
X47817000Y46860000D02*
X47817000Y49467000D01*
X45817000Y44367000D02*
X45817000Y47273000D01*
X49338000Y41752000D02*
X49338000Y49888000D01*
X45937000Y44089000D02*
X45937000Y47551000D01*
X45697000Y44722000D02*
X45697000Y46918000D01*
X47257000Y42511000D02*
X47257000Y44780000D01*
X47817000Y42173000D02*
X47817000Y44780000D01*
X49058000Y41783000D02*
X49058000Y49857000D01*
X46497000Y43216000D02*
X46497000Y48424000D01*
X49578000Y41740000D02*
X49578000Y49900000D01*
X48297000Y46860000D02*
X48297000Y49670000D01*
X45777000Y44474000D02*
X45777000Y47166000D01*
X47177000Y42570000D02*
X47177000Y44780000D01*
X46217000Y43592000D02*
X46217000Y48048000D01*
X47057000Y42664000D02*
X47057000Y44780000D01*
X47417000Y42402000D02*
X47417000Y44780000D01*
X48937000Y41803000D02*
X48937000Y44780000D01*
X49178000Y41768000D02*
X49178000Y49872000D01*
X48737000Y46860000D02*
X48737000Y49796000D01*
X48177000Y42015000D02*
X48177000Y44780000D01*
X47497000Y46860000D02*
X47497000Y49289000D01*
X49658000Y41740000D02*
X49658000Y49900000D01*
X45857000Y44268000D02*
X45857000Y47372000D01*
X47777000Y42193000D02*
X47777000Y44780000D01*
X48097000Y42046000D02*
X48097000Y44780000D01*
X47137000Y42600000D02*
X47137000Y44780000D01*
X47097000Y42631000D02*
X47097000Y44780000D01*
X47857000Y42154000D02*
X47857000Y44780000D01*
X47457000Y46860000D02*
X47457000Y49264000D01*
X46297000Y43475000D02*
X46297000Y48165000D01*
X48057000Y46860000D02*
X48057000Y49577000D01*
X48537000Y46860000D02*
X48537000Y49745000D01*
X47697000Y42236000D02*
X47697000Y44780000D01*
X47337000Y42455000D02*
X47337000Y44780000D01*
X47177000Y46860000D02*
X47177000Y49070000D01*
X46017000Y43930000D02*
X46017000Y47710000D01*
X48777000Y41835000D02*
X48777000Y44780000D01*
X46737000Y42953000D02*
X46737000Y48687000D01*
X48617000Y46860000D02*
X48617000Y49767000D01*
X48457000Y41918000D02*
X48457000Y44780000D01*
X48177000Y46860000D02*
X48177000Y49625000D01*
X45617000Y45052000D02*
X45617000Y46588000D01*
X54067698Y43505000D02*
X53267698Y43505000D01*
X48657000Y46860000D02*
X48657000Y49777000D01*
X47537000Y42327000D02*
X47537000Y44780000D01*
X47217000Y46860000D02*
X47217000Y49100000D01*
X47977000Y42098000D02*
X47977000Y44780000D01*
X48377000Y41943000D02*
X48377000Y44780000D01*
X48577000Y46860000D02*
X48577000Y49756000D01*
X47297000Y46860000D02*
X47297000Y49158000D01*
X48217000Y41999000D02*
X48217000Y44780000D01*
X47937000Y42116000D02*
X47937000Y44780000D01*
X46937000Y42765000D02*
X46937000Y44780000D01*
X46657000Y43036000D02*
X46657000Y48604000D01*
X49418000Y41746000D02*
X49418000Y49894000D01*
X47777000Y46860000D02*
X47777000Y49447000D01*
X46977000Y46860000D02*
X46977000Y48910000D01*
X46897000Y46860000D02*
X46897000Y48839000D01*
X46857000Y42837000D02*
X46857000Y48803000D01*
X48217000Y46860000D02*
X48217000Y49641000D01*
X49538000Y41741000D02*
X49538000Y49899000D01*
X47657000Y42258000D02*
X47657000Y44780000D01*
X47577000Y46860000D02*
X47577000Y49337000D01*
X46097000Y43786000D02*
X46097000Y47854000D01*
X48337000Y41957000D02*
X48337000Y44780000D01*
X47217000Y42540000D02*
X47217000Y44780000D01*
X47377000Y46860000D02*
X47377000Y49212000D01*
X46337000Y43420000D02*
X46337000Y48220000D01*
X45577000Y45287000D02*
X45577000Y46353000D01*
X46137000Y43718000D02*
X46137000Y47922000D01*
X46057000Y43856000D02*
X46057000Y47784000D01*
X46977000Y42730000D02*
X46977000Y44780000D01*
X48777000Y46860000D02*
X48777000Y49805000D01*
X48978000Y41796000D02*
X48978000Y49844000D01*
X47297000Y42482000D02*
X47297000Y44780000D01*
X48137000Y46860000D02*
X48137000Y49610000D01*
X47937000Y46860000D02*
X47937000Y49524000D01*
X49138000Y41772000D02*
X49138000Y49868000D01*
X46897000Y42801000D02*
X46897000Y44780000D01*
X47017000Y46860000D02*
X47017000Y48944000D01*
X47617000Y42280000D02*
X47617000Y44780000D01*
X48257000Y46860000D02*
X48257000Y49655000D01*
X47577000Y42303000D02*
X47577000Y44780000D01*
X46617000Y43079000D02*
X46617000Y48561000D01*
X46937000Y46860000D02*
X46937000Y48875000D01*
X47057000Y46860000D02*
X47057000Y48976000D01*
X47657000Y46860000D02*
X47657000Y49382000D01*
X48937000Y46860000D02*
X48937000Y49837000D01*
X47337000Y46860000D02*
X47337000Y49185000D01*
X48417000Y46860000D02*
X48417000Y49709000D01*
X48017000Y46860000D02*
X48017000Y49560000D01*
X46537000Y43169000D02*
X46537000Y48471000D01*
X47737000Y46860000D02*
X47737000Y49426000D01*
X48817000Y41826000D02*
X48817000Y44780000D01*
X48497000Y46860000D02*
X48497000Y49734000D01*
X47097000Y46860000D02*
X47097000Y49009000D01*
X47857000Y46860000D02*
X47857000Y49486000D01*
X47737000Y42214000D02*
X47737000Y44780000D01*
X48257000Y41985000D02*
X48257000Y44780000D01*
X49378000Y41749000D02*
X49378000Y49891000D01*
X47417000Y46860000D02*
X47417000Y49238000D01*
X47977000Y46860000D02*
X47977000Y49542000D01*
X48657000Y41863000D02*
X48657000Y44780000D01*
X48857000Y46860000D02*
X48857000Y49822000D01*
X48537000Y41895000D02*
X48537000Y44780000D01*
X53667698Y43105000D02*
X53667698Y43905000D01*
X48737000Y41844000D02*
X48737000Y44780000D01*
X47697000Y46860000D02*
X47697000Y49404000D01*
X45737000Y44591000D02*
X45737000Y47049000D01*
X49298000Y41755000D02*
X49298000Y49885000D01*
X47137000Y46860000D02*
X47137000Y49040000D01*
X47017000Y42696000D02*
X47017000Y44780000D01*
X46177000Y43654000D02*
X46177000Y47986000D01*
X46697000Y42994000D02*
X46697000Y48646000D01*
X48337000Y46860000D02*
X48337000Y49683000D01*
X48577000Y41884000D02*
X48577000Y44780000D01*
X47497000Y42351000D02*
X47497000Y44780000D01*
X49618000Y41740000D02*
X49618000Y49900000D01*
X49018000Y41790000D02*
X49018000Y49850000D01*
X48897000Y41810000D02*
X48897000Y44780000D01*
X45977000Y44007000D02*
X45977000Y47633000D01*
X46457000Y43264000D02*
X46457000Y48376000D01*
X47537000Y46860000D02*
X47537000Y49313000D01*
X48697000Y41853000D02*
X48697000Y44780000D01*
X48417000Y41931000D02*
X48417000Y44780000D01*
X48457000Y46860000D02*
X48457000Y49722000D01*
X48137000Y42030000D02*
X48137000Y44780000D01*
X47377000Y42428000D02*
X47377000Y44780000D01*
X48897000Y46860000D02*
X48897000Y49830000D01*
X48857000Y41818000D02*
X48857000Y44780000D01*
X46577000Y43123000D02*
X46577000Y48517000D01*
X48017000Y42080000D02*
X48017000Y44780000D01*
X47897000Y42134000D02*
X47897000Y44780000D01*
X46777000Y42913000D02*
X46777000Y48727000D01*
X48097000Y46860000D02*
X48097000Y49594000D01*
X48697000Y46860000D02*
X48697000Y49787000D01*
X47617000Y46860000D02*
X47617000Y49360000D01*
X49498000Y41743000D02*
X49498000Y49897000D01*
X46417000Y43315000D02*
X46417000Y48325000D01*
X45897000Y44175000D02*
X45897000Y47465000D01*
X48617000Y41873000D02*
X48617000Y44780000D01*
X48297000Y41970000D02*
X48297000Y44780000D01*
X46257000Y43533000D02*
X46257000Y48107000D01*
X48377000Y46860000D02*
X48377000Y49697000D01*
X49258000Y41759000D02*
X49258000Y49881000D01*
X49458000Y41744000D02*
X49458000Y49896000D01*
X48817000Y46860000D02*
X48817000Y49814000D01*
X49098000Y41778000D02*
X49098000Y49862000D01*
X46817000Y42875000D02*
X46817000Y48765000D01*
%TD*%
M02*
