%TF.GenerationSoftware,KiCad,Pcbnew,7.0.1+dfsg-1*%
%TF.CreationDate,2024-08-17T23:40:15+03:00*%
%TF.ProjectId,OpenEVSE_mod,4f70656e-4556-4534-955f-6d6f642e6b69,rev?*%
%TF.SameCoordinates,PX9d5b340PY54e0840*%
%TF.FileFunction,Paste,Bot*%
%TF.FilePolarity,Positive*%
%FSLAX46Y46*%
G04 Gerber Fmt 4.6, Leading zero omitted, Abs format (unit mm)*
G04 Created by KiCad (PCBNEW 7.0.1+dfsg-1) date 2024-08-17 23:40:15*
%MOMM*%
%LPD*%
G01*
G04 APERTURE LIST*
G04 Aperture macros list*
%AMRoundRect*
0 Rectangle with rounded corners*
0 $1 Rounding radius*
0 $2 $3 $4 $5 $6 $7 $8 $9 X,Y pos of 4 corners*
0 Add a 4 corners polygon primitive as box body*
4,1,4,$2,$3,$4,$5,$6,$7,$8,$9,$2,$3,0*
0 Add four circle primitives for the rounded corners*
1,1,$1+$1,$2,$3*
1,1,$1+$1,$4,$5*
1,1,$1+$1,$6,$7*
1,1,$1+$1,$8,$9*
0 Add four rect primitives between the rounded corners*
20,1,$1+$1,$2,$3,$4,$5,0*
20,1,$1+$1,$4,$5,$6,$7,0*
20,1,$1+$1,$6,$7,$8,$9,0*
20,1,$1+$1,$8,$9,$2,$3,0*%
%AMOutline4P*
0 Free polygon, 4 corners , with rotation*
0 The origin of the aperture is its center*
0 number of corners: always 4*
0 $1 to $8 corner X, Y*
0 $9 Rotation angle, in degrees counterclockwise*
0 create outline with 4 corners*
4,1,4,$1,$2,$3,$4,$5,$6,$7,$8,$1,$2,$9*%
G04 Aperture macros list end*
%ADD10RoundRect,0.250000X-0.337500X-0.475000X0.337500X-0.475000X0.337500X0.475000X-0.337500X0.475000X0*%
%ADD11Outline4P,-2.150000X-1.800000X2.150000X-0.800000X2.150000X0.800000X-2.150000X1.800000X180.000000*%
%ADD12Outline4P,-2.150000X-1.800000X2.150000X-0.800000X2.150000X0.800000X-2.150000X1.800000X0.000000*%
%ADD13RoundRect,0.150000X0.150000X-0.825000X0.150000X0.825000X-0.150000X0.825000X-0.150000X-0.825000X0*%
%ADD14RoundRect,0.150000X-0.825000X-0.150000X0.825000X-0.150000X0.825000X0.150000X-0.825000X0.150000X0*%
%ADD15R,2.000000X1.500000*%
%ADD16R,2.000000X3.800000*%
%ADD17R,1.600000X0.550000*%
%ADD18R,0.550000X1.600000*%
%ADD19RoundRect,0.250000X-1.500000X-0.900000X1.500000X-0.900000X1.500000X0.900000X-1.500000X0.900000X0*%
%ADD20RoundRect,0.250000X-0.350000X-0.450000X0.350000X-0.450000X0.350000X0.450000X-0.350000X0.450000X0*%
%ADD21RoundRect,0.250000X-0.450000X0.350000X-0.450000X-0.350000X0.450000X-0.350000X0.450000X0.350000X0*%
%ADD22RoundRect,0.250000X0.350000X0.450000X-0.350000X0.450000X-0.350000X-0.450000X0.350000X-0.450000X0*%
%ADD23RoundRect,0.250000X0.450000X-0.350000X0.450000X0.350000X-0.450000X0.350000X-0.450000X-0.350000X0*%
%ADD24RoundRect,0.150000X0.150000X-0.587500X0.150000X0.587500X-0.150000X0.587500X-0.150000X-0.587500X0*%
%ADD25RoundRect,0.250000X0.650000X-1.000000X0.650000X1.000000X-0.650000X1.000000X-0.650000X-1.000000X0*%
%ADD26RoundRect,0.160000X-0.160000X0.222500X-0.160000X-0.222500X0.160000X-0.222500X0.160000X0.222500X0*%
%ADD27RoundRect,0.250000X0.475000X-0.337500X0.475000X0.337500X-0.475000X0.337500X-0.475000X-0.337500X0*%
%ADD28RoundRect,0.250000X-0.475000X0.337500X-0.475000X-0.337500X0.475000X-0.337500X0.475000X0.337500X0*%
G04 APERTURE END LIST*
D10*
%TO.C,C16*%
X36760000Y18388000D03*
X38835000Y18388000D03*
%TD*%
D11*
%TO.C,D4*%
X24400000Y41000000D03*
D12*
X18000000Y41000000D03*
%TD*%
D13*
%TO.C,U7*%
X16483000Y26949000D03*
X15213000Y26949000D03*
X13943000Y26949000D03*
X12673000Y26949000D03*
X12673000Y21999000D03*
X13943000Y21999000D03*
X15213000Y21999000D03*
X16483000Y21999000D03*
%TD*%
D14*
%TO.C,U6*%
X17815000Y10260000D03*
X17815000Y11530000D03*
X17815000Y12800000D03*
X17815000Y14070000D03*
X12865000Y14070000D03*
X12865000Y12800000D03*
X12865000Y11530000D03*
X12865000Y10260000D03*
%TD*%
D15*
%TO.C,U2*%
X39420000Y55980000D03*
D16*
X33120000Y53680000D03*
D15*
X39420000Y53680000D03*
X39420000Y51380000D03*
%TD*%
D17*
%TO.C,U1*%
X43720000Y25240000D03*
X43720000Y26040000D03*
X43720000Y26840000D03*
X43720000Y27640000D03*
X43720000Y28440000D03*
X43720000Y29240000D03*
X43720000Y30040000D03*
X43720000Y30840000D03*
D18*
X42270000Y32290000D03*
X41470000Y32290000D03*
X40670000Y32290000D03*
X39870000Y32290000D03*
X39070000Y32290000D03*
X38270000Y32290000D03*
X37470000Y32290000D03*
X36670000Y32290000D03*
D17*
X35220000Y30840000D03*
X35220000Y30040000D03*
X35220000Y29240000D03*
X35220000Y28440000D03*
X35220000Y27640000D03*
X35220000Y26840000D03*
X35220000Y26040000D03*
X35220000Y25240000D03*
D18*
X36670000Y23790000D03*
X37470000Y23790000D03*
X38270000Y23790000D03*
X39070000Y23790000D03*
X39870000Y23790000D03*
X40670000Y23790000D03*
X41470000Y23790000D03*
X42270000Y23790000D03*
%TD*%
D19*
%TO.C,TVS1*%
X16290000Y53440000D03*
X21690000Y53440000D03*
%TD*%
D20*
%TO.C,R14*%
X8244000Y30580000D03*
X10244000Y30580000D03*
%TD*%
D21*
%TO.C,R13*%
X8863000Y21329000D03*
X8863000Y19329000D03*
%TD*%
%TO.C,R12*%
X10768000Y19329000D03*
X10768000Y21329000D03*
%TD*%
D20*
%TO.C,R11*%
X10863000Y23869000D03*
X8863000Y23869000D03*
%TD*%
D22*
%TO.C,R10*%
X8863000Y25774000D03*
X10863000Y25774000D03*
%TD*%
D23*
%TO.C,R9*%
X18388000Y22599000D03*
X18388000Y20599000D03*
%TD*%
%TO.C,R8*%
X18388000Y18864000D03*
X18388000Y16864000D03*
%TD*%
D20*
%TO.C,R5*%
X51948000Y15848000D03*
X53948000Y15848000D03*
%TD*%
%TO.C,R4*%
X51948000Y18388000D03*
X53948000Y18388000D03*
%TD*%
D21*
%TO.C,R3*%
X7085000Y37927500D03*
X7085000Y35927500D03*
%TD*%
D23*
%TO.C,R2*%
X5180000Y35927500D03*
X5180000Y37927500D03*
%TD*%
D22*
%TO.C,R1*%
X49344000Y27532000D03*
X47344000Y27532000D03*
%TD*%
D24*
%TO.C,Q1*%
X11215000Y34722500D03*
X10265000Y32847500D03*
X12165000Y32847500D03*
%TD*%
D25*
%TO.C,D3*%
X71220000Y51980000D03*
X71220000Y55980000D03*
%TD*%
%TO.C,D2*%
X76300000Y50360000D03*
X76300000Y46360000D03*
%TD*%
D26*
%TO.C,D1*%
X7085000Y34532500D03*
X7085000Y33387500D03*
%TD*%
D27*
%TO.C,C15*%
X10195000Y14070000D03*
X10195000Y11995000D03*
%TD*%
D28*
%TO.C,C14*%
X15340000Y17043000D03*
X15340000Y19118000D03*
%TD*%
D10*
%TO.C,C13*%
X44720000Y51535000D03*
X42645000Y51535000D03*
%TD*%
D28*
%TO.C,C12*%
X13308000Y19118000D03*
X13308000Y17043000D03*
%TD*%
%TO.C,C11*%
X20990000Y13900000D03*
X20990000Y11825000D03*
%TD*%
D27*
%TO.C,C10*%
X7655000Y14070000D03*
X7655000Y11995000D03*
%TD*%
D10*
%TO.C,C9*%
X42645000Y54075000D03*
X44720000Y54075000D03*
%TD*%
%TO.C,C8*%
X42645000Y56615000D03*
X44720000Y56615000D03*
%TD*%
D27*
%TO.C,C7*%
X18388000Y29024000D03*
X18388000Y26949000D03*
%TD*%
%TO.C,C5*%
X30580000Y21436000D03*
X30580000Y23511000D03*
%TD*%
D28*
%TO.C,C4*%
X30580000Y17880000D03*
X30580000Y15805000D03*
%TD*%
D27*
%TO.C,C3*%
X40740000Y36719000D03*
X40740000Y34644000D03*
%TD*%
D28*
%TO.C,C2*%
X54710000Y48360000D03*
X54710000Y46285000D03*
%TD*%
D27*
%TO.C,C1*%
X38708000Y34644000D03*
X38708000Y36719000D03*
%TD*%
M02*
