M48
; DRILL file {KiCad 7.0.1+dfsg-1} date Sat 17 Aug 2024 11:40:25 PM EEST
; FORMAT={-:-/ absolute / inch / decimal}
; #@! TF.CreationDate,2024-08-17T23:40:25+03:00
; #@! TF.GenerationSoftware,Kicad,Pcbnew,7.0.1+dfsg-1
; #@! TF.FileFunction,MixedPlating,1,2
FMAT,2
INCH
; #@! TA.AperFunction,Plated,PTH,ViaDrill
T1C0.0157
; #@! TA.AperFunction,Plated,PTH,ComponentDrill
T2C0.0315
; #@! TA.AperFunction,Plated,PTH,ComponentDrill
T3C0.0394
; #@! TA.AperFunction,Plated,PTH,ComponentDrill
T4C0.0433
; #@! TA.AperFunction,Plated,PTH,ComponentDrill
T5C0.0512
; #@! TA.AperFunction,Plated,PTH,ComponentDrill
T6C0.1260
; #@! TA.AperFunction,NonPlated,NPTH,ComponentDrill
T7C0.1260
%
G90
G05
T1
X0.2239Y0.5839
X0.2639Y1.1039
X0.2639Y1.0039
X0.2739Y1.2039
X0.2789Y1.2589
X0.2839Y0.9039
X0.3039Y0.6839
X0.3439Y1.3039
X0.4439Y0.6839
X0.4589Y1.0689
X0.5439Y0.9239
X0.5841Y1.1438
X0.6039Y0.5439
X0.6039Y0.4839
X0.6639Y1.1439
X0.7039Y0.9839
X0.7239Y0.9439
X0.7739Y0.4939
X0.7739Y0.4539
X0.7742Y1.061
X0.7839Y0.6439
X0.8339Y1.4889
X0.8439Y2.2039
X0.8439Y1.1039
X0.8539Y2.0089
X0.9189Y1.3989
X0.9439Y2.2039
X0.9589Y2.0039
X0.9639Y2.1039
X0.9639Y1.2889
X0.9689Y0.4189
X0.9739Y0.5239
X1.0389Y0.4189
X1.0439Y0.5239
X1.1089Y1.6789
X1.1139Y1.2539
X1.1239Y0.1439
X1.1239Y0.0239
X1.1689Y1.2639
X1.2039Y0.9889
X1.2839Y0.3239
X1.2939Y0.9289
X1.3139Y0.6639
X1.3189Y1.3639
X1.3239Y1.2039
X1.4039Y1.2839
X1.4439Y2.1839
X1.4639Y1.3439
X1.4839Y2.3039
X1.4839Y1.1239
X1.5039Y0.7839
X1.5239Y1.3639
X1.5352Y0.8589
X1.5639Y1.5039
X1.5697Y1.2039
X1.5739Y0.7939
X1.5839Y2.2839
X1.5839Y0.4239
X1.6139Y0.7489
X1.6239Y1.0239
X1.6339Y1.5039
X1.6539Y1.0939
X1.6789Y2.1289
X1.7339Y0.8439
X1.7839Y1.0537
X1.7839Y0.8239
X1.7889Y1.3689
X1.8039Y1.2289
X1.8289Y0.8839
X1.8339Y0.9539
X1.8439Y2.2239
X1.8439Y2.1439
X1.8439Y2.1039
X1.8439Y2.0239
X1.8439Y1.5489
X1.8439Y0.5239
X1.8639Y1.0239
X1.9239Y1.4639
X1.9439Y1.0839
X1.9839Y0.6239
X1.9841Y0.7038
X1.9939Y0.8639
X1.9989Y0.9839
X2.0389Y1.0839
X2.0639Y0.5439
X2.0839Y1.8239
X2.1639Y1.7439
X2.2039Y0.5839
X2.2239Y1.8239
X2.3228Y0.748
X2.3239Y0.6439
T2
X1.0439Y0.8839
X1.0439Y0.6918
X1.8861Y1.8039
X2.0239Y1.8039
X2.2535Y2.2039
X2.2535Y2.1039
X2.2535Y2.0039
X2.2535Y1.9039
X2.3488Y0.1563
X2.4039Y1.5535
X2.4039Y1.4535
X2.4039Y1.3535
X2.4039Y1.2535
X2.4039Y1.0535
X2.4039Y0.9535
X2.4039Y0.8535
X2.4039Y0.7535
X2.4039Y0.4516
X2.5535Y2.2039
X2.5535Y2.1039
X2.5535Y2.0039
X2.5535Y1.9039
X2.7039Y1.5535
X2.7039Y1.3535
X2.7039Y1.2535
X2.7039Y1.0535
X2.7039Y0.8535
X2.7039Y0.7535
X2.8039Y2.3039
X2.8039Y1.7039
X3.0039Y2.2039
X3.0039Y1.6039
T3
X0.0789Y0.8539
X0.0789Y0.7539
X0.0789Y0.6539
X0.0789Y0.5539
X0.0789Y0.4539
X0.0789Y0.3539
X0.6489Y0.2339
X0.6489Y0.0689
X0.7489Y0.2339
X0.7489Y0.0689
X0.8489Y0.2339
X0.8489Y0.0689
X0.9489Y0.2339
X0.9489Y0.0689
X1.4039Y1.8539
X1.4039Y1.7539
X1.5039Y1.8539
X1.5039Y1.7539
X1.6039Y1.8539
X1.6039Y1.7539
X2.7039Y0.4843
X2.7039Y0.2043
X2.9039Y0.4839
X2.9039Y0.2039
T4
X1.3552Y1.471
X1.5914Y0.1481
X1.8277Y0.1481
X2.0639Y1.471
T5
X0.2539Y1.8508
X0.2539Y1.6539
X0.6065Y1.8461
X0.6065Y1.3657
X0.8427Y1.287
X1.0789Y1.8461
X1.0789Y1.3657
X3.3039Y1.8929
X3.3039Y1.6961
X3.3039Y1.4992
X3.3039Y1.3024
X3.3039Y1.1055
X3.3039Y0.9087
X3.3039Y0.7118
X3.3039Y0.515
T6
X0.2756Y2.2047
X0.2756Y0.1575
T7
X3.3071Y2.2047
X3.3071Y0.1969
T0
M30
